Baskervville-Italic.ufo
<glyph name="numbersign" format="1">
  <advance width="707"/>
  <unicode hex="0023"/>
  <outline>
    <contour>
      <point x="395" y="0" type="line"/>
      <point x="432" y="0" type="line"/>
      <point x="637" y="710" type="line"/>
      <point x="600" y="710" type="line"/>
    </contour>
    <contour>
      <point x="56" y="237" type="line"/>
      <point x="239" y="237" type="line"/>
      <point x="248" y="268" type="line"/>
      <point x="65" y="268" type="line"/>
    </contour>
    <contour>
      <point x="261" y="237" type="line"/>
      <point x="472" y="237" type="line"/>
      <point x="481" y="268" type="line"/>
      <point x="268" y="268" type="line"/>
    </contour>
    <contour>
      <point x="162" y="0" type="line"/>
      <point x="199" y="0" type="line"/>
      <point x="404" y="710" type="line"/>
      <point x="368" y="710" type="line"/>
    </contour>
    <contour>
      <point x="115" y="447" type="line"/>
      <point x="299" y="447" type="line"/>
      <point x="308" y="479" type="line"/>
      <point x="124" y="479" type="line"/>
    </contour>
    <contour>
      <point x="493" y="237" type="line"/>
      <point x="693" y="237" type="line"/>
      <point x="702" y="268" type="line"/>
      <point x="501" y="268" type="line"/>
    </contour>
    <contour>
      <point x="321" y="447" type="line"/>
      <point x="532" y="447" type="line"/>
      <point x="541" y="479" type="line"/>
      <point x="329" y="479" type="line"/>
    </contour>
    <contour>
      <point x="554" y="447" type="line"/>
      <point x="753" y="447" type="line"/>
      <point x="762" y="479" type="line"/>
      <point x="561" y="479" type="line"/>
    </contour>
  </outline>
</glyph>
<glyph name="dollar" format="1">
  <advance width="589"/>
  <unicode hex="0024"/>
  <outline>
    <contour>
      <point x="171" y="-115" type="line"/>
      <point x="196" y="-115" type="line"/>
      <point x="503" y="830" type="line"/>
      <point x="478" y="830" type="line"/>
    </contour>
    <component base="S"/>
  </outline>
</glyph>
<glyph name="quotesingle" format="1">
  <advance width="187"/>
  <unicode hex="0027"/>
  <outline>
    <contour>
      <point x="222" y="507" type="line"/>
      <point x="282" y="648" type="line" smooth="yes"/>
      <point x="289" y="663"/>
      <point x="292" y="678"/>
      <point x="292" y="690" type="curve" smooth="yes"/>
      <point x="292" y="708"/>
      <point x="285" y="720"/>
      <point x="268" y="720" type="curve" smooth="yes"/>
      <point x="241" y="720"/>
      <point x="227" y="691"/>
      <point x="220" y="648" type="curve" smooth="yes"/>
      <point x="199" y="511" type="line"/>
    </contour>
  </outline>
</glyph>
<glyph name="parenright" format="1">
  <advance width="337"/>
  <unicode hex="0029"/>
  <outline>
    <contour>
      <point x="-98" y="-142" type="curve"/>
      <point x="-56" y="-142" type="line"/>
      <point x="102" y="-27"/>
      <point x="357" y="260"/>
      <point x="357" y="533" type="curve" smooth="yes"/>
      <point x="357" y="635"/>
      <point x="302" y="748"/>
      <point x="271" y="784" type="curve"/>
      <point x="248" y="784" type="line"/>
      <point x="260" y="748"/>
      <point x="290" y="665"/>
      <point x="290" y="553" type="curve" smooth="yes"/>
      <point x="290" y="287"/>
      <point x="105" y="13"/>
    </contour>
  </outline>
</glyph>
<glyph name="asterisk" format="1">
  <advance width="520"/>
  <unicode hex="002A"/>
  <outline>
    <contour>
      <point x="363" y="305" type="curve" smooth="yes"/>
      <point x="388" y="305"/>
      <point x="402" y="325"/>
      <point x="402" y="355" type="curve" smooth="yes"/>
      <point x="402" y="392"/>
      <point x="375" y="437"/>
      <point x="375" y="498" type="curve"/>
      <point x="428" y="468"/>
      <point x="454" y="421"/>
      <point x="486" y="402" type="curve" smooth="yes"/>
      <point x="497" y="395"/>
      <point x="508" y="392"/>
      <point x="517" y="392" type="curve" smooth="yes"/>
      <point x="530" y="392"/>
      <point x="541" y="399"/>
      <point x="548" y="411" type="curve" smooth="yes"/>
      <point x="553" y="420"/>
      <point x="555" y="427"/>
      <point x="555" y="434" type="curve" smooth="yes"/>
      <point x="555" y="449"/>
      <point x="544" y="460"/>
      <point x="525" y="471" type="curve" smooth="yes"/>
      <point x="494" y="489"/>
      <point x="438" y="485"/>
      <point x="385" y="515" type="curve"/>
      <point x="435" y="550"/>
      <point x="489" y="551"/>
      <point x="520" y="572" type="curve" smooth="yes"/>
      <point x="536" y="583"/>
      <point x="547" y="595"/>
      <point x="547" y="610" type="curve" smooth="yes"/>
      <point x="547" y="617"/>
      <point x="544" y="625"/>
      <point x="538" y="633" type="curve" smooth="yes"/>
      <point x="530" y="644"/>
      <point x="520" y="650"/>
      <point x="508" y="650" type="curve" smooth="yes"/>
      <point x="498" y="650"/>
      <point x="486" y="645"/>
      <point x="474" y="636" type="curve" smooth="yes"/>
      <point x="446" y="615"/>
      <point x="424" y="566"/>
      <point x="375" y="531" type="curve"/>
      <point x="375" y="592"/>
      <point x="404" y="637"/>
      <point x="404" y="674" type="curve" smooth="yes"/>
      <point x="404" y="704"/>
      <point x="390" y="724"/>
      <point x="365" y="724" type="curve" smooth="yes"/>
      <point x="334" y="724"/>
      <point x="325" y="703"/>
      <point x="325" y="674" type="curve" smooth="yes"/>
      <point x="325" y="637"/>
      <point x="356" y="592"/>
      <point x="356" y="531" type="curve"/>
      <point x="307" y="566"/>
      <point x="286" y="615"/>
      <point x="257" y="636" type="curve" smooth="yes"/>
      <point x="245" y="645"/>
      <point x="233" y="650"/>
      <point x="223" y="650" type="curve" smooth="yes"/>
      <point x="211" y="650"/>
      <point x="201" y="644"/>
      <point x="193" y="633" type="curve" smooth="yes"/>
      <point x="187" y="625"/>
      <point x="184" y="617"/>
      <point x="184" y="610" type="curve" smooth="yes"/>
      <point x="184" y="595"/>
      <point x="195" y="583"/>
      <point x="211" y="572" type="curve" smooth="yes"/>
      <point x="242" y="551"/>
      <point x="296" y="550"/>
      <point x="346" y="515" type="curve"/>
      <point x="293" y="485"/>
      <point x="238" y="489"/>
      <point x="206" y="471" type="curve" smooth="yes"/>
      <point x="188" y="460"/>
      <point x="176" y="449"/>
      <point x="176" y="433" type="curve" smooth="yes"/>
      <point x="176" y="427"/>
      <point x="179" y="419"/>
      <point x="183" y="411" type="curve" smooth="yes"/>
      <point x="190" y="398"/>
      <point x="201" y="392"/>
      <point x="214" y="392" type="curve" smooth="yes"/>
      <point x="223" y="392"/>
      <point x="234" y="395"/>
      <point x="245" y="402" type="curve" smooth="yes"/>
      <point x="277" y="421"/>
      <point x="303" y="468"/>
      <point x="356" y="498" type="curve"/>
      <point x="356" y="437"/>
      <point x="323" y="392"/>
      <point x="323" y="355" type="curve" smooth="yes"/>
      <point x="323" y="326"/>
      <point x="332" y="305"/>
    </contour>
  </outline>
</glyph>
<glyph name="plus" format="1">
  <advance width="556"/>
  <unicode hex="002B"/>
  <outline>
    <contour>
      <point x="219" y="106" type="line"/>
      <point x="255" y="106" type="line"/>
      <point x="409" y="529" type="line"/>
      <point x="373" y="529" type="line"/>
    </contour>
    <component base="minus" xOffset="-1"/>
  </outline>
</glyph>
<glyph name="hyphen" format="1">
  <advance width="388"/>
  <unicode hex="002D"/>
  <outline>
    <contour>
      <point x="53" y="196" type="line"/>
      <point x="320" y="196" type="line"/>
      <point x="332" y="232" type="line"/>
      <point x="65" y="232" type="line"/>
    </contour>
  </outline>
</glyph>
<glyph name="period" format="1">
  <advance width="245"/>
  <unicode hex="002E"/>
  <outline>
    <contour>
      <point x="61" y="-11" type="curve" smooth="yes"/>
      <point x="93" y="-11"/>
      <point x="119" y="16"/>
      <point x="119" y="49" type="curve" smooth="yes"/>
      <point x="119" y="80"/>
      <point x="93" y="107"/>
      <point x="61" y="107" type="curve" smooth="yes"/>
      <point x="26" y="107"/>
      <point x="1" y="80"/>
      <point x="1" y="49" type="curve" smooth="yes"/>
      <point x="1" y="16"/>
      <point x="26" y="-11"/>
    </contour>
  </outline>
</glyph>
<glyph name="slash" format="1">
  <advance width="257"/>
  <unicode hex="002F"/>
  <outline>
    <contour>
      <point x="-129" y="-135" type="line"/>
      <point x="-94" y="-135" type="line"/>
      <point x="480" y="834" type="line"/>
      <point x="445" y="834" type="line"/>
    </contour>
  </outline>
</glyph>
<glyph name="zero" format="1">
  <advance width="490"/>
  <unicode hex="0030"/>
  <outline>
    <contour>
      <point x="185" y="-11" type="curve" smooth="yes"/>
      <point x="338" y="-11"/>
      <point x="479" y="169"/>
      <point x="479" y="328" type="curve" smooth="yes"/>
      <point x="479" y="409"/>
      <point x="438" y="469"/>
      <point x="340" y="469" type="curve" smooth="yes"/>
      <point x="189" y="469"/>
      <point x="42" y="288"/>
      <point x="42" y="131" type="curve" smooth="yes"/>
      <point x="42" y="52"/>
      <point x="87" y="-11"/>
    </contour>
    <contour>
      <point x="196" y="14" type="curve" smooth="yes"/>
      <point x="144" y="14"/>
      <point x="114" y="49"/>
      <point x="114" y="109" type="curve" smooth="yes"/>
      <point x="114" y="239"/>
      <point x="208" y="444"/>
      <point x="331" y="444" type="curve" smooth="yes"/>
      <point x="386" y="444"/>
      <point x="407" y="406"/>
      <point x="407" y="351" type="curve" smooth="yes"/>
      <point x="407" y="204"/>
      <point x="314" y="14"/>
    </contour>
  </outline>
</glyph>
<glyph name="one" format="1">
  <advance width="306"/>
  <unicode hex="0031"/>
  <outline>
    <contour>
      <point x="-41" y="-3" type="line"/>
      <point x="83" y="0" type="line"/>
      <point x="205" y="-3" type="line"/>
      <point x="213" y="20" type="line"/>
      <point x="198" y="22" type="line" smooth="yes"/>
      <point x="162" y="26"/>
      <point x="144" y="29"/>
      <point x="144" y="53" type="curve" smooth="yes"/>
      <point x="144" y="67"/>
      <point x="150" y="88"/>
      <point x="162" y="121" type="curve" smooth="yes"/>
      <point x="291" y="475" type="line"/>
      <point x="251" y="458"/>
      <point x="175" y="450"/>
      <point x="128" y="450" type="curve"/>
      <point x="117" y="420" type="line"/>
      <point x="156" y="420"/>
      <point x="182" y="416"/>
      <point x="182" y="384" type="curve" smooth="yes"/>
      <point x="182" y="372"/>
      <point x="178" y="357"/>
      <point x="171" y="337" type="curve" smooth="yes"/>
      <point x="92" y="121" type="line" smooth="yes"/>
      <point x="59" y="31"/>
      <point x="44" y="29"/>
      <point x="-16" y="22" type="curve" smooth="yes"/>
      <point x="-33" y="20" type="line"/>
    </contour>
  </outline>
</glyph>
<glyph name="two" format="1">
  <advance width="427"/>
  <unicode hex="0032"/>
  <outline>
    <contour>
      <point x="208" y="-88" type="line"/>
      <point x="231" y="-88" type="line"/>
      <point x="265" y="10" type="line"/>
      <point x="298" y="79" type="line"/>
      <point x="94" y="64" type="line"/>
      <point x="154" y="100" type="line" smooth="yes"/>
      <point x="254" y="160"/>
      <point x="403" y="250"/>
      <point x="403" y="357" type="curve" smooth="yes"/>
      <point x="403" y="426"/>
      <point x="350" y="469"/>
      <point x="270" y="469" type="curve" smooth="yes"/>
      <point x="152" y="469"/>
      <point x="78" y="380"/>
      <point x="78" y="293" type="curve" smooth="yes"/>
      <point x="78" y="261"/>
      <point x="93" y="232"/>
      <point x="118" y="218" type="curve"/>
      <point x="136" y="240" type="line"/>
      <point x="121" y="246"/>
      <point x="108" y="265"/>
      <point x="108" y="294" type="curve" smooth="yes"/>
      <point x="108" y="353"/>
      <point x="160" y="438"/>
      <point x="245" y="438" type="curve" smooth="yes"/>
      <point x="289" y="438"/>
      <point x="322" y="414"/>
      <point x="322" y="354" type="curve" smooth="yes"/>
      <point x="322" y="252"/>
      <point x="190" y="156"/>
      <point x="86" y="81" type="curve" smooth="yes"/>
      <point x="2" y="20" type="line"/>
      <point x="-5" y="0" type="line"/>
      <point x="139" y="0" type="line" smooth="yes"/>
      <point x="202" y="0"/>
      <point x="219" y="-7"/>
      <point x="219" y="-31" type="curve" smooth="yes"/>
      <point x="219" y="-41"/>
      <point x="216" y="-55"/>
      <point x="212" y="-72" type="curve" smooth="yes"/>
    </contour>
  </outline>
</glyph>
<glyph name="four" format="1">
  <advance width="512"/>
  <unicode hex="0034"/>
  <outline>
    <contour>
      <point x="385" y="-3" type="line"/>
      <point x="393" y="20" type="line"/>
      <point x="378" y="22" type="line" smooth="yes"/>
      <point x="342" y="26"/>
      <point x="324" y="29"/>
      <point x="324" y="53" type="curve" smooth="yes"/>
      <point x="324" y="67"/>
      <point x="330" y="88"/>
      <point x="342" y="121" type="curve" smooth="yes"/>
      <point x="375" y="212" type="line"/>
      <point x="487" y="212" type="line"/>
      <point x="499" y="245" type="line"/>
      <point x="387" y="245" type="line"/>
      <point x="546" y="681" type="line"/>
      <point x="524" y="681" type="line"/>
      <point x="23" y="241" type="line"/>
      <point x="12" y="212" type="line"/>
      <point x="307" y="212" type="line"/>
      <point x="273" y="121" type="line" smooth="yes"/>
      <point x="239" y="31"/>
      <point x="224" y="29"/>
      <point x="164" y="22" type="curve"/>
      <point x="148" y="21" type="line"/>
      <point x="139" y="-2" type="line"/>
      <point x="263" y="0" type="line"/>
    </contour>
    <contour>
      <point x="65" y="245" type="line"/>
      <point x="442" y="575" type="line"/>
      <point x="319" y="245" type="line"/>
    </contour>
  </outline>
</glyph>
<glyph name="six" format="1">
  <advance width="515"/>
  <unicode hex="0036"/>
  <outline>
    <contour>
      <point x="190" y="-14" type="curve" smooth="yes"/>
      <point x="331" y="-14"/>
      <point x="470" y="156"/>
      <point x="470" y="305" type="curve" smooth="yes"/>
      <point x="470" y="394"/>
      <point x="412" y="431"/>
      <point x="348" y="431" type="curve" smooth="yes"/>
      <point x="286" y="431"/>
      <point x="213" y="393"/>
      <point x="147" y="278" type="curve"/>
      <point x="156" y="278" type="line"/>
      <point x="244" y="570"/>
      <point x="367" y="693"/>
      <point x="445" y="693" type="curve" smooth="yes"/>
      <point x="471" y="693"/>
      <point x="483" y="681"/>
      <point x="483" y="652" type="curve" smooth="yes"/>
      <point x="483" y="627"/>
      <point x="497" y="609"/>
      <point x="527" y="609" type="curve" smooth="yes"/>
      <point x="559" y="609"/>
      <point x="580" y="636"/>
      <point x="580" y="664" type="curve" smooth="yes"/>
      <point x="580" y="710"/>
      <point x="528" y="724"/>
      <point x="487" y="724" type="curve" smooth="yes"/>
      <point x="318" y="724"/>
      <point x="164" y="547"/>
      <point x="89" y="307" type="curve" smooth="yes"/>
      <point x="67" y="236"/>
      <point x="54" y="172"/>
      <point x="54" y="128" type="curve" smooth="yes"/>
      <point x="54" y="38"/>
      <point x="105" y="-14"/>
    </contour>
    <contour>
      <point x="195" y="11" type="curve" smooth="yes"/>
      <point x="154" y="11"/>
      <point x="123" y="39"/>
      <point x="123" y="92" type="curve" smooth="yes"/>
      <point x="123" y="212"/>
      <point x="227" y="403"/>
      <point x="326" y="403" type="curve" smooth="yes"/>
      <point x="368" y="403"/>
      <point x="389" y="375"/>
      <point x="389" y="318" type="curve" smooth="yes"/>
      <point x="389" y="198"/>
      <point x="303" y="11"/>
    </contour>
  </outline>
</glyph>
<glyph name="seven" format="1">
  <advance width="468"/>
  <unicode hex="0037"/>
  <outline>
    <contour>
      <point x="-24" y="-294" type="curve" smooth="yes"/>
      <point x="-4" y="-294"/>
      <point x="24" y="-282"/>
      <point x="58" y="-231" type="curve" smooth="yes"/>
      <point x="492" y="434" type="line"/>
      <point x="498" y="450" type="line"/>
      <point x="141" y="450" type="line"/>
      <point x="159" y="500" type="line"/>
      <point x="137" y="500" type="line"/>
      <point x="52" y="268" type="line"/>
      <point x="74" y="268" type="line"/>
      <point x="111" y="368" type="line"/>
      <point x="425" y="368" type="line"/>
      <point x="-12" y="-197" type="line" smooth="yes"/>
      <point x="-36" y="-227"/>
      <point x="-47" y="-253"/>
      <point x="-47" y="-271" type="curve" smooth="yes"/>
      <point x="-47" y="-285"/>
      <point x="-39" y="-294"/>
    </contour>
  </outline>
</glyph>
<glyph name="eight" format="1">
  <advance width="491"/>
  <unicode hex="0038"/>
  <outline>
    <contour>
      <point x="184" y="-14" type="curve" smooth="yes"/>
      <point x="317" y="-14"/>
      <point x="444" y="82"/>
      <point x="444" y="198" type="curve" smooth="yes"/>
      <point x="444" y="279"/>
      <point x="374" y="354"/>
      <point x="331" y="409" type="curve" smooth="yes"/>
      <point x="290" y="467"/>
      <point x="264" y="505"/>
      <point x="264" y="554" type="curve" smooth="yes"/>
      <point x="264" y="627"/>
      <point x="317" y="691"/>
      <point x="412" y="691" type="curve" smooth="yes"/>
      <point x="471" y="691"/>
      <point x="512" y="659"/>
      <point x="512" y="607" type="curve" smooth="yes"/>
      <point x="512" y="515"/>
      <point x="408" y="445"/>
      <point x="300" y="404" type="curve"/>
      <point x="321" y="381" type="line"/>
      <point x="438" y="430"/>
      <point x="544" y="509"/>
      <point x="544" y="614" type="curve" smooth="yes"/>
      <point x="544" y="678"/>
      <point x="489" y="723"/>
      <point x="411" y="723" type="curve" smooth="yes"/>
      <point x="282" y="723"/>
      <point x="184" y="647"/>
      <point x="184" y="547" type="curve" smooth="yes"/>
      <point x="184" y="482"/>
      <point x="232" y="416"/>
      <point x="268" y="365" type="curve" smooth="yes"/>
      <point x="320" y="299"/>
      <point x="363" y="257"/>
      <point x="363" y="190" type="curve" smooth="yes"/>
      <point x="363" y="94"/>
      <point x="304" y="17"/>
      <point x="187" y="17" type="curve" smooth="yes"/>
      <point x="105" y="17"/>
      <point x="59" y="61"/>
      <point x="59" y="134" type="curve" smooth="yes"/>
      <point x="59" y="232"/>
      <point x="152" y="301"/>
      <point x="294" y="368" type="curve"/>
      <point x="275" y="389" type="line"/>
      <point x="125" y="316"/>
      <point x="27" y="240"/>
      <point x="27" y="126" type="curve" smooth="yes"/>
      <point x="27" y="48"/>
      <point x="88" y="-14"/>
    </contour>
  </outline>
</glyph>
<glyph name="greater" format="1">
  <advance width="502"/>
  <unicode hex="003E"/>
  <outline>
    <contour>
      <point x="71" y="152" type="line"/>
      <point x="464" y="308" type="line"/>
      <point x="472" y="329" type="line"/>
      <point x="169" y="492" type="line"/>
      <point x="161" y="455" type="line"/>
      <point x="429" y="311" type="line"/>
      <point x="430" y="333" type="line"/>
      <point x="77" y="193" type="line"/>
    </contour>
  </outline>
</glyph>
<glyph name="C" format="1">
  <advance width="700"/>
  <unicode hex="0043"/>
  <outline>
    <contour>
      <point x="325" y="-11" type="curve" smooth="yes"/>
      <point x="442" y="-11"/>
      <point x="508" y="44"/>
      <point x="528" y="44" type="curve" smooth="yes"/>
      <point x="539" y="44"/>
      <point x="542" y="35"/>
      <point x="542" y="23" type="curve" smooth="yes"/>
      <point x="542" y="16"/>
      <point x="541" y="8"/>
      <point x="540" y="0" type="curve"/>
      <point x="566" y="0" type="line"/>
      <point x="594" y="106" type="line"/>
      <point x="644" y="247" type="line"/>
      <point x="618" y="247" type="line"/>
      <point x="569" y="127"/>
      <point x="444" y="20"/>
      <point x="340" y="20" type="curve" smooth="yes"/>
      <point x="233" y="20"/>
      <point x="174" y="110"/>
      <point x="174" y="249" type="curve" smooth="yes"/>
      <point x="174" y="474"/>
      <point x="350" y="694"/>
      <point x="526" y="694" type="curve" smooth="yes"/>
      <point x="613" y="694"/>
      <point x="673" y="640"/>
      <point x="673" y="535" type="curve" smooth="yes"/>
      <point x="673" y="519"/>
      <point x="672" y="503"/>
      <point x="669" y="485" type="curve"/>
      <point x="695" y="485" type="line"/>
      <point x="730" y="594" type="line"/>
      <point x="768" y="697" type="line"/>
      <point x="742" y="697" type="line"/>
      <point x="732" y="683"/>
      <point x="716" y="663"/>
      <point x="705" y="663" type="curve" smooth="yes"/>
      <point x="679" y="663"/>
      <point x="635" y="724"/>
      <point x="518" y="724" type="curve" smooth="yes"/>
      <point x="274" y="724"/>
      <point x="85" y="468"/>
      <point x="85" y="228" type="curve" smooth="yes"/>
      <point x="85" y="59"/>
      <point x="203" y="-11"/>
    </contour>
    <contour>
      <point x="350" y="0" type="move" name="bottom"/>
    </contour>
    <contour>
      <point x="524" y="710" type="move" name="top"/>
    </contour>
  </outline>
</glyph>
<glyph name="D" format="1">
  <advance width="789"/>
  <unicode hex="0044"/>
  <outline>
    <contour>
      <point x="-49" y="-3" type="line"/>
      <point x="100" y="0" type="line"/>
      <point x="285" y="0" type="line" smooth="yes"/>
      <point x="454" y="0"/>
      <point x="610" y="72"/>
      <point x="704" y="190" type="curve" smooth="yes"/>
      <point x="762" y="262"/>
      <point x="796" y="353"/>
      <point x="796" y="450" type="curve" smooth="yes"/>
      <point x="796" y="623"/>
      <point x="654" y="721"/>
      <point x="441" y="713" type="curve" smooth="yes"/>
      <point x="359" y="710" type="line"/>
      <point x="358" y="710" type="line"/>
      <point x="211" y="713" type="line"/>
      <point x="202" y="688" type="line"/>
      <point x="221" y="686" type="line" smooth="yes"/>
      <point x="274" y="681"/>
      <point x="293" y="673"/>
      <point x="293" y="651" type="curve" smooth="yes"/>
      <point x="293" y="643"/>
      <point x="290" y="631"/>
      <point x="285" y="617" type="curve" smooth="yes"/>
      <point x="93" y="88" type="line" smooth="yes"/>
      <point x="76" y="41"/>
      <point x="58" y="31"/>
      <point x="-19" y="24" type="curve" smooth="yes"/>
      <point x="-40" y="22" type="line"/>
    </contour>
    <contour>
      <point x="252" y="26" type="line" smooth="yes"/>
      <point x="223" y="26"/>
      <point x="177" y="25"/>
      <point x="177" y="77" type="curve" smooth="yes"/>
      <point x="177" y="91"/>
      <point x="181" y="110"/>
      <point x="189" y="133" type="curve" smooth="yes"/>
      <point x="389" y="683" type="line"/>
      <point x="424" y="684" type="line" smooth="yes"/>
      <point x="636" y="689"/>
      <point x="706" y="588"/>
      <point x="706" y="453" type="curve" smooth="yes"/>
      <point x="706" y="237"/>
      <point x="531" y="26"/>
      <point x="286" y="26" type="curve" smooth="yes"/>
    </contour>
    <contour>
      <point x="302" y="0" type="move" name="bottom"/>
    </contour>
    <contour>
      <point x="232" y="355" type="move" name="center"/>
    </contour>
    <contour>
      <point x="460" y="710" type="move" name="top"/>
    </contour>
  </outline>
</glyph>
<glyph name="G" format="1">
  <advance width="762"/>
  <unicode hex="0047"/>
  <outline>
    <contour>
      <point x="334" y="-14" type="curve" smooth="yes"/>
      <point x="483" y="-14"/>
      <point x="551" y="73"/>
      <point x="583" y="73" type="curve" smooth="yes"/>
      <point x="604" y="73"/>
      <point x="621" y="48"/>
      <point x="634" y="32" type="curve"/>
      <point x="659" y="58" type="line"/>
      <point x="652" y="68"/>
      <point x="634" y="81"/>
      <point x="634" y="104" type="curve" smooth="yes"/>
      <point x="634" y="109"/>
      <point x="635" y="114"/>
      <point x="637" y="120" type="curve" smooth="yes"/>
      <point x="668" y="208" type="line" smooth="yes"/>
      <point x="677" y="235"/>
      <point x="698" y="257"/>
      <point x="731" y="261" type="curve" smooth="yes"/>
      <point x="768" y="265" type="line"/>
      <point x="775" y="290" type="line"/>
      <point x="644" y="286" type="line"/>
      <point x="505" y="290" type="line"/>
      <point x="498" y="264" type="line"/>
      <point x="543" y="260" type="line" smooth="yes"/>
      <point x="571" y="258"/>
      <point x="590" y="245"/>
      <point x="590" y="222" type="curve" smooth="yes"/>
      <point x="590" y="218"/>
      <point x="589" y="213"/>
      <point x="587" y="207" type="curve" smooth="yes"/>
      <point x="565" y="144" type="line" smooth="yes"/>
      <point x="546" y="85"/>
      <point x="446" y="16"/>
      <point x="351" y="16" type="curve" smooth="yes"/>
      <point x="246" y="16"/>
      <point x="175" y="96"/>
      <point x="175" y="248" type="curve" smooth="yes"/>
      <point x="175" y="459"/>
      <point x="340" y="694"/>
      <point x="526" y="694" type="curve" smooth="yes"/>
      <point x="621" y="694"/>
      <point x="672" y="632"/>
      <point x="672" y="535" type="curve" smooth="yes"/>
      <point x="672" y="519"/>
      <point x="671" y="503"/>
      <point x="668" y="485" type="curve"/>
      <point x="694" y="485" type="line"/>
      <point x="729" y="593" type="line"/>
      <point x="769" y="696" type="line"/>
      <point x="743" y="696" type="line"/>
      <point x="730" y="679"/>
      <point x="718" y="663"/>
      <point x="706" y="663" type="curve" smooth="yes"/>
      <point x="681" y="663"/>
      <point x="636" y="724"/>
      <point x="520" y="724" type="curve" smooth="yes"/>
      <point x="261" y="724"/>
      <point x="86" y="457"/>
      <point x="86" y="235" type="curve" smooth="yes"/>
      <point x="86" y="96"/>
      <point x="164" y="-14"/>
    </contour>
    <contour>
      <point x="301" y="0" type="move" name="bottom"/>
    </contour>
    <contour>
      <point x="535" y="710" type="move" name="top"/>
    </contour>
  </outline>
</glyph>
<glyph name="I" format="1">
  <advance width="384"/>
  <unicode hex="0049"/>
  <outline>
    <contour>
      <point x="-23" y="-3" type="line"/>
      <point x="126" y="0" type="line"/>
      <point x="275" y="-3" type="line"/>
      <point x="283" y="22" type="line"/>
      <point x="264" y="24" type="line" smooth="yes"/>
      <point x="209" y="29"/>
      <point x="191" y="36"/>
      <point x="191" y="60" type="curve" smooth="yes"/>
      <point x="191" y="69"/>
      <point x="194" y="81"/>
      <point x="198" y="96" type="curve" smooth="yes"/>
      <point x="354" y="573" type="line" smooth="yes"/>
      <point x="383" y="661"/>
      <point x="407" y="679"/>
      <point x="480" y="686" type="curve" smooth="yes"/>
      <point x="501" y="688" type="line"/>
      <point x="509" y="713" type="line"/>
      <point x="360" y="710" type="line"/>
      <point x="211" y="713" type="line"/>
      <point x="203" y="688" type="line"/>
      <point x="222" y="686" type="line" smooth="yes"/>
      <point x="277" y="681"/>
      <point x="295" y="674"/>
      <point x="295" y="650" type="curve" smooth="yes"/>
      <point x="295" y="643"/>
      <point x="294" y="634"/>
      <point x="291" y="624" type="curve" smooth="yes"/>
      <point x="131" y="136" type="line" smooth="yes"/>
      <point x="103" y="51"/>
      <point x="79" y="31"/>
      <point x="6" y="24" type="curve" smooth="yes"/>
      <point x="-15" y="22" type="line"/>
    </contour>
    <contour>
      <point x="124" y="0" type="move" name="bottom"/>
    </contour>
    <contour>
      <point x="141" y="0" type="move" name="ogonek"/>
    </contour>
    <contour>
      <point x="358" y="710" type="move" name="top"/>
    </contour>
    <contour>
      <point x="181" y="710" type="move" name="topleft"/>
    </contour>
  </outline>
</glyph>
<glyph name="K" format="1">
  <advance width="721"/>
  <unicode hex="004B"/>
  <outline>
    <contour>
      <point x="-33" y="-3" type="line"/>
      <point x="116" y="0" type="line"/>
      <point x="265" y="-3" type="line"/>
      <point x="273" y="22" type="line"/>
      <point x="254" y="24" type="line" smooth="yes"/>
      <point x="199" y="29"/>
      <point x="181" y="36"/>
      <point x="181" y="60" type="curve" smooth="yes"/>
      <point x="181" y="69"/>
      <point x="184" y="81"/>
      <point x="188" y="96" type="curve" smooth="yes"/>
      <point x="346" y="580" type="line" smooth="yes"/>
      <point x="378" y="673"/>
      <point x="396" y="678"/>
      <point x="465" y="686" type="curve"/>
      <point x="478" y="713" type="line"/>
      <point x="350" y="710" type="line"/>
      <point x="211" y="713" type="line"/>
      <point x="202" y="688" type="line"/>
      <point x="221" y="686" type="line" smooth="yes"/>
      <point x="258" y="682"/>
      <point x="288" y="678"/>
      <point x="288" y="653" type="curve" smooth="yes"/>
      <point x="288" y="648"/>
      <point x="287" y="642"/>
      <point x="284" y="635" type="curve" smooth="yes"/>
      <point x="121" y="136" type="line" smooth="yes"/>
      <point x="93" y="50"/>
      <point x="69" y="31"/>
      <point x="-4" y="24" type="curve" smooth="yes"/>
      <point x="-25" y="22" type="line"/>
    </contour>
    <contour>
      <point x="670" y="-3" type="line"/>
      <point x="679" y="22" type="line"/>
      <point x="618" y="31"/>
      <point x="582" y="59"/>
      <point x="551" y="139" type="curve" smooth="yes"/>
      <point x="431" y="434" type="line"/>
      <point x="371" y="372" type="line"/>
      <point x="482" y="101" type="line" smooth="yes"/>
      <point x="486" y="90"/>
      <point x="489" y="80"/>
      <point x="489" y="71" type="curve" smooth="yes"/>
      <point x="489" y="51"/>
      <point x="474" y="34"/>
      <point x="420" y="26" type="curve" smooth="yes"/>
      <point x="402" y="23" type="line"/>
      <point x="393" y="-2" type="line"/>
      <point x="559" y="0" type="line"/>
    </contour>
    <contour>
      <point x="225" y="250" type="line"/>
      <point x="655" y="599" type="line" smooth="yes"/>
      <point x="719" y="650"/>
      <point x="766" y="681"/>
      <point x="796" y="685" type="curve" smooth="yes"/>
      <point x="818" y="688" type="line"/>
      <point x="827" y="713" type="line"/>
      <point x="713" y="709" type="line"/>
      <point x="590" y="713" type="line"/>
      <point x="581" y="688" type="line"/>
      <point x="595" y="687" type="line" smooth="yes"/>
      <point x="631" y="684"/>
      <point x="648" y="672"/>
      <point x="648" y="653" type="curve" smooth="yes"/>
      <point x="648" y="635"/>
      <point x="632" y="612"/>
      <point x="602" y="587" type="curve" smooth="yes"/>
      <point x="229" y="286" type="line"/>
    </contour>
    <contour>
      <point x="340" y="0" type="move" name="bottom"/>
    </contour>
    <contour>
      <point x="524" y="710" type="move" name="top"/>
    </contour>
  </outline>
</glyph>
<glyph name="M" format="1">
  <advance width="916"/>
  <unicode hex="004D"/>
  <outline>
    <contour>
      <point x="537" y="-3" type="line"/>
      <point x="686" y="0" type="line"/>
      <point x="835" y="-3" type="line"/>
      <point x="843" y="22" type="line"/>
      <point x="824" y="24" type="line" smooth="yes"/>
      <point x="769" y="29"/>
      <point x="751" y="36"/>
      <point x="751" y="60" type="curve" smooth="yes"/>
      <point x="751" y="69"/>
      <point x="754" y="81"/>
      <point x="758" y="96" type="curve" smooth="yes"/>
      <point x="880" y="643" type="line"/>
      <point x="900" y="677"/>
      <point x="925" y="681"/>
      <point x="973" y="686" type="curve" smooth="yes"/>
      <point x="994" y="688" type="line"/>
      <point x="1002" y="713" type="line"/>
      <point x="857" y="710" type="line"/>
      <point x="810" y="710" type="line"/>
      <point x="413" y="85" type="line"/>
      <point x="436" y="89" type="line"/>
      <point x="373" y="710" type="line"/>
      <point x="317" y="710" type="line"/>
      <point x="199" y="713" type="line"/>
      <point x="191" y="688" type="line"/>
      <point x="229" y="683" type="line" smooth="yes"/>
      <point x="262" y="679"/>
      <point x="278" y="666"/>
      <point x="301" y="635" type="curve"/>
      <point x="365" y="7" type="line"/>
      <point x="395" y="7" type="line"/>
      <point x="829" y="687" type="line"/>
      <point x="816" y="693" type="line"/>
      <point x="691" y="137" type="line" smooth="yes"/>
      <point x="668" y="49"/>
      <point x="639" y="31"/>
      <point x="566" y="24" type="curve" smooth="yes"/>
      <point x="545" y="22" type="line"/>
    </contour>
    <contour>
      <point x="-26" y="-3" type="line"/>
      <point x="97" y="0" type="line"/>
      <point x="215" y="-3" type="line"/>
      <point x="223" y="22" type="line"/>
      <point x="204" y="24" type="line" smooth="yes"/>
      <point x="152" y="29"/>
      <point x="131" y="33"/>
      <point x="131" y="60" type="curve" smooth="yes"/>
      <point x="131" y="68"/>
      <point x="133" y="78"/>
      <point x="136" y="90" type="curve" smooth="yes"/>
      <point x="319" y="661" type="line"/>
      <point x="290" y="661" type="line"/>
      <point x="112" y="116" type="line" smooth="yes"/>
      <point x="89" y="36"/>
      <point x="71" y="31"/>
      <point x="3" y="24" type="curve" smooth="yes"/>
      <point x="-18" y="22" type="line"/>
    </contour>
    <contour>
      <point x="399" y="0" type="move" name="bottom"/>
    </contour>
    <contour>
      <point x="633" y="710" type="move" name="top"/>
    </contour>
  </outline>
</glyph>
<glyph name="Q" format="1">
  <advance width="804"/>
  <unicode hex="0051"/>
  <outline>
    <contour>
      <point x="557" y="-294" type="curve" smooth="yes"/>
      <point x="632" y="-294"/>
      <point x="672" y="-239"/>
      <point x="690" y="-138" type="curve"/>
      <point x="670" y="-136" type="line"/>
      <point x="655" y="-206"/>
      <point x="608" y="-232"/>
      <point x="567" y="-232" type="curve" smooth="yes"/>
      <point x="511" y="-232"/>
      <point x="462" y="-187"/>
      <point x="431" y="-154" type="curve" smooth="yes"/>
      <point x="377" y="-100"/>
      <point x="303" y="-59"/>
      <point x="210" y="-59" type="curve" smooth="yes"/>
      <point x="172" y="-59"/>
      <point x="133" y="-73"/>
      <point x="103" y="-84" type="curve"/>
      <point x="118" y="-95" type="line"/>
      <point x="133" y="-93"/>
      <point x="151" y="-92"/>
      <point x="171" y="-92" type="curve" smooth="yes"/>
      <point x="226" y="-92"/>
      <point x="294" y="-118"/>
      <point x="350" y="-174" type="curve" smooth="yes"/>
      <point x="410" y="-237"/>
      <point x="460" y="-294"/>
    </contour>
    <contour>
      <point x="33" y="-150" type="curve" smooth="yes"/>
      <point x="53" y="-150"/>
      <point x="72" y="-139"/>
      <point x="91" y="-124" type="curve" smooth="yes"/>
      <point x="130" y="-91"/>
      <point x="182" y="-70"/>
      <point x="249" y="-48" type="curve" smooth="yes"/>
      <point x="394" y="0" type="line"/>
      <point x="346" y="3" type="line"/>
      <point x="159" y="-58" type="line"/>
      <point x="143" y="-56"/>
      <point x="127" y="-55"/>
      <point x="113" y="-55" type="curve" smooth="yes"/>
      <point x="46" y="-55"/>
      <point x="-1" y="-76"/>
      <point x="-1" y="-117" type="curve" smooth="yes"/>
      <point x="-1" y="-140"/>
      <point x="13" y="-150"/>
    </contour>
    <component base="O" xOffset="20"/>
    <contour>
      <point x="331" y="0" type="move" name="bottom"/>
    </contour>
    <contour>
      <point x="455" y="355" type="move" name="center"/>
    </contour>
    <contour>
      <point x="485" y="10" type="move" name="ogonek"/>
    </contour>
    <contour>
      <point x="564" y="710" type="move" name="top"/>
    </contour>
    <contour>
      <point x="193" y="710" type="move" name="topleft"/>
    </contour>
    <contour>
      <point x="924" y="710" type="move" name="topright"/>
    </contour>
  </outline>
</glyph>
<glyph name="R" format="1">
  <advance width="743"/>
  <unicode hex="0052"/>
  <outline>
    <contour>
      <point x="-20" y="-3" type="line"/>
      <point x="125" y="0" type="line"/>
      <point x="262" y="-3" type="line"/>
      <point x="270" y="22" type="line"/>
      <point x="251" y="24" type="line" smooth="yes"/>
      <point x="203" y="29"/>
      <point x="187" y="33"/>
      <point x="187" y="54" type="curve" smooth="yes"/>
      <point x="187" y="62"/>
      <point x="189" y="73"/>
      <point x="194" y="87" type="curve" smooth="yes"/>
      <point x="389" y="683" type="line"/>
      <point x="436" y="683" type="line" smooth="yes"/>
      <point x="569" y="683"/>
      <point x="603" y="607"/>
      <point x="603" y="550" type="curve" smooth="yes"/>
      <point x="603" y="443"/>
      <point x="530" y="361"/>
      <point x="393" y="362" type="curve" smooth="yes"/>
      <point x="278" y="363" type="line"/>
      <point x="271" y="340" type="line"/>
      <point x="431" y="340" type="line" smooth="yes"/>
      <point x="575" y="340"/>
      <point x="689" y="398"/>
      <point x="689" y="549" type="curve" smooth="yes"/>
      <point x="689" y="638"/>
      <point x="612" y="713"/>
      <point x="446" y="711" type="curve" smooth="yes"/>
      <point x="369" y="710" type="line"/>
      <point x="358" y="710" type="line"/>
      <point x="211" y="713" type="line"/>
      <point x="203" y="688" type="line"/>
      <point x="222" y="686" type="line" smooth="yes"/>
      <point x="276" y="681"/>
      <point x="295" y="671"/>
      <point x="295" y="650" type="curve" smooth="yes"/>
      <point x="295" y="645"/>
      <point x="294" y="639"/>
      <point x="292" y="632" type="curve" smooth="yes"/>
      <point x="124" y="120" type="line" smooth="yes"/>
      <point x="96" y="36"/>
      <point x="77" y="32"/>
      <point x="9" y="24" type="curve" smooth="yes"/>
      <point x="-12" y="22" type="line"/>
    </contour>
    <contour>
      <point x="596" y="-14" type="curve" smooth="yes"/>
      <point x="634" y="-14"/>
      <point x="673" y="-1"/>
      <point x="704" y="36" type="curve"/>
      <point x="685" y="53" type="line"/>
      <point x="672" y="38"/>
      <point x="654" y="22"/>
      <point x="626" y="22" type="curve" smooth="yes"/>
      <point x="582" y="22"/>
      <point x="570" y="55"/>
      <point x="568" y="127" type="curve" smooth="yes"/>
      <point x="563" y="185" type="line" smooth="yes"/>
      <point x="554" y="287"/>
      <point x="485" y="342"/>
      <point x="367" y="342" type="curve" smooth="yes"/>
      <point x="354" y="342"/>
      <point x="340" y="341"/>
      <point x="326" y="340" type="curve"/>
      <point x="264" y="340" type="line"/>
      <point x="393" y="340"/>
      <point x="467" y="279"/>
      <point x="471" y="185" type="curve" smooth="yes"/>
      <point x="472" y="154" type="line" smooth="yes"/>
      <point x="476" y="48"/>
      <point x="527" y="-14"/>
    </contour>
    <contour>
      <point x="394" y="0" type="move" name="bottom"/>
    </contour>
    <contour>
      <point x="452" y="710" type="move" name="top"/>
    </contour>
  </outline>
</glyph>
<glyph name="T" format="1">
  <advance width="741"/>
  <unicode hex="0054"/>
  <outline>
    <contour>
      <point x="139" y="-3" type="line"/>
      <point x="303" y="0" type="line"/>
      <point x="314" y="0" type="line"/>
      <point x="496" y="-3" type="line"/>
      <point x="504" y="20" type="line"/>
      <point x="468" y="23" type="line" smooth="yes"/>
      <point x="414" y="27"/>
      <point x="381" y="43"/>
      <point x="381" y="82" type="curve" smooth="yes"/>
      <point x="381" y="91"/>
      <point x="382" y="100"/>
      <point x="386" y="112" type="curve" smooth="yes"/>
      <point x="582" y="710" type="line"/>
      <point x="502" y="710" type="line"/>
      <point x="302" y="100" type="line" smooth="yes"/>
      <point x="283" y="43"/>
      <point x="231" y="31"/>
      <point x="164" y="22" type="curve" smooth="yes"/>
      <point x="148" y="20" type="line"/>
    </contour>
    <contour>
      <point x="817" y="510" type="curve"/>
      <point x="842" y="510" type="line"/>
      <point x="838" y="632" type="line"/>
      <point x="840" y="713" type="line"/>
      <point x="534" y="710" type="line"/>
      <point x="207" y="713" type="line"/>
      <point x="135" y="523" type="line"/>
      <point x="161" y="522" type="line"/>
      <point x="228" y="644"/>
      <point x="254" y="683"/>
      <point x="366" y="685" type="curve" smooth="yes"/>
      <point x="494" y="687" type="line"/>
      <point x="571" y="688" type="line"/>
      <point x="697" y="685" type="line" smooth="yes"/>
      <point x="776" y="683"/>
      <point x="813" y="606"/>
    </contour>
    <contour>
      <point x="315" y="0" type="move" name="bottom"/>
    </contour>
    <contour>
      <point x="432" y="355" type="move" name="center"/>
    </contour>
    <contour>
      <point x="549" y="710" type="move" name="top"/>
    </contour>
  </outline>
</glyph>
<glyph name="Y" format="1">
  <advance width="663"/>
  <unicode hex="0059"/>
  <outline>
    <contour>
      <point x="414" y="280" type="line"/>
      <point x="670" y="601" type="line" smooth="yes"/>
      <point x="713" y="654"/>
      <point x="754" y="680"/>
      <point x="790" y="685" type="curve" smooth="yes"/>
      <point x="811" y="688" type="line"/>
      <point x="820" y="713" type="line"/>
      <point x="694" y="710" type="line"/>
      <point x="566" y="713" type="line"/>
      <point x="557" y="688" type="line"/>
      <point x="576" y="686" type="line" smooth="yes"/>
      <point x="626" y="681"/>
      <point x="654" y="672"/>
      <point x="654" y="648" type="curve" smooth="yes"/>
      <point x="654" y="635"/>
      <point x="646" y="618"/>
      <point x="628" y="595" type="curve" smooth="yes"/>
      <point x="393" y="299" type="line"/>
    </contour>
    <contour>
      <point x="150" y="-3" type="line"/>
      <point x="295" y="0" type="line"/>
      <point x="468" y="-3" type="line"/>
      <point x="477" y="22" type="line"/>
      <point x="458" y="24" type="line" smooth="yes"/>
      <point x="399" y="30"/>
      <point x="361" y="35"/>
      <point x="361" y="70" type="curve" smooth="yes"/>
      <point x="361" y="76"/>
      <point x="362" y="82"/>
      <point x="364" y="89" type="curve" smooth="yes"/>
      <point x="421" y="292" type="line"/>
      <point x="341" y="292" type="line"/>
      <point x="288" y="102" type="line" smooth="yes"/>
      <point x="265" y="33"/>
      <point x="241" y="31"/>
      <point x="180" y="24" type="curve" smooth="yes"/>
      <point x="159" y="22" type="line"/>
    </contour>
    <contour>
      <point x="340" y="259" type="line"/>
      <point x="416" y="279" type="line"/>
      <point x="338" y="581" type="line" smooth="yes"/>
      <point x="334" y="598"/>
      <point x="331" y="613"/>
      <point x="331" y="626" type="curve" smooth="yes"/>
      <point x="331" y="664"/>
      <point x="352" y="682"/>
      <point x="397" y="686" type="curve" smooth="yes"/>
      <point x="418" y="688" type="line"/>
      <point x="427" y="713" type="line"/>
      <point x="281" y="710" type="line"/>
      <point x="150" y="713" type="line"/>
      <point x="141" y="688" type="line"/>
      <point x="160" y="686" type="line" smooth="yes"/>
      <point x="236" y="678"/>
      <point x="243" y="650"/>
      <point x="257" y="593" type="curve" smooth="yes"/>
    </contour>
    <contour>
      <point x="287" y="0" type="move" name="bottom"/>
    </contour>
    <contour>
      <point x="521" y="710" type="move" name="top"/>
    </contour>
    <contour>
      <point x="221" y="710" type="move" name="topleft"/>
    </contour>
  </outline>
</glyph>
<glyph name="asciicircum" format="1">
  <advance width="510"/>
  <unicode hex="005E"/>
  <outline>
    <contour>
      <point x="104" y="348" type="line"/>
      <point x="152" y="348" type="line"/>
      <point x="436" y="678" type="line"/>
      <point x="426" y="685" type="line"/>
      <point x="478" y="348" type="line"/>
      <point x="514" y="348" type="line"/>
      <point x="458" y="710" type="line"/>
      <point x="418" y="710" type="line"/>
    </contour>
  </outline>
</glyph>
<glyph name="grave" format="1">
  <advance width="276"/>
  <unicode hex="0060"/>
  <outline>
    <contour>
      <point x="293" y="520" type="line"/>
      <point x="315" y="520" type="line"/>
      <point x="310" y="664" type="line" smooth="yes"/>
      <point x="308" y="706"/>
      <point x="299" y="720"/>
      <point x="276" y="720" type="curve" smooth="yes"/>
      <point x="247" y="720"/>
      <point x="233" y="699"/>
      <point x="233" y="675" type="curve" smooth="yes"/>
      <point x="233" y="656"/>
      <point x="240" y="635"/>
      <point x="249" y="615" type="curve" smooth="yes"/>
    </contour>
  </outline>
</glyph>
<glyph name="a" format="1">
  <advance width="533"/>
  <unicode hex="0061"/>
  <outline>
    <contour>
      <point x="162" y="-14" type="curve" smooth="yes"/>
      <point x="233" y="-14"/>
      <point x="296" y="37"/>
      <point x="343" y="120" type="curve"/>
      <point x="416" y="318" type="line"/>
      <point x="420" y="395"/>
      <point x="390" y="454"/>
      <point x="319" y="454" type="curve" smooth="yes"/>
      <point x="189" y="454"/>
      <point x="27" y="296"/>
      <point x="27" y="127" type="curve" smooth="yes"/>
      <point x="27" y="52"/>
      <point x="68" y="-14"/>
    </contour>
    <contour>
      <point x="172" y="12" type="curve" smooth="yes"/>
      <point x="129" y="12"/>
      <point x="102" y="44"/>
      <point x="102" y="107" type="curve" smooth="yes"/>
      <point x="102" y="242"/>
      <point x="219" y="428"/>
      <point x="325" y="428" type="curve" smooth="yes"/>
      <point x="372" y="428"/>
      <point x="394" y="390"/>
      <point x="394" y="336" type="curve" smooth="yes"/>
      <point x="394" y="306"/>
      <point x="387" y="270"/>
      <point x="374" y="234" type="curve" smooth="yes"/>
      <point x="327" y="103"/>
      <point x="253" y="12"/>
    </contour>
    <contour>
      <point x="370" y="-14" type="curve" smooth="yes"/>
      <point x="427" y="-14"/>
      <point x="467" y="33"/>
      <point x="492" y="75" type="curve"/>
      <point x="474" y="87" type="line"/>
      <point x="457" y="57"/>
      <point x="426" y="19"/>
      <point x="397" y="19" type="curve" smooth="yes"/>
      <point x="386" y="19"/>
      <point x="381" y="26"/>
      <point x="381" y="39" type="curve" smooth="yes"/>
      <point x="381" y="50"/>
      <point x="385" y="65"/>
      <point x="391" y="85" type="curve" smooth="yes"/>
      <point x="516" y="440" type="line"/>
      <point x="450" y="440" type="line"/>
      <point x="329" y="113" type="line" smooth="yes"/>
      <point x="320" y="87"/>
      <point x="314" y="62"/>
      <point x="314" y="41" type="curve" smooth="yes"/>
      <point x="314" y="8"/>
      <point x="329" y="-14"/>
    </contour>
    <contour>
      <point x="191" y="0" type="move" name="bottom"/>
    </contour>
    <contour>
      <point x="440" y="0" type="move" name="ogonek"/>
    </contour>
    <contour>
      <point x="327" y="440" type="move" name="top"/>
    </contour>
  </outline>
</glyph>
<glyph name="b" format="1">
  <advance width="493"/>
  <unicode hex="0062"/>
  <outline>
    <contour>
      <point x="179" y="-14" type="curve" smooth="yes"/>
      <point x="320" y="-14"/>
      <point x="460" y="128"/>
      <point x="460" y="300" type="curve" smooth="yes"/>
      <point x="460" y="397"/>
      <point x="409" y="454"/>
      <point x="333" y="454" type="curve" smooth="yes"/>
      <point x="297" y="454"/>
      <point x="261" y="438"/>
      <point x="231" y="414" type="curve" smooth="yes"/>
      <point x="209" y="398"/>
      <point x="193" y="379"/>
      <point x="177" y="354" type="curve"/>
      <point x="179" y="343" type="line"/>
      <point x="296" y="713" type="line"/>
      <point x="134" y="710" type="line"/>
      <point x="127" y="686" type="line"/>
      <point x="164" y="686"/>
      <point x="202" y="689"/>
      <point x="202" y="653" type="curve" smooth="yes"/>
      <point x="202" y="644"/>
      <point x="200" y="633"/>
      <point x="195" y="619" type="curve" smooth="yes"/>
      <point x="71" y="233" type="line" smooth="yes"/>
      <point x="55" y="184"/>
      <point x="46" y="142"/>
      <point x="46" y="108" type="curve" smooth="yes"/>
      <point x="46" y="26"/>
      <point x="94" y="-14"/>
    </contour>
    <contour>
      <point x="179" y="8" type="curve" smooth="yes"/>
      <point x="140" y="8"/>
      <point x="113" y="38"/>
      <point x="113" y="91" type="curve" smooth="yes"/>
      <point x="113" y="125"/>
      <point x="119" y="169"/>
      <point x="137" y="221" type="curve" smooth="yes"/>
      <point x="156" y="274" type="line" smooth="yes"/>
      <point x="185" y="353"/>
      <point x="258" y="426"/>
      <point x="312" y="426" type="curve" smooth="yes"/>
      <point x="355" y="426"/>
      <point x="384" y="394"/>
      <point x="384" y="317" type="curve" smooth="yes"/>
      <point x="384" y="183"/>
      <point x="283" y="8"/>
    </contour>
    <contour>
      <point x="157" y="0" type="move" name="bottom"/>
    </contour>
    <contour>
      <point x="317" y="440" type="move" name="top"/>
    </contour>
  </outline>
</glyph>
<glyph name="c" format="1">
  <advance width="438"/>
  <unicode hex="0063"/>
  <outline>
    <contour>
      <point x="200" y="-14" type="curve" smooth="yes"/>
      <point x="284" y="-14"/>
      <point x="339" y="33"/>
      <point x="368" y="90" type="curve"/>
      <point x="350" y="103" type="line"/>
      <point x="339" y="84"/>
      <point x="327" y="68"/>
      <point x="311" y="53" type="curve" smooth="yes"/>
      <point x="284" y="26"/>
      <point x="249" y="11"/>
      <point x="217" y="11" type="curve" smooth="yes"/>
      <point x="144" y="11"/>
      <point x="114" y="73"/>
      <point x="114" y="148" type="curve" smooth="yes"/>
      <point x="114" y="275"/>
      <point x="217" y="432"/>
      <point x="326" y="432" type="curve" smooth="yes"/>
      <point x="363" y="432"/>
      <point x="358" y="409"/>
      <point x="358" y="367" type="curve" smooth="yes"/>
      <point x="358" y="343"/>
      <point x="374" y="327"/>
      <point x="399" y="327" type="curve" smooth="yes"/>
      <point x="429" y="327"/>
      <point x="444" y="354"/>
      <point x="444" y="379" type="curve" smooth="yes"/>
      <point x="444" y="405"/>
      <point x="431" y="454"/>
      <point x="332" y="454" type="curve" smooth="yes"/>
      <point x="188" y="454"/>
      <point x="36" y="318"/>
      <point x="36" y="155" type="curve" smooth="yes"/>
      <point x="36" y="56"/>
      <point x="92" y="-14"/>
    </contour>
    <contour>
      <point x="204" y="0" type="move" name="bottom"/>
    </contour>
    <contour>
      <point x="285" y="440" type="move" name="top"/>
    </contour>
  </outline>
</glyph>
<glyph name="d" format="1">
  <advance width="539"/>
  <unicode hex="0064"/>
  <outline>
    <contour>
      <point x="371" y="-14" type="curve" smooth="yes"/>
      <point x="428" y="-14"/>
      <point x="468" y="33"/>
      <point x="493" y="75" type="curve"/>
      <point x="475" y="87" type="line"/>
      <point x="458" y="57"/>
      <point x="427" y="19"/>
      <point x="398" y="19" type="curve" smooth="yes"/>
      <point x="387" y="19"/>
      <point x="382" y="26"/>
      <point x="382" y="39" type="curve" smooth="yes"/>
      <point x="382" y="50"/>
      <point x="385" y="66"/>
      <point x="392" y="85" type="curve" smooth="yes"/>
      <point x="617" y="713" type="line"/>
      <point x="455" y="710" type="line"/>
      <point x="448" y="686" type="line"/>
      <point x="486" y="686"/>
      <point x="522" y="690"/>
      <point x="522" y="651" type="curve" smooth="yes"/>
      <point x="522" y="642"/>
      <point x="520" y="631"/>
      <point x="516" y="617" type="curve" smooth="yes"/>
      <point x="330" y="113" type="line" smooth="yes"/>
      <point x="320" y="86"/>
      <point x="314" y="62"/>
      <point x="314" y="41" type="curve" smooth="yes"/>
      <point x="314" y="8"/>
      <point x="330" y="-14"/>
    </contour>
    <contour>
      <point x="162" y="-14" type="curve" smooth="yes"/>
      <point x="233" y="-14"/>
      <point x="296" y="37"/>
      <point x="343" y="120" type="curve"/>
      <point x="416" y="318" type="line"/>
      <point x="420" y="395"/>
      <point x="390" y="454"/>
      <point x="319" y="454" type="curve" smooth="yes"/>
      <point x="189" y="454"/>
      <point x="27" y="296"/>
      <point x="27" y="127" type="curve" smooth="yes"/>
      <point x="27" y="52"/>
      <point x="68" y="-14"/>
    </contour>
    <contour>
      <point x="172" y="12" type="curve" smooth="yes"/>
      <point x="129" y="12"/>
      <point x="102" y="44"/>
      <point x="102" y="107" type="curve" smooth="yes"/>
      <point x="102" y="242"/>
      <point x="219" y="428"/>
      <point x="325" y="428" type="curve" smooth="yes"/>
      <point x="372" y="428"/>
      <point x="394" y="390"/>
      <point x="394" y="336" type="curve" smooth="yes"/>
      <point x="394" y="306"/>
      <point x="387" y="270"/>
      <point x="374" y="234" type="curve" smooth="yes"/>
      <point x="328" y="103"/>
      <point x="253" y="12"/>
    </contour>
    <contour>
      <point x="183" y="0" type="move" name="bottom"/>
    </contour>
    <contour>
      <point x="513" y="531" type="move" name="center"/>
    </contour>
    <contour>
      <point x="322" y="440" type="move" name="top"/>
    </contour>
    <contour>
      <point x="551" y="440" type="move" name="topright"/>
    </contour>
  </outline>
</glyph>
<glyph name="f" format="1">
  <advance width="342"/>
  <unicode hex="0066"/>
  <outline>
    <contour>
      <point x="-101" y="-294" type="curve" smooth="yes"/>
      <point x="-14" y="-294"/>
      <point x="39" y="-264"/>
      <point x="83" y="-131" type="curve" smooth="yes"/>
      <point x="327" y="611" type="line" smooth="yes"/>
      <point x="351" y="684"/>
      <point x="392" y="702"/>
      <point x="418" y="702" type="curve" smooth="yes"/>
      <point x="444" y="702"/>
      <point x="453" y="689"/>
      <point x="453" y="651" type="curve" smooth="yes"/>
      <point x="453" y="622"/>
      <point x="463" y="601"/>
      <point x="494" y="601" type="curve" smooth="yes"/>
      <point x="527" y="601"/>
      <point x="540" y="627"/>
      <point x="540" y="654" type="curve" smooth="yes"/>
      <point x="540" y="689"/>
      <point x="509" y="724"/>
      <point x="436" y="724" type="curve" smooth="yes"/>
      <point x="350" y="724"/>
      <point x="277" y="683"/>
      <point x="234" y="552" type="curve" smooth="yes"/>
      <point x="11" y="-131" type="line" smooth="yes"/>
      <point x="-17" y="-217"/>
      <point x="-48" y="-272"/>
      <point x="-83" y="-272" type="curve" smooth="yes"/>
      <point x="-127" y="-272"/>
      <point x="-104" y="-174"/>
      <point x="-163" y="-174" type="curve" smooth="yes"/>
      <point x="-191" y="-174"/>
      <point x="-212" y="-194"/>
      <point x="-212" y="-221" type="curve" smooth="yes"/>
      <point x="-212" y="-257"/>
      <point x="-183" y="-294"/>
    </contour>
    <contour>
      <point x="103" y="416" type="line"/>
      <point x="370" y="416" type="line"/>
      <point x="378" y="440" type="line"/>
      <point x="111" y="440" type="line"/>
    </contour>
    <contour>
      <point x="91" y="0" type="move" name="bottom"/>
    </contour>
    <contour>
      <point x="251" y="440" type="move" name="top"/>
    </contour>
  </outline>
</glyph>
<glyph name="g" format="1">
  <advance width="534"/>
  <unicode hex="0067"/>
  <outline>
    <contour>
      <point x="166" y="-290" type="curve" smooth="yes"/>
      <point x="366" y="-290"/>
      <point x="400" y="-167"/>
      <point x="400" y="-101" type="curve" smooth="yes"/>
      <point x="400" y="-48"/>
      <point x="369" y="15"/>
      <point x="251" y="21" type="curve" smooth="yes"/>
      <point x="138" y="27" type="line" smooth="yes"/>
      <point x="85" y="30"/>
      <point x="66" y="47"/>
      <point x="66" y="70" type="curve" smooth="yes"/>
      <point x="66" y="105"/>
      <point x="98" y="129"/>
      <point x="151" y="162" type="curve"/>
      <point x="138" y="178" type="line"/>
      <point x="97" y="155" type="line" smooth="yes"/>
      <point x="49" y="126"/>
      <point x="21" y="88"/>
      <point x="21" y="48" type="curve" smooth="yes"/>
      <point x="21" y="-1"/>
      <point x="62" y="-39"/>
      <point x="155" y="-44" type="curve" smooth="yes"/>
      <point x="257" y="-49" type="line" smooth="yes"/>
      <point x="335" y="-53"/>
      <point x="359" y="-98"/>
      <point x="359" y="-134" type="curve" smooth="yes"/>
      <point x="359" y="-195"/>
      <point x="300" y="-268"/>
      <point x="171" y="-268" type="curve" smooth="yes"/>
      <point x="57" y="-268"/>
      <point x="32" y="-222"/>
      <point x="32" y="-198" type="curve" smooth="yes"/>
      <point x="32" y="-179"/>
      <point x="37" y="-166"/>
      <point x="43" y="-153" type="curve" smooth="yes"/>
      <point x="47" y="-144"/>
      <point x="51" y="-134"/>
      <point x="51" y="-123" type="curve" smooth="yes"/>
      <point x="51" y="-106"/>
      <point x="40" y="-79"/>
      <point x="10" y="-79" type="curve" smooth="yes"/>
      <point x="-20" y="-79"/>
      <point x="-44" y="-111"/>
      <point x="-44" y="-146" type="curve" smooth="yes"/>
      <point x="-44" y="-203"/>
      <point x="26" y="-290"/>
    </contour>
    <contour>
      <point x="229" y="133" type="curve" smooth="yes"/>
      <point x="335" y="133"/>
      <point x="439" y="218"/>
      <point x="439" y="325" type="curve" smooth="yes"/>
      <point x="439" y="391"/>
      <point x="395" y="454"/>
      <point x="297" y="454" type="curve" smooth="yes"/>
      <point x="177" y="454"/>
      <point x="82" y="374"/>
      <point x="82" y="262" type="curve" smooth="yes"/>
      <point x="82" y="197"/>
      <point x="120" y="133"/>
    </contour>
    <contour>
      <point x="223" y="157" type="curve" smooth="yes"/>
      <point x="176" y="157"/>
      <point x="146" y="192"/>
      <point x="146" y="245" type="curve" smooth="yes"/>
      <point x="146" y="321"/>
      <point x="203" y="430"/>
      <point x="295" y="430" type="curve" smooth="yes"/>
      <point x="345" y="430"/>
      <point x="375" y="396"/>
      <point x="375" y="347" type="curve" smooth="yes"/>
      <point x="375" y="273"/>
      <point x="322" y="157"/>
    </contour>
    <contour>
      <point x="534" y="378" type="curve" smooth="yes"/>
      <point x="560" y="378"/>
      <point x="575" y="399"/>
      <point x="575" y="419" type="curve" smooth="yes"/>
      <point x="575" y="452"/>
      <point x="546" y="478"/>
      <point x="502" y="478" type="curve" smooth="yes"/>
      <point x="460" y="478"/>
      <point x="407" y="452"/>
      <point x="384" y="413" type="curve"/>
      <point x="402" y="403" type="line"/>
      <point x="435" y="439"/>
      <point x="453" y="449"/>
      <point x="469" y="449" type="curve" smooth="yes"/>
      <point x="488" y="449"/>
      <point x="492" y="435"/>
      <point x="492" y="417" type="curve" smooth="yes"/>
      <point x="492" y="391"/>
      <point x="512" y="378"/>
    </contour>
    <contour>
      <point x="286" y="440" type="move" name="top"/>
    </contour>
  </outline>
</glyph>
<glyph name="h" format="1">
  <advance width="527"/>
  <unicode hex="0068"/>
  <outline>
    <contour>
      <point x="353" y="-14" type="curve" smooth="yes"/>
      <point x="410" y="-14"/>
      <point x="450" y="31"/>
      <point x="475" y="72" type="curve"/>
      <point x="457" y="84" type="line"/>
      <point x="440" y="55"/>
      <point x="409" y="19"/>
      <point x="380" y="19" type="curve" smooth="yes"/>
      <point x="369" y="19"/>
      <point x="364" y="26"/>
      <point x="364" y="39" type="curve" smooth="yes"/>
      <point x="364" y="49"/>
      <point x="367" y="63"/>
      <point x="373" y="80" type="curve" smooth="yes"/>
      <point x="463" y="331" type="line" smooth="yes"/>
      <point x="470" y="351"/>
      <point x="474" y="370"/>
      <point x="474" y="388" type="curve" smooth="yes"/>
      <point x="474" y="426"/>
      <point x="453" y="454"/>
      <point x="387" y="454" type="curve" smooth="yes"/>
      <point x="311" y="454"/>
      <point x="247" y="404"/>
      <point x="203" y="350" type="curve"/>
      <point x="330" y="702" type="line"/>
      <point x="334" y="713" type="line"/>
      <point x="172" y="710" type="line"/>
      <point x="165" y="686" type="line"/>
      <point x="203" y="686"/>
      <point x="239" y="690"/>
      <point x="239" y="652" type="curve" smooth="yes"/>
      <point x="239" y="643"/>
      <point x="237" y="631"/>
      <point x="232" y="616" type="curve"/>
      <point x="5" y="0" type="line"/>
      <point x="77" y="0" type="line"/>
      <point x="170" y="257" type="line" smooth="yes"/>
      <point x="195" y="326"/>
      <point x="292" y="429"/>
      <point x="368" y="429" type="curve" smooth="yes"/>
      <point x="389" y="429"/>
      <point x="406" y="417"/>
      <point x="406" y="391" type="curve" smooth="yes"/>
      <point x="406" y="381"/>
      <point x="404" y="370"/>
      <point x="399" y="356" type="curve" smooth="yes"/>
      <point x="312" y="110" type="line" smooth="yes"/>
      <point x="303" y="84"/>
      <point x="297" y="60"/>
      <point x="297" y="40" type="curve" smooth="yes"/>
      <point x="297" y="8"/>
      <point x="312" y="-14"/>
    </contour>
    <contour>
      <point x="182" y="0" type="move" name="bottom"/>
    </contour>
    <contour>
      <point x="225" y="521" type="move" name="center"/>
    </contour>
    <contour>
      <point x="259" y="710" type="move" name="top"/>
    </contour>
  </outline>
</glyph>
<glyph name="l" format="1">
  <advance width="265"/>
  <unicode hex="006C"/>
  <outline>
    <contour>
      <point x="92" y="-14" type="curve" smooth="yes"/>
      <point x="149" y="-14"/>
      <point x="189" y="33"/>
      <point x="214" y="75" type="curve"/>
      <point x="196" y="87" type="line"/>
      <point x="179" y="57"/>
      <point x="148" y="19"/>
      <point x="119" y="19" type="curve" smooth="yes"/>
      <point x="108" y="19"/>
      <point x="103" y="26"/>
      <point x="103" y="39" type="curve" smooth="yes"/>
      <point x="103" y="50"/>
      <point x="107" y="65"/>
      <point x="113" y="85" type="curve" smooth="yes"/>
      <point x="338" y="713" type="line"/>
      <point x="176" y="710" type="line"/>
      <point x="169" y="686" type="line"/>
      <point x="206" y="686"/>
      <point x="244" y="689"/>
      <point x="244" y="652" type="curve" smooth="yes"/>
      <point x="244" y="643"/>
      <point x="242" y="630"/>
      <point x="236" y="615" type="curve" smooth="yes"/>
      <point x="51" y="113" type="line" smooth="yes"/>
      <point x="42" y="87"/>
      <point x="36" y="62"/>
      <point x="36" y="41" type="curve" smooth="yes"/>
      <point x="36" y="8"/>
      <point x="51" y="-14"/>
    </contour>
    <contour>
      <point x="92" y="0" type="move" name="bottom"/>
    </contour>
    <contour>
      <point x="193" y="398" type="move" name="center"/>
    </contour>
    <contour>
      <point x="276" y="710" type="move" name="top"/>
    </contour>
    <contour>
      <point x="271" y="440" type="move" name="topright"/>
    </contour>
  </outline>
</glyph>
<glyph name="m" format="1">
  <advance width="778"/>
  <unicode hex="006D"/>
  <outline>
    <contour>
      <point x="613" y="-14" type="curve" smooth="yes"/>
      <point x="662" y="-14"/>
      <point x="701" y="31"/>
      <point x="726" y="72" type="curve"/>
      <point x="708" y="84" type="line"/>
      <point x="691" y="55"/>
      <point x="660" y="19"/>
      <point x="637" y="19" type="curve" smooth="yes"/>
      <point x="624" y="19"/>
      <point x="619" y="30"/>
      <point x="619" y="45" type="curve" smooth="yes"/>
      <point x="619" y="61"/>
      <point x="624" y="82"/>
      <point x="631" y="103" type="curve" smooth="yes"/>
      <point x="714" y="331" type="line" smooth="yes"/>
      <point x="721" y="349"/>
      <point x="724" y="366"/>
      <point x="724" y="383" type="curve" smooth="yes"/>
      <point x="724" y="423"/>
      <point x="701" y="454"/>
      <point x="638" y="454" type="curve" smooth="yes"/>
      <point x="566" y="454"/>
      <point x="505" y="405"/>
      <point x="464" y="351" type="curve"/>
      <point x="466" y="362"/>
      <point x="467" y="372"/>
      <point x="467" y="382" type="curve" smooth="yes"/>
      <point x="467" y="423"/>
      <point x="448" y="454"/>
      <point x="384" y="454" type="curve" smooth="yes"/>
      <point x="309" y="454"/>
      <point x="248" y="402"/>
      <point x="206" y="346" type="curve"/>
      <point x="235" y="443" type="line"/>
      <point x="88" y="440" type="line"/>
      <point x="80" y="416" type="line"/>
      <point x="117" y="416"/>
      <point x="148" y="419"/>
      <point x="148" y="386" type="curve" smooth="yes"/>
      <point x="148" y="376"/>
      <point x="145" y="362"/>
      <point x="138" y="344" type="curve" smooth="yes"/>
      <point x="14" y="0" type="line"/>
      <point x="86" y="0" type="line"/>
      <point x="179" y="257" type="line" smooth="yes"/>
      <point x="205" y="328"/>
      <point x="294" y="429"/>
      <point x="365" y="429" type="curve" smooth="yes"/>
      <point x="386" y="429"/>
      <point x="403" y="418"/>
      <point x="403" y="391" type="curve" smooth="yes"/>
      <point x="403" y="381"/>
      <point x="401" y="370"/>
      <point x="396" y="356" type="curve" smooth="yes"/>
      <point x="266" y="0" type="line"/>
      <point x="340" y="0" type="line"/>
      <point x="437" y="267" type="line" smooth="yes"/>
      <point x="463" y="339"/>
      <point x="551" y="429"/>
      <point x="619" y="429" type="curve" smooth="yes"/>
      <point x="640" y="429"/>
      <point x="657" y="418"/>
      <point x="657" y="392" type="curve" smooth="yes"/>
      <point x="657" y="382"/>
      <point x="655" y="370"/>
      <point x="650" y="356" type="curve" smooth="yes"/>
      <point x="569" y="135" type="line" smooth="yes"/>
      <point x="557" y="100"/>
      <point x="549" y="70"/>
      <point x="549" y="45" type="curve" smooth="yes"/>
      <point x="549" y="9"/>
      <point x="566" y="-14"/>
    </contour>
    <contour>
      <point x="304" y="0" type="move" name="bottom"/>
    </contour>
    <contour>
      <point x="464" y="440" type="move" name="top"/>
    </contour>
  </outline>
</glyph>
<glyph name="n" format="1">
  <advance width="536"/>
  <unicode hex="006E"/>
  <outline>
    <contour>
      <point x="362" y="-14" type="curve" smooth="yes"/>
      <point x="419" y="-14"/>
      <point x="459" y="31"/>
      <point x="484" y="72" type="curve"/>
      <point x="466" y="84" type="line"/>
      <point x="449" y="55"/>
      <point x="418" y="19"/>
      <point x="389" y="19" type="curve" smooth="yes"/>
      <point x="378" y="19"/>
      <point x="373" y="26"/>
      <point x="373" y="39" type="curve" smooth="yes"/>
      <point x="373" y="49"/>
      <point x="376" y="63"/>
      <point x="382" y="80" type="curve" smooth="yes"/>
      <point x="472" y="331" type="line" smooth="yes"/>
      <point x="479" y="351"/>
      <point x="483" y="370"/>
      <point x="483" y="388" type="curve" smooth="yes"/>
      <point x="483" y="426"/>
      <point x="462" y="454"/>
      <point x="396" y="454" type="curve" smooth="yes"/>
      <point x="316" y="454"/>
      <point x="249" y="399"/>
      <point x="205" y="342" type="curve"/>
      <point x="235" y="443" type="line"/>
      <point x="88" y="440" type="line"/>
      <point x="80" y="416" type="line"/>
      <point x="117" y="416"/>
      <point x="148" y="419"/>
      <point x="148" y="386" type="curve" smooth="yes"/>
      <point x="148" y="376"/>
      <point x="145" y="362"/>
      <point x="138" y="344" type="curve" smooth="yes"/>
      <point x="14" y="0" type="line"/>
      <point x="86" y="0" type="line"/>
      <point x="179" y="257" type="line" smooth="yes"/>
      <point x="205" y="329"/>
      <point x="301" y="429"/>
      <point x="377" y="429" type="curve" smooth="yes"/>
      <point x="398" y="429"/>
      <point x="415" y="417"/>
      <point x="415" y="391" type="curve" smooth="yes"/>
      <point x="415" y="381"/>
      <point x="413" y="370"/>
      <point x="408" y="356" type="curve" smooth="yes"/>
      <point x="321" y="110" type="line" smooth="yes"/>
      <point x="312" y="84"/>
      <point x="306" y="60"/>
      <point x="306" y="40" type="curve" smooth="yes"/>
      <point x="306" y="8"/>
      <point x="321" y="-14"/>
    </contour>
    <contour>
      <point x="183" y="0" type="move" name="bottom"/>
    </contour>
    <contour>
      <point x="323" y="440" type="move" name="top"/>
    </contour>
  </outline>
</glyph>
<glyph name="o" format="1">
  <advance width="514"/>
  <unicode hex="006F"/>
  <outline>
    <contour>
      <point x="196" y="-14" type="curve" smooth="yes"/>
      <point x="348" y="-14"/>
      <point x="479" y="133"/>
      <point x="479" y="294" type="curve" smooth="yes"/>
      <point x="479" y="379"/>
      <point x="426" y="454"/>
      <point x="318" y="454" type="curve" smooth="yes"/>
      <point x="168" y="454"/>
      <point x="36" y="308"/>
      <point x="36" y="149" type="curve" smooth="yes"/>
      <point x="36" y="62"/>
      <point x="89" y="-14"/>
    </contour>
    <contour>
      <point x="195" y="8" type="curve" smooth="yes"/>
      <point x="138" y="8"/>
      <point x="107" y="47"/>
      <point x="107" y="121" type="curve" smooth="yes"/>
      <point x="107" y="233"/>
      <point x="198" y="432"/>
      <point x="320" y="432" type="curve" smooth="yes"/>
      <point x="377" y="432"/>
      <point x="408" y="394"/>
      <point x="408" y="322" type="curve" smooth="yes"/>
      <point x="408" y="209"/>
      <point x="317" y="8"/>
    </contour>
    <contour>
      <point x="177" y="0" type="move" name="bottom"/>
    </contour>
    <contour>
      <point x="257" y="220" type="move" name="center"/>
    </contour>
    <contour>
      <point x="320" y="0" type="move" name="ogonek"/>
    </contour>
    <contour>
      <point x="334" y="440" type="move" name="top"/>
    </contour>
    <contour>
      <point x="531" y="440" type="move" name="topright"/>
    </contour>
  </outline>
</glyph>
<glyph name="p" format="1">
  <advance width="527"/>
  <unicode hex="0070"/>
  <outline>
    <contour>
      <point x="-126" y="-280" type="line"/>
      <point x="80" y="-280" type="line"/>
      <point x="87" y="-256" type="line"/>
      <point x="53" y="-256" type="line" smooth="yes"/>
      <point x="21" y="-256"/>
      <point x="21" y="-243"/>
      <point x="34" y="-201" type="curve" smooth="yes"/>
      <point x="136" y="120" type="line"/>
      <point x="120" y="118" type="line"/>
      <point x="119" y="33"/>
      <point x="163" y="-14"/>
      <point x="224" y="-14" type="curve" smooth="yes"/>
      <point x="351" y="-14"/>
      <point x="494" y="130"/>
      <point x="494" y="300" type="curve" smooth="yes"/>
      <point x="494" y="391"/>
      <point x="442" y="454"/>
      <point x="361" y="454" type="curve" smooth="yes"/>
      <point x="331" y="454"/>
      <point x="294" y="442"/>
      <point x="256" y="413" type="curve" smooth="yes"/>
      <point x="239" y="400"/>
      <point x="222" y="383"/>
      <point x="205" y="361" type="curve"/>
      <point x="224" y="443" type="line"/>
      <point x="90" y="440" type="line"/>
      <point x="82" y="416" type="line"/>
      <point x="120" y="416"/>
      <point x="151" y="420"/>
      <point x="151" y="386" type="curve" smooth="yes"/>
      <point x="151" y="376"/>
      <point x="148" y="363"/>
      <point x="142" y="345" type="curve" smooth="yes"/>
      <point x="-37" y="-200" type="line" smooth="yes"/>
      <point x="-53" y="-249"/>
      <point x="-65" y="-256"/>
      <point x="-94" y="-256" type="curve" smooth="yes"/>
      <point x="-118" y="-256" type="line"/>
    </contour>
    <contour>
      <point x="223" y="12" type="curve" smooth="yes"/>
      <point x="173" y="12"/>
      <point x="142" y="48"/>
      <point x="142" y="112" type="curve" smooth="yes"/>
      <point x="142" y="142"/>
      <point x="149" y="179"/>
      <point x="164" y="221" type="curve" smooth="yes"/>
      <point x="183" y="274" type="line" smooth="yes"/>
      <point x="214" y="357"/>
      <point x="287" y="427"/>
      <point x="345" y="427" type="curve" smooth="yes"/>
      <point x="389" y="427"/>
      <point x="419" y="395"/>
      <point x="419" y="320" type="curve" smooth="yes"/>
      <point x="419" y="182"/>
      <point x="320" y="12"/>
    </contour>
    <contour>
      <point x="177" y="0" type="move" name="bottom"/>
    </contour>
    <contour>
      <point x="337" y="440" type="move" name="top"/>
    </contour>
  </outline>
</glyph>
<glyph name="q" format="1">
  <advance width="501"/>
  <unicode hex="0071"/>
  <outline>
    <contour>
      <point x="100" y="-280" type="line"/>
      <point x="326" y="-280" type="line"/>
      <point x="333" y="-256" type="line"/>
      <point x="299" y="-256" type="line" smooth="yes"/>
      <point x="280" y="-256"/>
      <point x="271" y="-253"/>
      <point x="271" y="-238" type="curve" smooth="yes"/>
      <point x="271" y="-230"/>
      <point x="274" y="-218"/>
      <point x="280" y="-201" type="curve" smooth="yes"/>
      <point x="514" y="440" type="line"/>
      <point x="444" y="440" type="line"/>
      <point x="415" y="359" type="line"/>
      <point x="407" y="415"/>
      <point x="377" y="454"/>
      <point x="319" y="454" type="curve" smooth="yes"/>
      <point x="189" y="454"/>
      <point x="27" y="296"/>
      <point x="27" y="127" type="curve" smooth="yes"/>
      <point x="27" y="52"/>
      <point x="68" y="-14"/>
      <point x="162" y="-14" type="curve" smooth="yes"/>
      <point x="218" y="-14"/>
      <point x="269" y="18"/>
      <point x="311" y="73" type="curve"/>
      <point x="209" y="-200" type="line" smooth="yes"/>
      <point x="191" y="-248"/>
      <point x="169" y="-256"/>
      <point x="138" y="-256" type="curve" smooth="yes"/>
      <point x="108" y="-256" type="line"/>
    </contour>
    <contour>
      <point x="172" y="12" type="curve" smooth="yes"/>
      <point x="129" y="12"/>
      <point x="102" y="44"/>
      <point x="102" y="107" type="curve" smooth="yes"/>
      <point x="102" y="242"/>
      <point x="219" y="428"/>
      <point x="325" y="428" type="curve" smooth="yes"/>
      <point x="372" y="428"/>
      <point x="394" y="390"/>
      <point x="394" y="336" type="curve" smooth="yes"/>
      <point x="394" y="306"/>
      <point x="387" y="270"/>
      <point x="374" y="234" type="curve" smooth="yes"/>
      <point x="327" y="103"/>
      <point x="253" y="12"/>
    </contour>
    <contour>
      <point x="185" y="0" type="move" name="bottom"/>
    </contour>
    <contour>
      <point x="335" y="440" type="move" name="top"/>
    </contour>
  </outline>
</glyph>
<glyph name="r" format="1">
  <advance width="390"/>
  <unicode hex="0072"/>
  <outline>
    <contour>
      <point x="9" y="0" type="line"/>
      <point x="81" y="0" type="line"/>
      <point x="147" y="182" type="line" smooth="yes"/>
      <point x="172" y="250"/>
      <point x="198" y="301"/>
      <point x="221" y="338" type="curve" smooth="yes"/>
      <point x="255" y="392"/>
      <point x="283" y="415"/>
      <point x="309" y="415" type="curve" smooth="yes"/>
      <point x="325" y="415"/>
      <point x="332" y="405"/>
      <point x="339" y="385" type="curve" smooth="yes"/>
      <point x="349" y="356"/>
      <point x="361" y="342"/>
      <point x="383" y="342" type="curve" smooth="yes"/>
      <point x="413" y="342"/>
      <point x="425" y="367"/>
      <point x="425" y="387" type="curve" smooth="yes"/>
      <point x="425" y="433"/>
      <point x="383" y="454"/>
      <point x="349" y="454" type="curve" smooth="yes"/>
      <point x="274" y="454"/>
      <point x="219" y="380"/>
      <point x="176" y="296" type="curve"/>
      <point x="220" y="443" type="line"/>
      <point x="83" y="440" type="line"/>
      <point x="75" y="416" type="line"/>
      <point x="112" y="416"/>
      <point x="143" y="419"/>
      <point x="143" y="386" type="curve" smooth="yes"/>
      <point x="143" y="376"/>
      <point x="140" y="362"/>
      <point x="133" y="344" type="curve" smooth="yes"/>
    </contour>
    <contour>
      <point x="39" y="0" type="move" name="bottom"/>
    </contour>
    <contour>
      <point x="263" y="440" type="move" name="top"/>
    </contour>
  </outline>
</glyph>
<glyph name="s" format="1">
  <advance width="363"/>
  <unicode hex="0073"/>
  <outline>
    <contour>
      <point x="136" y="-14" type="curve" smooth="yes"/>
      <point x="228" y="-14"/>
      <point x="292" y="56"/>
      <point x="292" y="124" type="curve" smooth="yes"/>
      <point x="292" y="181"/>
      <point x="260" y="213"/>
      <point x="235" y="238" type="curve" smooth="yes"/>
      <point x="197" y="278" type="line" smooth="yes"/>
      <point x="173" y="304"/>
      <point x="163" y="330"/>
      <point x="163" y="357" type="curve" smooth="yes"/>
      <point x="163" y="396"/>
      <point x="192" y="432"/>
      <point x="241" y="432" type="curve" smooth="yes"/>
      <point x="288" y="432"/>
      <point x="281" y="393"/>
      <point x="281" y="371" type="curve" smooth="yes"/>
      <point x="281" y="345"/>
      <point x="300" y="334"/>
      <point x="316" y="334" type="curve" smooth="yes"/>
      <point x="343" y="334"/>
      <point x="360" y="355"/>
      <point x="360" y="380" type="curve" smooth="yes"/>
      <point x="360" y="407"/>
      <point x="339" y="454"/>
      <point x="242" y="454" type="curve" smooth="yes"/>
      <point x="150" y="454"/>
      <point x="106" y="388"/>
      <point x="106" y="327" type="curve" smooth="yes"/>
      <point x="106" y="289"/>
      <point x="120" y="249"/>
      <point x="150" y="217" type="curve" smooth="yes"/>
      <point x="187" y="178" type="line" smooth="yes"/>
      <point x="216" y="144"/>
      <point x="225" y="127"/>
      <point x="225" y="96" type="curve" smooth="yes"/>
      <point x="225" y="56"/>
      <point x="192" y="8"/>
      <point x="131" y="8" type="curve" smooth="yes"/>
      <point x="94" y="8"/>
      <point x="67" y="28"/>
      <point x="67" y="55" type="curve" smooth="yes"/>
      <point x="67" y="78"/>
      <point x="81" y="90"/>
      <point x="81" y="112" type="curve" smooth="yes"/>
      <point x="81" y="132"/>
      <point x="67" y="147"/>
      <point x="46" y="147" type="curve" smooth="yes"/>
      <point x="15" y="147"/>
      <point x="-2" y="124"/>
      <point x="-2" y="93" type="curve" smooth="yes"/>
      <point x="-2" y="50"/>
      <point x="32" y="-14"/>
    </contour>
    <contour>
      <point x="139" y="0" type="move" name="bottom"/>
    </contour>
    <contour>
      <point x="239" y="440" type="move" name="top"/>
    </contour>
  </outline>
</glyph>
<glyph name="t" format="1">
  <advance width="308"/>
  <unicode hex="0074"/>
  <outline>
    <contour>
      <point x="108" y="-14" type="curve" smooth="yes"/>
      <point x="170" y="-14"/>
      <point x="210" y="31"/>
      <point x="235" y="72" type="curve"/>
      <point x="217" y="84" type="line"/>
      <point x="200" y="55"/>
      <point x="169" y="19"/>
      <point x="139" y="19" type="curve" smooth="yes"/>
      <point x="124" y="19"/>
      <point x="115" y="28"/>
      <point x="115" y="46" type="curve" smooth="yes"/>
      <point x="115" y="55"/>
      <point x="118" y="67"/>
      <point x="123" y="82" type="curve" smooth="yes"/>
      <point x="282" y="526" type="line"/>
      <point x="215" y="526" type="line"/>
      <point x="129" y="289" type="line"/>
      <point x="62" y="110" type="line" smooth="yes"/>
      <point x="53" y="85"/>
      <point x="47" y="61"/>
      <point x="47" y="42" type="curve" smooth="yes"/>
      <point x="47" y="9"/>
      <point x="63" y="-14"/>
    </contour>
    <contour>
      <point x="108" y="-14" type="move"/>
    </contour>
    <contour>
      <point x="110" y="416" type="line"/>
      <point x="336" y="416" type="line"/>
      <point x="344" y="440" type="line"/>
      <point x="118" y="440" type="line"/>
    </contour>
    <contour>
      <point x="114" y="0" type="move" name="bottom"/>
    </contour>
    <contour>
      <point x="164" y="220" type="move" name="center"/>
    </contour>
    <contour>
      <point x="224" y="440" type="move" name="top"/>
    </contour>
    <contour>
      <point x="263" y="440" type="move" name="topright"/>
    </contour>
  </outline>
</glyph>
<glyph name="u" format="1">
  <advance width="533"/>
  <unicode hex="0075"/>
  <outline>
    <contour>
      <point x="139" y="-14" type="curve" smooth="yes"/>
      <point x="211" y="-14"/>
      <point x="272" y="35"/>
      <point x="315" y="90" type="curve"/>
      <point x="310" y="72"/>
      <point x="307" y="55"/>
      <point x="307" y="41" type="curve" smooth="yes"/>
      <point x="307" y="8"/>
      <point x="322" y="-14"/>
      <point x="363" y="-14" type="curve" smooth="yes"/>
      <point x="420" y="-14"/>
      <point x="460" y="33"/>
      <point x="485" y="75" type="curve"/>
      <point x="467" y="87" type="line"/>
      <point x="450" y="57"/>
      <point x="419" y="19"/>
      <point x="390" y="19" type="curve" smooth="yes"/>
      <point x="379" y="19"/>
      <point x="374" y="26"/>
      <point x="374" y="39" type="curve" smooth="yes"/>
      <point x="374" y="50"/>
      <point x="378" y="65"/>
      <point x="384" y="85" type="curve" smooth="yes"/>
      <point x="509" y="440" type="line"/>
      <point x="443" y="440" type="line"/>
      <point x="346" y="177" type="line" smooth="yes"/>
      <point x="318" y="107"/>
      <point x="225" y="11"/>
      <point x="158" y="11" type="curve" smooth="yes"/>
      <point x="135" y="11"/>
      <point x="116" y="23"/>
      <point x="116" y="54" type="curve" smooth="yes"/>
      <point x="116" y="65"/>
      <point x="118" y="79"/>
      <point x="124" y="95" type="curve" smooth="yes"/>
      <point x="249" y="443" type="line"/>
      <point x="85" y="440" type="line"/>
      <point x="78" y="416" type="line"/>
      <point x="115" y="416"/>
      <point x="153" y="419"/>
      <point x="153" y="383" type="curve" smooth="yes"/>
      <point x="153" y="373"/>
      <point x="151" y="361"/>
      <point x="145" y="346" type="curve" smooth="yes"/>
      <point x="62" y="125" type="line" smooth="yes"/>
      <point x="52" y="99"/>
      <point x="46" y="74"/>
      <point x="46" y="54" type="curve" smooth="yes"/>
      <point x="46" y="13"/>
      <point x="70" y="-14"/>
    </contour>
    <contour>
      <point x="187" y="0" type="move" name="bottom"/>
    </contour>
    <contour>
      <point x="429" y="0" type="move" name="ogonek"/>
    </contour>
    <contour>
      <point x="321" y="440" type="move" name="top"/>
    </contour>
    <contour>
      <point x="499" y="440" type="move" name="topright"/>
    </contour>
  </outline>
</glyph>
<glyph name="v" format="1">
  <advance width="483"/>
  <unicode hex="0076"/>
  <outline>
    <contour>
      <point x="175" y="-11" type="curve"/>
      <point x="192" y="-11" type="line"/>
      <point x="370" y="192" type="line" smooth="yes"/>
      <point x="431" y="261"/>
      <point x="481" y="318"/>
      <point x="481" y="379" type="curve" smooth="yes"/>
      <point x="481" y="426"/>
      <point x="452" y="454"/>
      <point x="423" y="454" type="curve" smooth="yes"/>
      <point x="395" y="454"/>
      <point x="377" y="436"/>
      <point x="377" y="413" type="curve" smooth="yes"/>
      <point x="377" y="398"/>
      <point x="384" y="390"/>
      <point x="390" y="379" type="curve" smooth="yes"/>
      <point x="400" y="361"/>
      <point x="406" y="350"/>
      <point x="406" y="326" type="curve" smooth="yes"/>
      <point x="406" y="288"/>
      <point x="382" y="241"/>
      <point x="340" y="193" type="curve" smooth="yes"/>
      <point x="205" y="36" type="line"/>
      <point x="226" y="37" type="line"/>
      <point x="200" y="121" type="line" smooth="yes"/>
      <point x="177" y="199"/>
      <point x="161" y="254"/>
      <point x="161" y="309" type="curve" smooth="yes"/>
      <point x="161" y="390"/>
      <point x="218" y="415"/>
      <point x="252" y="431" type="curve"/>
      <point x="247" y="448" type="line"/>
      <point x="95" y="440" type="line"/>
      <point x="87" y="417" type="line"/>
      <point x="210" y="423" type="line"/>
      <point x="198" y="427" type="line"/>
      <point x="130" y="387"/>
      <point x="78" y="344"/>
      <point x="78" y="274" type="curve" smooth="yes"/>
      <point x="78" y="231"/>
      <point x="95" y="192"/>
      <point x="115" y="148" type="curve" smooth="yes"/>
      <point x="136" y="102"/>
      <point x="162" y="51"/>
    </contour>
    <contour>
      <point x="146" y="0" type="move" name="bottom"/>
    </contour>
    <contour>
      <point x="306" y="440" type="move" name="top"/>
    </contour>
  </outline>
</glyph>
<glyph name="w" format="1">
  <advance width="728"/>
  <unicode hex="0077"/>
  <outline>
    <contour>
      <point x="175" y="-11" type="curve"/>
      <point x="192" y="-11" type="line"/>
      <point x="360" y="192" type="line" smooth="yes"/>
      <point x="416" y="261"/>
      <point x="441" y="318"/>
      <point x="441" y="371" type="curve" smooth="yes"/>
      <point x="441" y="426"/>
      <point x="413" y="454"/>
      <point x="384" y="454" type="curve" smooth="yes"/>
      <point x="362" y="454"/>
      <point x="342" y="432"/>
      <point x="342" y="411" type="curve" smooth="yes"/>
      <point x="342" y="384"/>
      <point x="380" y="352"/>
      <point x="380" y="302" type="curve" smooth="yes"/>
      <point x="380" y="261"/>
      <point x="357" y="223"/>
      <point x="328" y="188" type="curve" smooth="yes"/>
      <point x="205" y="36" type="line"/>
      <point x="226" y="37" type="line"/>
      <point x="200" y="121" type="line" smooth="yes"/>
      <point x="177" y="199"/>
      <point x="161" y="254"/>
      <point x="161" y="309" type="curve" smooth="yes"/>
      <point x="161" y="390"/>
      <point x="220" y="415"/>
      <point x="252" y="431" type="curve"/>
      <point x="247" y="448" type="line"/>
      <point x="95" y="440" type="line"/>
      <point x="86" y="416" type="line"/>
      <point x="210" y="423" type="line"/>
      <point x="198" y="427" type="line"/>
      <point x="130" y="387"/>
      <point x="78" y="344"/>
      <point x="78" y="274" type="curve" smooth="yes"/>
      <point x="78" y="231"/>
      <point x="95" y="192"/>
      <point x="115" y="148" type="curve" smooth="yes"/>
      <point x="136" y="102"/>
      <point x="162" y="51"/>
    </contour>
    <contour>
      <point x="453" y="-11" type="curve"/>
      <point x="470" y="-11" type="line"/>
      <point x="638" y="192" type="line" smooth="yes"/>
      <point x="695" y="260"/>
      <point x="719" y="318"/>
      <point x="719" y="371" type="curve" smooth="yes"/>
      <point x="719" y="426"/>
      <point x="691" y="454"/>
      <point x="664" y="454" type="curve" smooth="yes"/>
      <point x="640" y="454"/>
      <point x="621" y="430"/>
      <point x="621" y="410" type="curve" smooth="yes"/>
      <point x="621" y="385"/>
      <point x="657" y="352"/>
      <point x="657" y="302" type="curve" smooth="yes"/>
      <point x="657" y="261"/>
      <point x="635" y="223"/>
      <point x="606" y="188" type="curve" smooth="yes"/>
      <point x="483" y="36" type="line"/>
      <point x="506" y="37" type="line"/>
      <point x="476" y="121" type="line" smooth="yes"/>
      <point x="448" y="199"/>
      <point x="434" y="240"/>
      <point x="434" y="294" type="curve" smooth="yes"/>
      <point x="434" y="384"/>
      <point x="497" y="415"/>
      <point x="533" y="432" type="curve"/>
      <point x="525" y="448" type="line"/>
      <point x="473" y="431"/>
      <point x="429" y="388"/>
      <point x="412" y="353" type="curve"/>
      <point x="378" y="250" type="line"/>
      <point x="378" y="203"/>
      <point x="388" y="175"/>
      <point x="396" y="152" type="curve" smooth="yes"/>
      <point x="416" y="93"/>
      <point x="440" y="51"/>
    </contour>
    <contour>
      <point x="331" y="0" type="move" name="bottom"/>
    </contour>
    <contour>
      <point x="431" y="440" type="move" name="top"/>
    </contour>
  </outline>
</glyph>
<glyph name="x" format="1">
  <advance width="553"/>
  <unicode hex="0078"/>
  <outline>
    <contour>
      <point x="77" y="-11" type="curve" smooth="yes"/>
      <point x="142" y="-11"/>
      <point x="207" y="36"/>
      <point x="255" y="107" type="curve" smooth="yes"/>
      <point x="292" y="163"/>
      <point x="322" y="235"/>
      <point x="322" y="310" type="curve" smooth="yes"/>
      <point x="322" y="396"/>
      <point x="290" y="454"/>
      <point x="217" y="454" type="curve" smooth="yes"/>
      <point x="148" y="454"/>
      <point x="97" y="405"/>
      <point x="70" y="346" type="curve"/>
      <point x="86" y="334" type="line"/>
      <point x="108" y="384"/>
      <point x="154" y="424"/>
      <point x="199" y="424" type="curve" smooth="yes"/>
      <point x="247" y="424"/>
      <point x="252" y="370"/>
      <point x="252" y="317" type="curve" smooth="yes"/>
      <point x="252" y="165"/>
      <point x="162" y="11"/>
      <point x="91" y="11" type="curve" smooth="yes"/>
      <point x="55" y="11"/>
      <point x="62" y="44"/>
      <point x="62" y="70" type="curve" smooth="yes"/>
      <point x="62" y="98"/>
      <point x="50" y="116"/>
      <point x="23" y="116" type="curve" smooth="yes"/>
      <point x="-7" y="116"/>
      <point x="-24" y="91"/>
      <point x="-24" y="65" type="curve" smooth="yes"/>
      <point x="-24" y="38"/>
      <point x="-8" y="-11"/>
    </contour>
    <contour>
      <point x="342" y="-11" type="curve" smooth="yes"/>
      <point x="406" y="-11"/>
      <point x="456" y="37"/>
      <point x="484" y="94" type="curve"/>
      <point x="467" y="106" type="line"/>
      <point x="446" y="58"/>
      <point x="398" y="19"/>
      <point x="355" y="19" type="curve" smooth="yes"/>
      <point x="313" y="19"/>
      <point x="299" y="66"/>
      <point x="299" y="127" type="curve" smooth="yes"/>
      <point x="299" y="135"/>
      <point x="300" y="143"/>
      <point x="300" y="152" type="curve" smooth="yes"/>
      <point x="308" y="276"/>
      <point x="395" y="432"/>
      <point x="463" y="432" type="curve" smooth="yes"/>
      <point x="499" y="432"/>
      <point x="492" y="402"/>
      <point x="492" y="367" type="curve" smooth="yes"/>
      <point x="492" y="349"/>
      <point x="502" y="327"/>
      <point x="533" y="327" type="curve" smooth="yes"/>
      <point x="559" y="327"/>
      <point x="578" y="349"/>
      <point x="578" y="381" type="curve" smooth="yes"/>
      <point x="578" y="405"/>
      <point x="561" y="454"/>
      <point x="477" y="454" type="curve" smooth="yes"/>
      <point x="418" y="454"/>
      <point x="357" y="412"/>
      <point x="308" y="347" type="curve" smooth="yes"/>
      <point x="289" y="322"/>
      <point x="231" y="127"/>
      <point x="234" y="101" type="curve" smooth="yes"/>
      <point x="244" y="40"/>
      <point x="275" y="-11"/>
    </contour>
    <contour>
      <point x="197" y="0" type="move" name="bottom"/>
    </contour>
    <contour>
      <point x="357" y="440" type="move" name="top"/>
    </contour>
  </outline>
</glyph>
<glyph name="y" format="1">
  <advance width="487"/>
  <unicode hex="0079"/>
  <outline>
    <contour>
      <point x="-81" y="-294" type="curve" smooth="yes"/>
      <point x="-14" y="-294"/>
      <point x="61" y="-245"/>
      <point x="110" y="-179" type="curve" smooth="yes"/>
      <point x="414" y="227" type="line" smooth="yes"/>
      <point x="445" y="267"/>
      <point x="482" y="317"/>
      <point x="482" y="377" type="curve" smooth="yes"/>
      <point x="482" y="426"/>
      <point x="454" y="454"/>
      <point x="424" y="454" type="curve" smooth="yes"/>
      <point x="396" y="454"/>
      <point x="378" y="436"/>
      <point x="378" y="413" type="curve" smooth="yes"/>
      <point x="378" y="398"/>
      <point x="385" y="390"/>
      <point x="391" y="379" type="curve" smooth="yes"/>
      <point x="401" y="361"/>
      <point x="407" y="342"/>
      <point x="407" y="322" type="curve" smooth="yes"/>
      <point x="407" y="281"/>
      <point x="384" y="221"/>
      <point x="344" y="168" type="curve" smooth="yes"/>
      <point x="212" y="-8" type="line"/>
      <point x="245" y="7" type="line"/>
      <point x="209" y="124" type="line" smooth="yes"/>
      <point x="192" y="180"/>
      <point x="171" y="258"/>
      <point x="171" y="296" type="curve" smooth="yes"/>
      <point x="171" y="366"/>
      <point x="189" y="396"/>
      <point x="262" y="431" type="curve"/>
      <point x="258" y="448" type="line"/>
      <point x="105" y="440" type="line"/>
      <point x="97" y="417" type="line"/>
      <point x="227" y="423" type="line"/>
      <point x="218" y="433" type="line"/>
      <point x="150" y="393"/>
      <point x="88" y="354"/>
      <point x="88" y="272" type="curve" smooth="yes"/>
      <point x="88" y="224"/>
      <point x="117" y="165"/>
      <point x="143" y="108" type="curve" smooth="yes"/>
      <point x="166" y="58"/>
      <point x="185" y="8"/>
      <point x="185" y="-22" type="curve" smooth="yes"/>
      <point x="185" y="-49"/>
      <point x="156" y="-83"/>
      <point x="129" y="-118" type="curve" smooth="yes"/>
      <point x="87" y="-174" type="line" smooth="yes"/>
      <point x="56" y="-216"/>
      <point x="19" y="-238"/>
      <point x="-6" y="-238" type="curve" smooth="yes"/>
      <point x="-41" y="-238"/>
      <point x="-58" y="-193"/>
      <point x="-96" y="-193" type="curve" smooth="yes"/>
      <point x="-126" y="-193"/>
      <point x="-150" y="-214"/>
      <point x="-150" y="-244" type="curve" smooth="yes"/>
      <point x="-150" y="-274"/>
      <point x="-122" y="-294"/>
    </contour>
    <contour>
      <point x="212" y="0" type="move" name="bottom"/>
    </contour>
    <contour>
      <point x="317" y="440" type="move" name="top"/>
    </contour>
  </outline>
</glyph>
<glyph name="z" format="1">
  <advance width="488"/>
  <unicode hex="007A"/>
  <outline>
    <contour>
      <point x="26" y="-14" type="curve" smooth="yes"/>
      <point x="75" y="-14"/>
      <point x="74" y="68"/>
      <point x="144" y="68" type="curve" smooth="yes"/>
      <point x="203" y="68"/>
      <point x="229" y="-14"/>
      <point x="310" y="-14" type="curve" smooth="yes"/>
      <point x="361" y="-14"/>
      <point x="413" y="25"/>
      <point x="413" y="119" type="curve" smooth="yes"/>
      <point x="413" y="129"/>
      <point x="412" y="140"/>
      <point x="411" y="151" type="curve"/>
      <point x="384" y="148" type="line"/>
      <point x="385" y="140"/>
      <point x="386" y="133"/>
      <point x="386" y="126" type="curve" smooth="yes"/>
      <point x="386" y="79"/>
      <point x="360" y="55"/>
      <point x="333" y="55" type="curve" smooth="yes"/>
      <point x="278" y="55"/>
      <point x="228" y="97"/>
      <point x="164" y="97" type="curve" smooth="yes"/>
      <point x="131" y="97"/>
      <point x="104" y="86"/>
      <point x="79" y="71" type="curve"/>
      <point x="70" y="54" type="line"/>
      <point x="404" y="351" type="line"/>
      <point x="434" y="362"/>
      <point x="501" y="390"/>
      <point x="501" y="432" type="curve" smooth="yes"/>
      <point x="501" y="452"/>
      <point x="485" y="462"/>
      <point x="470" y="462" type="curve" smooth="yes"/>
      <point x="434" y="462"/>
      <point x="423" y="425"/>
      <point x="401" y="388" type="curve" smooth="yes"/>
      <point x="394" y="376"/>
      <point x="391" y="372"/>
      <point x="377" y="372" type="curve" smooth="yes"/>
      <point x="306" y="372"/>
      <point x="277" y="454"/>
      <point x="201" y="454" type="curve" smooth="yes"/>
      <point x="138" y="454"/>
      <point x="86" y="399"/>
      <point x="81" y="316" type="curve"/>
      <point x="105" y="315" type="line"/>
      <point x="106" y="351"/>
      <point x="121" y="380"/>
      <point x="170" y="380" type="curve" smooth="yes"/>
      <point x="207" y="380"/>
      <point x="252" y="343"/>
      <point x="343" y="343" type="curve" smooth="yes"/>
      <point x="371" y="343"/>
      <point x="389" y="352"/>
      <point x="399" y="362" type="curve"/>
      <point x="404" y="382" type="line"/>
      <point x="113" y="123" type="line" smooth="yes"/>
      <point x="91" y="103"/>
      <point x="72" y="82"/>
      <point x="43" y="71" type="curve" smooth="yes"/>
      <point x="10" y="57"/>
      <point x="-5" y="42"/>
      <point x="-5" y="20" type="curve" smooth="yes"/>
      <point x="-5" y="-1"/>
      <point x="9" y="-14"/>
    </contour>
    <contour>
      <point x="168" y="0" type="move" name="bottom"/>
    </contour>
    <contour>
      <point x="297" y="454" type="move" name="top"/>
    </contour>
  </outline>
</glyph>
<glyph name="braceleft" format="1">
  <advance width="376"/>
  <unicode hex="007B"/>
  <outline>
    <contour>
      <point x="198" y="-142" type="curve"/>
      <point x="206" y="-124" type="line"/>
      <point x="153" y="-124"/>
      <point x="120" y="-87"/>
      <point x="120" y="-49" type="curve" smooth="yes"/>
      <point x="120" y="32"/>
      <point x="220" y="99"/>
      <point x="220" y="216" type="curve" smooth="yes"/>
      <point x="220" y="273"/>
      <point x="188" y="318"/>
      <point x="134" y="318" type="curve"/>
      <point x="136" y="324" type="line"/>
      <point x="208" y="324"/>
      <point x="299" y="403"/>
      <point x="328" y="483" type="curve" smooth="yes"/>
      <point x="353" y="552"/>
      <point x="356" y="608"/>
      <point x="376" y="667" type="curve" smooth="yes"/>
      <point x="393" y="718"/>
      <point x="466" y="766"/>
      <point x="527" y="766" type="curve"/>
      <point x="532" y="784" type="line"/>
      <point x="427" y="784"/>
      <point x="309" y="680"/>
      <point x="280" y="601" type="curve" smooth="yes"/>
      <point x="258" y="540"/>
      <point x="269" y="501"/>
      <point x="246" y="438" type="curve" smooth="yes"/>
      <point x="226" y="383"/>
      <point x="153" y="331"/>
      <point x="91" y="331" type="curve"/>
      <point x="83" y="311" type="line"/>
      <point x="133" y="311"/>
      <point x="166" y="277"/>
      <point x="166" y="235" type="curve" smooth="yes"/>
      <point x="166" y="163"/>
      <point x="67" y="83"/>
      <point x="67" y="-10" type="curve" smooth="yes"/>
      <point x="67" y="-76"/>
      <point x="111" y="-142"/>
    </contour>
  </outline>
</glyph>
<glyph name="bar" format="1">
  <advance width="213"/>
  <unicode hex="007C"/>
  <outline>
    <contour>
      <point x="-21" y="-135" type="line"/>
      <point x="14" y="-135" type="line"/>
      <point x="328" y="834" type="line"/>
      <point x="293" y="834" type="line"/>
    </contour>
  </outline>
</glyph>
<glyph name="asciitilde" format="1">
  <advance width="748"/>
  <unicode hex="007E"/>
  <outline>
    <contour>
      <point x="9" y="230" type="curve"/>
      <point x="30" y="230" type="line"/>
      <point x="78" y="308"/>
      <point x="147" y="347"/>
      <point x="220" y="347" type="curve" smooth="yes"/>
      <point x="269" y="347"/>
      <point x="321" y="317"/>
      <point x="371" y="288" type="curve" smooth="yes"/>
      <point x="419" y="260"/>
      <point x="473" y="230"/>
      <point x="532" y="230" type="curve" smooth="yes"/>
      <point x="603" y="230"/>
      <point x="692" y="309"/>
      <point x="733" y="385" type="curve"/>
      <point x="710" y="385" type="line"/>
      <point x="678" y="335"/>
      <point x="620" y="283"/>
      <point x="549" y="283" type="curve" smooth="yes"/>
      <point x="506" y="283"/>
      <point x="452" y="312"/>
      <point x="399" y="341" type="curve" smooth="yes"/>
      <point x="345" y="371"/>
      <point x="290" y="401"/>
      <point x="237" y="401" type="curve" smooth="yes"/>
      <point x="109" y="401"/>
      <point x="22" y="267"/>
    </contour>
  </outline>
</glyph>
<glyph name="cent" format="1">
  <advance width="438"/>
  <unicode hex="00A2"/>
  <outline>
    <contour>
      <point x="103" y="-115" type="line"/>
      <point x="128" y="-115" type="line"/>
      <point x="373" y="558" type="line"/>
      <point x="348" y="558" type="line"/>
    </contour>
    <component base="c"/>
  </outline>
</glyph>
<glyph name="sterling" format="1">
  <advance width="560"/>
  <unicode hex="00A3"/>
  <outline>
    <contour>
      <point x="-15" y="-14" type="curve" smooth="yes"/>
      <point x="59" y="-14"/>
      <point x="169" y="119"/>
      <point x="245" y="257" type="curve" smooth="yes"/>
      <point x="273" y="308"/>
      <point x="293" y="344"/>
      <point x="312" y="378" type="curve" smooth="yes"/>
      <point x="400" y="536"/>
      <point x="491" y="699"/>
      <point x="587" y="699" type="curve" smooth="yes"/>
      <point x="606" y="699"/>
      <point x="619" y="694"/>
      <point x="619" y="683" type="curve" smooth="yes"/>
      <point x="619" y="677"/>
      <point x="614" y="673"/>
      <point x="607" y="668" type="curve" smooth="yes"/>
      <point x="596" y="660"/>
      <point x="580" y="648"/>
      <point x="580" y="626" type="curve" smooth="yes"/>
      <point x="580" y="602"/>
      <point x="599" y="590"/>
      <point x="621" y="590" type="curve" smooth="yes"/>
      <point x="653" y="590"/>
      <point x="682" y="615"/>
      <point x="682" y="652" type="curve" smooth="yes"/>
      <point x="682" y="701"/>
      <point x="640" y="724"/>
      <point x="593" y="724" type="curve" smooth="yes"/>
      <point x="426" y="724"/>
      <point x="302" y="516"/>
      <point x="218" y="358" type="curve" smooth="yes"/>
      <point x="201" y="326"/>
      <point x="184" y="293"/>
      <point x="169" y="256" type="curve" smooth="yes"/>
      <point x="117" y="131"/>
      <point x="112" y="121"/>
      <point x="93" y="87" type="curve"/>
      <point x="119" y="98" type="line"/>
      <point x="55" y="98"/>
      <point x="-53" y="65"/>
      <point x="-53" y="10" type="curve" smooth="yes"/>
      <point x="-53" y="-2"/>
      <point x="-41" y="-14"/>
    </contour>
    <contour>
      <point x="317" y="-14" type="curve" smooth="yes"/>
      <point x="418" y="-14"/>
      <point x="484" y="62"/>
      <point x="516" y="153" type="curve"/>
      <point x="494" y="153" type="line"/>
      <point x="466" y="88"/>
      <point x="418" y="55"/>
      <point x="361" y="55" type="curve" smooth="yes"/>
      <point x="325" y="55"/>
      <point x="296" y="64"/>
      <point x="265" y="74" type="curve" smooth="yes"/>
      <point x="228" y="86"/>
      <point x="187" y="95"/>
      <point x="127" y="95" type="curve"/>
      <point x="110" y="76" type="line"/>
      <point x="136" y="76"/>
      <point x="175" y="51"/>
      <point x="202" y="32" type="curve" smooth="yes"/>
      <point x="235" y="9"/>
      <point x="270" y="-14"/>
    </contour>
    <contour>
      <point x="99" y="313" type="line"/>
      <point x="224" y="313" type="line"/>
      <point x="235" y="337" type="line"/>
      <point x="112" y="337" type="line"/>
    </contour>
    <contour>
      <point x="249" y="309" type="line"/>
      <point x="439" y="309" type="line"/>
      <point x="452" y="333" type="line"/>
      <point x="263" y="333" type="line"/>
    </contour>
  </outline>
</glyph>
<glyph name="brokenbar" format="1">
  <advance width="213"/>
  <unicode hex="00A6"/>
  <outline>
    <contour>
      <point x="152" y="400" type="line"/>
      <point x="187" y="400" type="line"/>
      <point x="328" y="834" type="line"/>
      <point x="293" y="834" type="line"/>
    </contour>
    <contour>
      <point x="-21" y="-135" type="line"/>
      <point x="14" y="-135" type="line"/>
      <point x="155" y="299" type="line"/>
      <point x="120" y="299" type="line"/>
    </contour>
  </outline>
</glyph>
<glyph name="section" format="1">
  <advance width="529"/>
  <unicode hex="00A7"/>
  <outline>
    <contour>
      <point x="121" y="-294" type="curve" smooth="yes"/>
      <point x="238" y="-294"/>
      <point x="351" y="-230"/>
      <point x="351" y="-116" type="curve" smooth="yes"/>
      <point x="351" y="-54"/>
      <point x="322" y="-13"/>
      <point x="275" y="38" type="curve" smooth="yes"/>
      <point x="229" y="87" type="line"/>
      <point x="373" y="92"/>
      <point x="466" y="145"/>
      <point x="466" y="244" type="curve" smooth="yes"/>
      <point x="466" y="306"/>
      <point x="437" y="347"/>
      <point x="390" y="398" type="curve" smooth="yes"/>
      <point x="359" y="431" type="line" smooth="yes"/>
      <point x="320" y="472"/>
      <point x="296" y="511"/>
      <point x="296" y="563" type="curve" smooth="yes"/>
      <point x="296" y="638"/>
      <point x="339" y="694"/>
      <point x="408" y="694" type="curve" smooth="yes"/>
      <point x="453" y="694"/>
      <point x="485" y="666"/>
      <point x="485" y="618" type="curve" smooth="yes"/>
      <point x="485" y="577"/>
      <point x="502" y="555"/>
      <point x="536" y="555" type="curve" smooth="yes"/>
      <point x="567" y="555"/>
      <point x="584" y="580"/>
      <point x="584" y="608" type="curve" smooth="yes"/>
      <point x="584" y="677"/>
      <point x="513" y="724"/>
      <point x="429" y="724" type="curve" smooth="yes"/>
      <point x="313" y="724"/>
      <point x="212" y="654"/>
      <point x="212" y="546" type="curve" smooth="yes"/>
      <point x="212" y="488"/>
      <point x="239" y="440"/>
      <point x="292" y="384" type="curve" smooth="yes"/>
      <point x="311" y="364" type="line"/>
      <point x="169" y="352"/>
      <point x="97" y="268"/>
      <point x="97" y="183" type="curve" smooth="yes"/>
      <point x="97" y="128"/>
      <point x="124" y="80"/>
      <point x="177" y="24" type="curve" smooth="yes"/>
      <point x="221" y="-23" type="line" smooth="yes"/>
      <point x="250" y="-54"/>
      <point x="265" y="-95"/>
      <point x="265" y="-131" type="curve" smooth="yes"/>
      <point x="265" y="-213"/>
      <point x="188" y="-262"/>
      <point x="115" y="-262" type="curve" smooth="yes"/>
      <point x="67" y="-262"/>
      <point x="38" y="-254"/>
      <point x="38" y="-191" type="curve" smooth="yes"/>
      <point x="38" y="-150"/>
      <point x="20" y="-125"/>
      <point x="-11" y="-125" type="curve" smooth="yes"/>
      <point x="-44" y="-125"/>
      <point x="-61" y="-150"/>
      <point x="-61" y="-178" type="curve" smooth="yes"/>
      <point x="-61" y="-231"/>
      <point x="-5" y="-294"/>
    </contour>
    <contour>
      <point x="275" y="117" type="curve" smooth="yes"/>
      <point x="224" y="117"/>
      <point x="181" y="149"/>
      <point x="181" y="206" type="curve" smooth="yes"/>
      <point x="181" y="273"/>
      <point x="225" y="335"/>
      <point x="291" y="335" type="curve" smooth="yes"/>
      <point x="354" y="335"/>
      <point x="380" y="280"/>
      <point x="380" y="237" type="curve" smooth="yes"/>
      <point x="380" y="168"/>
      <point x="332" y="117"/>
    </contour>
  </outline>
</glyph>
<glyph name="dieresis" format="1">
  <advance width="400"/>
  <unicode hex="00A8"/>
  <outline>
    <contour>
      <point x="245" y="557" type="curve" smooth="yes"/>
      <point x="271" y="557"/>
      <point x="293" y="580"/>
      <point x="293" y="607" type="curve" smooth="yes"/>
      <point x="293" y="632"/>
      <point x="271" y="655"/>
      <point x="245" y="655" type="curve" smooth="yes"/>
      <point x="216" y="655"/>
      <point x="195" y="632"/>
      <point x="195" y="607" type="curve" smooth="yes"/>
      <point x="195" y="580"/>
      <point x="216" y="557"/>
    </contour>
    <contour>
      <point x="439" y="557" type="curve" smooth="yes"/>
      <point x="465" y="557"/>
      <point x="487" y="580"/>
      <point x="487" y="607" type="curve" smooth="yes"/>
      <point x="487" y="632"/>
      <point x="465" y="655"/>
      <point x="439" y="655" type="curve" smooth="yes"/>
      <point x="410" y="655"/>
      <point x="389" y="632"/>
      <point x="389" y="607" type="curve" smooth="yes"/>
      <point x="389" y="580"/>
      <point x="410" y="557"/>
    </contour>
  </outline>
</glyph>
<glyph name="logicalnot" format="1">
  <advance width="574"/>
  <unicode hex="00AC"/>
  <outline>
    <contour>
      <point x="486" y="247" type="line"/>
      <point x="525" y="247" type="line"/>
      <point x="595" y="441" type="line"/>
      <point x="556" y="441" type="line"/>
    </contour>
    <contour>
      <point x="127" y="402" type="line"/>
      <point x="581" y="402" type="line"/>
      <point x="595" y="441" type="line"/>
      <point x="141" y="441" type="line"/>
    </contour>
  </outline>
</glyph>
<glyph name="macron" format="1">
  <advance width="322"/>
  <unicode hex="00AF"/>
  <outline>
    <contour>
      <point x="179" y="581" type="line"/>
      <point x="406" y="581" type="line"/>
      <point x="420" y="621" type="line"/>
      <point x="193" y="621" type="line"/>
    </contour>
  </outline>
</glyph>
<glyph name="degree" format="1">
  <advance width="320"/>
  <unicode hex="00B0"/>
  <outline>
    <contour>
      <point x="289" y="442" type="curve" smooth="yes"/>
      <point x="361" y="442"/>
      <point x="420" y="501"/>
      <point x="420" y="574" type="curve" smooth="yes"/>
      <point x="420" y="646"/>
      <point x="361" y="705"/>
      <point x="289" y="705" type="curve" smooth="yes"/>
      <point x="216" y="705"/>
      <point x="157" y="646"/>
      <point x="157" y="574" type="curve" smooth="yes"/>
      <point x="157" y="501"/>
      <point x="216" y="442"/>
    </contour>
    <contour>
      <point x="289" y="479" type="curve" smooth="yes"/>
      <point x="236" y="479"/>
      <point x="194" y="521"/>
      <point x="194" y="574" type="curve" smooth="yes"/>
      <point x="194" y="626"/>
      <point x="236" y="668"/>
      <point x="289" y="668" type="curve" smooth="yes"/>
      <point x="341" y="668"/>
      <point x="383" y="626"/>
      <point x="383" y="574" type="curve" smooth="yes"/>
      <point x="383" y="521"/>
      <point x="341" y="479"/>
    </contour>
  </outline>
</glyph>
<glyph name="plusminus" format="1">
  <advance width="598"/>
  <unicode hex="00B1"/>
  <outline>
    <contour>
      <point x="280" y="223" type="line"/>
      <point x="318" y="223" type="line"/>
      <point x="410" y="476" type="line"/>
      <point x="372" y="476" type="line"/>
    </contour>
    <contour>
      <point x="89" y="101" type="line"/>
      <point x="422" y="101" type="line"/>
      <point x="436" y="137" type="line"/>
      <point x="103" y="137" type="line"/>
    </contour>
    <contour>
      <point x="171" y="332" type="line"/>
      <point x="324" y="332" type="line"/>
      <point x="340" y="368" type="line"/>
      <point x="187" y="368" type="line"/>
    </contour>
    <contour>
      <point x="350" y="332" type="line"/>
      <point x="503" y="332" type="line"/>
      <point x="519" y="368" type="line"/>
      <point x="366" y="368" type="line"/>
    </contour>
  </outline>
</glyph>
<glyph name="acute" format="1">
  <advance width="218"/>
  <unicode hex="00B4"/>
  <outline>
    <contour>
      <point x="170" y="520" type="line"/>
      <point x="192" y="520" type="line"/>
      <point x="260" y="615" type="line" smooth="yes"/>
      <point x="285" y="651"/>
      <point x="289" y="668"/>
      <point x="289" y="684" type="curve" smooth="yes"/>
      <point x="289" y="703"/>
      <point x="279" y="719"/>
      <point x="259" y="719" type="curve" smooth="yes"/>
      <point x="232" y="719"/>
      <point x="221" y="696"/>
      <point x="212" y="664" type="curve" smooth="yes"/>
    </contour>
  </outline>
</glyph>
<glyph name="paragraph" format="1">
  <advance width="574"/>
  <unicode hex="00B6"/>
  <outline>
    <contour>
      <point x="147" y="-186" type="line"/>
      <point x="189" y="-186" type="line"/>
      <point x="472" y="676" type="line"/>
      <point x="562" y="676" type="line"/>
      <point x="279" y="-186" type="line"/>
      <point x="320" y="-186" type="line"/>
      <point x="583" y="607" type="line" smooth="yes"/>
      <point x="606" y="677"/>
      <point x="653" y="683"/>
      <point x="716" y="688" type="curve"/>
      <point x="724" y="713" type="line"/>
      <point x="510" y="710" type="line"/>
      <point x="419" y="712" type="line" smooth="yes"/>
      <point x="266" y="715"/>
      <point x="132" y="597"/>
      <point x="132" y="455" type="curve" smooth="yes"/>
      <point x="132" y="372"/>
      <point x="199" y="329"/>
      <point x="316" y="329" type="curve"/>
    </contour>
  </outline>
</glyph>
<glyph name="cedilla" format="1">
  <advance width="306"/>
  <unicode hex="00B8"/>
  <outline>
    <contour>
      <point x="-36" y="-294" type="curve" smooth="yes"/>
      <point x="56" y="-294"/>
      <point x="133" y="-205"/>
      <point x="133" y="-133" type="curve" smooth="yes"/>
      <point x="133" y="-86"/>
      <point x="103" y="-57"/>
      <point x="54" y="-57" type="curve" smooth="yes"/>
      <point x="17" y="-57"/>
      <point x="-23" y="-75"/>
      <point x="-55" y="-109" type="curve"/>
      <point x="-39" y="-122" type="line"/>
      <point x="-16" y="-99"/>
      <point x="14" y="-82"/>
      <point x="37" y="-82" type="curve" smooth="yes"/>
      <point x="68" y="-82"/>
      <point x="82" y="-101"/>
      <point x="82" y="-128" type="curve" smooth="yes"/>
      <point x="82" y="-196"/>
      <point x="24" y="-266"/>
      <point x="-31" y="-266" type="curve" smooth="yes"/>
      <point x="-62" y="-266"/>
      <point x="-77" y="-245"/>
      <point x="-84" y="-219" type="curve"/>
      <point x="-110" y="-224" type="line"/>
      <point x="-105" y="-256"/>
      <point x="-86" y="-294"/>
    </contour>
    <contour>
      <point x="78" y="-67" type="line"/>
      <point x="106" y="0" type="line"/>
      <point x="76" y="0" type="line"/>
      <point x="51" y="-64" type="line"/>
    </contour>
  </outline>
</glyph>
<glyph name="ordmasculine" format="1">
  <advance width="399"/>
  <unicode hex="00BA"/>
  <outline>
    <contour>
      <point x="16" y="185" type="line"/>
      <point x="368" y="185" type="line"/>
      <point x="368" y="209" type="line"/>
      <point x="16" y="209" type="line"/>
    </contour>
    <component base="o.sups"/>
  </outline>
</glyph>
<glyph name="AE" format="1">
  <advance width="944"/>
  <unicode hex="00C6"/>
  <outline>
    <contour>
      <point x="-71" y="-3" type="line"/>
      <point x="52" y="0" type="line"/>
      <point x="170" y="-3" type="line"/>
      <point x="179" y="22" type="line"/>
      <point x="160" y="24" type="line" smooth="yes"/>
      <point x="117" y="28"/>
      <point x="94" y="38"/>
      <point x="94" y="61" type="curve" smooth="yes"/>
      <point x="94" y="73"/>
      <point x="101" y="89"/>
      <point x="116" y="111" type="curve" smooth="yes"/>
      <point x="483" y="649" type="line"/>
      <point x="472" y="657" type="line"/>
      <point x="465" y="116" type="line" smooth="yes"/>
      <point x="464" y="44"/>
      <point x="429" y="30"/>
      <point x="369" y="24" type="curve" smooth="yes"/>
      <point x="348" y="22" type="line"/>
      <point x="339" y="-3" type="line"/>
      <point x="484" y="0" type="line"/>
      <point x="621" y="25" type="line"/>
      <point x="547" y="25"/>
      <point x="548" y="59"/>
      <point x="548" y="114" type="curve" smooth="yes"/>
      <point x="548" y="710" type="line"/>
      <point x="494" y="710" type="line"/>
      <point x="80" y="112" type="line" smooth="yes"/>
      <point x="50" y="69"/>
      <point x="31" y="31"/>
      <point x="-41" y="24" type="curve" smooth="yes"/>
      <point x="-62" y="22" type="line"/>
    </contour>
    <contour>
      <point x="204" y="258" type="line"/>
      <point x="481" y="258" type="line"/>
      <point x="494" y="284" type="line"/>
      <point x="217" y="284" type="line"/>
    </contour>
    <contour>
      <point x="484" y="0" type="line"/>
      <point x="851" y="0" type="line"/>
      <point x="875" y="74" type="line"/>
      <point x="925" y="210" type="line"/>
      <point x="899" y="210" type="line"/>
      <point x="847" y="90"/>
      <point x="798" y="25"/>
      <point x="682" y="25" type="curve" smooth="yes"/>
      <point x="494" y="25" type="line"/>
    </contour>
    <contour>
      <point x="499" y="362" type="line"/>
      <point x="675" y="362" type="line"/>
      <point x="684" y="388" type="line"/>
      <point x="508" y="388" type="line"/>
    </contour>
    <contour>
      <point x="654" y="226" type="curve"/>
      <point x="680" y="226" type="line"/>
      <point x="729" y="371" type="line"/>
      <point x="780" y="508" type="line"/>
      <point x="754" y="508" type="line"/>
      <point x="711" y="399"/>
      <point x="685" y="388"/>
      <point x="641" y="388" type="curve"/>
      <point x="632" y="362" type="line"/>
      <point x="658" y="362"/>
      <point x="675" y="349"/>
      <point x="675" y="316" type="curve" smooth="yes"/>
      <point x="675" y="295"/>
      <point x="668" y="265"/>
    </contour>
    <contour>
      <point x="894" y="526" type="curve"/>
      <point x="920" y="526" type="line"/>
      <point x="921" y="649" type="line"/>
      <point x="923" y="709" type="line"/>
      <point x="523" y="710" type="line"/>
      <point x="536" y="685" type="line"/>
      <point x="770" y="685" type="line" smooth="yes"/>
      <point x="866" y="685"/>
      <point x="894" y="615"/>
    </contour>
  </outline>
</glyph>
<glyph name="Thorn" format="1">
  <advance width="683"/>
  <unicode hex="00DE"/>
  <outline>
    <contour>
      <point x="-38" y="-3" type="line"/>
      <point x="111" y="0" type="line"/>
      <point x="268" y="-3" type="line"/>
      <point x="277" y="21" type="line"/>
      <point x="258" y="23" type="line" smooth="yes"/>
      <point x="198" y="29"/>
      <point x="178" y="36"/>
      <point x="178" y="59" type="curve" smooth="yes"/>
      <point x="178" y="68"/>
      <point x="181" y="80"/>
      <point x="186" y="96" type="curve" smooth="yes"/>
      <point x="360" y="576" type="line" smooth="yes"/>
      <point x="389" y="655"/>
      <point x="416" y="679"/>
      <point x="487" y="686" type="curve" smooth="yes"/>
      <point x="509" y="688" type="line"/>
      <point x="518" y="713" type="line"/>
      <point x="369" y="710" type="line"/>
      <point x="212" y="713" type="line"/>
      <point x="203" y="689" type="line"/>
      <point x="222" y="687" type="line" smooth="yes"/>
      <point x="282" y="681"/>
      <point x="302" y="674"/>
      <point x="302" y="651" type="curve" smooth="yes"/>
      <point x="302" y="642"/>
      <point x="299" y="630"/>
      <point x="294" y="614" type="curve" smooth="yes"/>
      <point x="120" y="134" type="line" smooth="yes"/>
      <point x="91" y="53"/>
      <point x="64" y="31"/>
      <point x="-7" y="24" type="curve" smooth="yes"/>
      <point x="-29" y="22" type="line"/>
    </contour>
    <contour>
      <point x="335" y="162" type="curve" smooth="yes"/>
      <point x="563" y="162"/>
      <point x="684" y="251"/>
      <point x="684" y="403" type="curve" smooth="yes"/>
      <point x="684" y="506"/>
      <point x="599" y="573"/>
      <point x="427" y="571" type="curve" smooth="yes"/>
      <point x="330" y="570" type="line"/>
      <point x="341" y="543" type="line"/>
      <point x="432" y="543" type="line" smooth="yes"/>
      <point x="529" y="543"/>
      <point x="598" y="495"/>
      <point x="598" y="407" type="curve" smooth="yes"/>
      <point x="598" y="314"/>
      <point x="534" y="193"/>
      <point x="321" y="193" type="curve" smooth="yes"/>
      <point x="310" y="193"/>
      <point x="299" y="193"/>
      <point x="288" y="194" type="curve" smooth="yes"/>
      <point x="193" y="199" type="line"/>
      <point x="180" y="171" type="line"/>
      <point x="263" y="165" type="line" smooth="yes"/>
      <point x="288" y="163"/>
      <point x="312" y="162"/>
    </contour>
  </outline>
</glyph>
<glyph name="ae" format="1">
  <advance width="652"/>
  <unicode hex="00E6"/>
  <outline>
    <contour>
      <point x="332" y="118" type="line"/>
      <point x="365" y="247"/>
      <point x="375" y="301"/>
      <point x="375" y="353" type="curve" smooth="yes"/>
      <point x="375" y="418"/>
      <point x="335" y="454"/>
      <point x="251" y="454" type="curve" smooth="yes"/>
      <point x="136" y="454"/>
      <point x="96" y="394"/>
      <point x="96" y="354" type="curve" smooth="yes"/>
      <point x="96" y="330"/>
      <point x="108" y="311"/>
      <point x="136" y="311" type="curve" smooth="yes"/>
      <point x="165" y="311"/>
      <point x="179" y="332"/>
      <point x="181" y="357" type="curve" smooth="yes"/>
      <point x="184" y="392"/>
      <point x="199" y="432"/>
      <point x="255" y="432" type="curve" smooth="yes"/>
      <point x="298" y="432"/>
      <point x="314" y="404"/>
      <point x="314" y="367" type="curve" smooth="yes"/>
      <point x="314" y="336"/>
      <point x="303" y="290"/>
      <point x="294" y="260" type="curve"/>
    </contour>
    <contour>
      <point x="132" y="-11" type="curve" smooth="yes"/>
      <point x="189" y="-11"/>
      <point x="256" y="32"/>
      <point x="296" y="93" type="curve"/>
      <point x="290" y="130" type="line"/>
      <point x="269" y="78"/>
      <point x="204" y="24"/>
      <point x="161" y="24" type="curve" smooth="yes"/>
      <point x="125" y="24"/>
      <point x="101" y="44"/>
      <point x="101" y="75" type="curve" smooth="yes"/>
      <point x="101" y="165"/>
      <point x="236" y="222"/>
      <point x="319" y="247" type="curve"/>
      <point x="322" y="270" type="line"/>
      <point x="226" y="244"/>
      <point x="26" y="174"/>
      <point x="26" y="62" type="curve" smooth="yes"/>
      <point x="26" y="14"/>
      <point x="70" y="-11"/>
    </contour>
    <component base="e" xOffset="234"/>
  </outline>
</glyph>
<glyph name="divide" format="1">
  <advance width="600"/>
  <unicode hex="00F7"/>
  <outline>
    <contour>
      <point x="364" y="425" type="curve" smooth="yes"/>
      <point x="390" y="425"/>
      <point x="414" y="449"/>
      <point x="414" y="478" type="curve" smooth="yes"/>
      <point x="414" y="504"/>
      <point x="394" y="526"/>
      <point x="369" y="526" type="curve" smooth="yes"/>
      <point x="343" y="526"/>
      <point x="319" y="501"/>
      <point x="319" y="472" type="curve" smooth="yes"/>
      <point x="319" y="446"/>
      <point x="339" y="425"/>
    </contour>
    <contour>
      <point x="263" y="81" type="curve" smooth="yes"/>
      <point x="289" y="81"/>
      <point x="313" y="105"/>
      <point x="313" y="134" type="curve" smooth="yes"/>
      <point x="313" y="160"/>
      <point x="293" y="182"/>
      <point x="268" y="182" type="curve" smooth="yes"/>
      <point x="242" y="182"/>
      <point x="218" y="157"/>
      <point x="218" y="128" type="curve" smooth="yes"/>
      <point x="218" y="102"/>
      <point x="238" y="81"/>
    </contour>
    <component base="minus"/>
  </outline>
</glyph>
<glyph name="thorn" format="1">
  <advance width="527"/>
  <unicode hex="00FE"/>
  <outline>
    <contour>
      <point x="-146" y="-280" type="line"/>
      <point x="60" y="-280" type="line"/>
      <point x="67" y="-256" type="line"/>
      <point x="33" y="-256" type="line" smooth="yes"/>
      <point x="15" y="-256"/>
      <point x="6" y="-253"/>
      <point x="6" y="-239" type="curve" smooth="yes"/>
      <point x="6" y="-231"/>
      <point x="9" y="-219"/>
      <point x="15" y="-201" type="curve" smooth="yes"/>
      <point x="121" y="90" type="line"/>
      <point x="129" y="23"/>
      <point x="170" y="-14"/>
      <point x="224" y="-14" type="curve" smooth="yes"/>
      <point x="351" y="-14"/>
      <point x="494" y="130"/>
      <point x="494" y="300" type="curve" smooth="yes"/>
      <point x="494" y="391"/>
      <point x="442" y="454"/>
      <point x="361" y="454" type="curve" smooth="yes"/>
      <point x="331" y="454"/>
      <point x="294" y="442"/>
      <point x="256" y="413" type="curve" smooth="yes"/>
      <point x="244" y="404"/>
      <point x="232" y="393"/>
      <point x="220" y="379" type="curve"/>
      <point x="348" y="713" type="line"/>
      <point x="182" y="710" type="line"/>
      <point x="175" y="686" type="line"/>
      <point x="212" y="686"/>
      <point x="250" y="689"/>
      <point x="250" y="652" type="curve" smooth="yes"/>
      <point x="250" y="643"/>
      <point x="248" y="630"/>
      <point x="242" y="615" type="curve" smooth="yes"/>
      <point x="-57" y="-200" type="line" smooth="yes"/>
      <point x="-75" y="-248"/>
      <point x="-85" y="-256"/>
      <point x="-114" y="-256" type="curve" smooth="yes"/>
      <point x="-138" y="-256" type="line"/>
    </contour>
    <contour>
      <point x="223" y="12" type="curve" smooth="yes"/>
      <point x="173" y="12"/>
      <point x="142" y="48"/>
      <point x="142" y="112" type="curve" smooth="yes"/>
      <point x="142" y="142"/>
      <point x="149" y="179"/>
      <point x="164" y="221" type="curve" smooth="yes"/>
      <point x="183" y="274" type="line" smooth="yes"/>
      <point x="214" y="357"/>
      <point x="287" y="427"/>
      <point x="345" y="427" type="curve" smooth="yes"/>
      <point x="389" y="427"/>
      <point x="419" y="395"/>
      <point x="419" y="320" type="curve" smooth="yes"/>
      <point x="419" y="182"/>
      <point x="320" y="12"/>
    </contour>
    <contour>
      <point x="177" y="0" type="move" name="bottom"/>
    </contour>
    <contour>
      <point x="337" y="440" type="move" name="top"/>
    </contour>
  </outline>
</glyph>
<glyph name="eng" format="1">
  <advance width="506"/>
  <unicode hex="014B"/>
  <outline>
    <contour>
      <point x="119" y="-294" type="curve" smooth="yes"/>
      <point x="206" y="-294"/>
      <point x="255" y="-250"/>
      <point x="300" y="-136" type="curve" smooth="yes"/>
      <point x="472" y="331" type="line" smooth="yes"/>
      <point x="479" y="351"/>
      <point x="483" y="370"/>
      <point x="483" y="388" type="curve" smooth="yes"/>
      <point x="483" y="426"/>
      <point x="462" y="454"/>
      <point x="396" y="454" type="curve" smooth="yes"/>
      <point x="272" y="454"/>
      <point x="181" y="323"/>
      <point x="156" y="255" type="curve"/>
      <point x="179" y="257" type="line"/>
      <point x="206" y="329"/>
      <point x="301" y="429"/>
      <point x="377" y="429" type="curve" smooth="yes"/>
      <point x="398" y="429"/>
      <point x="415" y="417"/>
      <point x="415" y="391" type="curve" smooth="yes"/>
      <point x="415" y="381"/>
      <point x="413" y="370"/>
      <point x="408" y="356" type="curve" smooth="yes"/>
      <point x="232" y="-131" type="line" smooth="yes"/>
      <point x="201" y="-214"/>
      <point x="172" y="-272"/>
      <point x="137" y="-272" type="curve" smooth="yes"/>
      <point x="93" y="-272"/>
      <point x="116" y="-174"/>
      <point x="57" y="-174" type="curve" smooth="yes"/>
      <point x="29" y="-174"/>
      <point x="8" y="-194"/>
      <point x="8" y="-221" type="curve" smooth="yes"/>
      <point x="8" y="-257"/>
      <point x="37" y="-294"/>
    </contour>
    <component base="_part.fut" xOffset="-9"/>
    <contour>
      <point x="183" y="0" type="move" name="bottom"/>
    </contour>
    <contour>
      <point x="323" y="440" type="move" name="top"/>
    </contour>
  </outline>
</glyph>
<glyph name="Fhook" format="1">
  <advance width="599"/>
  <unicode hex="0191"/>
  <outline>
    <contour>
      <point x="-62" y="-294" type="curve" smooth="yes"/>
      <point x="25" y="-294"/>
      <point x="80" y="-260"/>
      <point x="122" y="-131" type="curve" smooth="yes"/>
      <point x="390" y="685" type="line"/>
      <point x="534" y="685" type="line" smooth="yes"/>
      <point x="630" y="685"/>
      <point x="662" y="615"/>
      <point x="664" y="526" type="curve"/>
      <point x="690" y="526" type="line"/>
      <point x="684" y="709" type="line"/>
      <point x="358" y="710" type="line"/>
      <point x="211" y="713" type="line"/>
      <point x="203" y="688" type="line"/>
      <point x="222" y="686" type="line" smooth="yes"/>
      <point x="275" y="681"/>
      <point x="296" y="673"/>
      <point x="296" y="651" type="curve" smooth="yes"/>
      <point x="296" y="645"/>
      <point x="294" y="639"/>
      <point x="292" y="631" type="curve" smooth="yes"/>
      <point x="43" y="-128" type="line" smooth="yes"/>
      <point x="13" y="-219"/>
      <point x="-12" y="-272"/>
      <point x="-44" y="-272" type="curve" smooth="yes"/>
      <point x="-88" y="-272"/>
      <point x="-65" y="-174"/>
      <point x="-124" y="-174" type="curve" smooth="yes"/>
      <point x="-152" y="-174"/>
      <point x="-173" y="-194"/>
      <point x="-173" y="-221" type="curve" smooth="yes"/>
      <point x="-173" y="-257"/>
      <point x="-144" y="-294"/>
    </contour>
    <contour>
      <point x="282" y="377" type="move"/>
    </contour>
    <contour>
      <point x="434" y="196" type="curve"/>
      <point x="460" y="196" type="line"/>
      <point x="499" y="341" type="line"/>
      <point x="550" y="478" type="line"/>
      <point x="524" y="478" type="line"/>
      <point x="485" y="369"/>
      <point x="458" y="358"/>
      <point x="415" y="358" type="curve" smooth="yes"/>
      <point x="252" y="358" type="line"/>
      <point x="244" y="332" type="line"/>
      <point x="407" y="332" type="line" smooth="yes"/>
      <point x="434" y="332"/>
      <point x="451" y="318"/>
      <point x="451" y="282" type="curve" smooth="yes"/>
      <point x="451" y="261"/>
      <point x="446" y="233"/>
    </contour>
    <contour>
      <point x="238" y="0" type="move" name="bottom"/>
    </contour>
    <contour>
      <point x="472" y="710" type="move" name="top"/>
    </contour>
  </outline>
</glyph>
<glyph name="jdotless" format="1">
  <advance width="270"/>
  <unicode hex="0237"/>
  <outline>
    <contour>
      <point x="-128" y="-294" type="curve" smooth="yes"/>
      <point x="-41" y="-294"/>
      <point x="8" y="-255"/>
      <point x="50" y="-136" type="curve" smooth="yes"/>
      <point x="254" y="443" type="line"/>
      <point x="92" y="440" type="line"/>
      <point x="85" y="416" type="line"/>
      <point x="122" y="416"/>
      <point x="161" y="417"/>
      <point x="161" y="384" type="curve" smooth="yes"/>
      <point x="161" y="378"/>
      <point x="160" y="370"/>
      <point x="156" y="360" type="curve" smooth="yes"/>
      <point x="-21" y="-131" type="line" smooth="yes"/>
      <point x="-52" y="-216"/>
      <point x="-75" y="-272"/>
      <point x="-110" y="-272" type="curve" smooth="yes"/>
      <point x="-154" y="-272"/>
      <point x="-131" y="-174"/>
      <point x="-190" y="-174" type="curve" smooth="yes"/>
      <point x="-218" y="-174"/>
      <point x="-239" y="-194"/>
      <point x="-239" y="-221" type="curve" smooth="yes"/>
      <point x="-239" y="-257"/>
      <point x="-210" y="-294"/>
    </contour>
    <contour>
      <point x="72" y="0" type="move" name="bottom"/>
    </contour>
    <contour>
      <point x="218" y="440" type="move" name="top"/>
    </contour>
  </outline>
</glyph>
<glyph name="circumflex" format="1">
  <advance width="287"/>
  <unicode hex="02C6"/>
  <outline>
    <contour>
      <point x="155" y="521" type="line"/>
      <point x="189" y="521" type="line"/>
      <point x="331" y="661" type="line"/>
      <point x="284" y="661" type="line"/>
      <point x="323" y="521" type="line"/>
      <point x="352" y="521" type="line"/>
      <point x="336" y="710" type="line"/>
      <point x="297" y="710" type="line"/>
    </contour>
  </outline>
</glyph>
<glyph name="breve" format="1">
  <advance width="279"/>
  <unicode hex="02D8"/>
  <outline>
    <contour>
      <point x="256" y="535" type="curve" smooth="yes"/>
      <point x="309" y="535"/>
      <point x="367" y="570"/>
      <point x="396" y="651" type="curve"/>
      <point x="371" y="651" type="line"/>
      <point x="350" y="610"/>
      <point x="319" y="595"/>
      <point x="278" y="595" type="curve" smooth="yes"/>
      <point x="238" y="595"/>
      <point x="220" y="608"/>
      <point x="220" y="634" type="curve" smooth="yes"/>
      <point x="220" y="639"/>
      <point x="221" y="645"/>
      <point x="222" y="651" type="curve"/>
      <point x="197" y="651" type="line"/>
      <point x="190" y="632"/>
      <point x="186" y="615"/>
      <point x="186" y="599" type="curve" smooth="yes"/>
      <point x="186" y="561"/>
      <point x="208" y="535"/>
    </contour>
  </outline>
</glyph>
<glyph name="dotaccent" format="1">
  <advance width="216"/>
  <unicode hex="02D9"/>
  <outline>
    <contour>
      <point x="252" y="553" type="curve" smooth="yes"/>
      <point x="280" y="553"/>
      <point x="304" y="578"/>
      <point x="304" y="607" type="curve" smooth="yes"/>
      <point x="304" y="635"/>
      <point x="280" y="660"/>
      <point x="252" y="660" type="curve" smooth="yes"/>
      <point x="220" y="660"/>
      <point x="197" y="635"/>
      <point x="197" y="607" type="curve" smooth="yes"/>
      <point x="197" y="578"/>
      <point x="220" y="553"/>
    </contour>
  </outline>
</glyph>
<glyph name="ring" format="1">
  <advance width="281"/>
  <unicode hex="02DA"/>
  <outline>
    <contour>
      <point x="266" y="528" type="curve" smooth="yes"/>
      <point x="306" y="528"/>
      <point x="349" y="554"/>
      <point x="349" y="613" type="curve" smooth="yes"/>
      <point x="349" y="650"/>
      <point x="324" y="698"/>
      <point x="265" y="698" type="curve" smooth="yes"/>
      <point x="210" y="698"/>
      <point x="180" y="655"/>
      <point x="180" y="613" type="curve" smooth="yes"/>
      <point x="180" y="566"/>
      <point x="214" y="528"/>
    </contour>
    <contour>
      <point x="266" y="554" type="curve" smooth="yes"/>
      <point x="235" y="554"/>
      <point x="209" y="576"/>
      <point x="209" y="613" type="curve" smooth="yes"/>
      <point x="209" y="655"/>
      <point x="240" y="672"/>
      <point x="265" y="672" type="curve" smooth="yes"/>
      <point x="294" y="672"/>
      <point x="320" y="651"/>
      <point x="320" y="613" type="curve" smooth="yes"/>
      <point x="320" y="574"/>
      <point x="294" y="554"/>
    </contour>
  </outline>
</glyph>
<glyph name="ogonek" format="1">
  <advance width="346"/>
  <unicode hex="02DB"/>
  <outline>
    <contour>
      <point x="-14" y="-294" type="curve" smooth="yes"/>
      <point x="69" y="-294"/>
      <point x="109" y="-234"/>
      <point x="116" y="-183" type="curve"/>
      <point x="99" y="-178" type="line"/>
      <point x="80" y="-212"/>
      <point x="44" y="-239"/>
      <point x="7" y="-239" type="curve" smooth="yes"/>
      <point x="-41" y="-239"/>
      <point x="-72" y="-210"/>
      <point x="-72" y="-154" type="curve" smooth="yes"/>
      <point x="-72" y="-94"/>
      <point x="-8" y="-44"/>
      <point x="63" y="19" type="curve"/>
      <point x="37" y="19" type="line"/>
      <point x="-35" y="-42"/>
      <point x="-122" y="-117"/>
      <point x="-122" y="-192" type="curve" smooth="yes"/>
      <point x="-122" y="-250"/>
      <point x="-75" y="-294"/>
    </contour>
  </outline>
</glyph>
<glyph name="tilde" format="1">
  <advance width="393"/>
  <unicode hex="02DC"/>
  <outline>
    <contour>
      <point x="393" y="553" type="curve" smooth="yes"/>
      <point x="433" y="553"/>
      <point x="481" y="592"/>
      <point x="510" y="652" type="curve"/>
      <point x="491" y="652" type="line"/>
      <point x="472" y="624"/>
      <point x="446" y="601"/>
      <point x="419" y="601" type="curve" smooth="yes"/>
      <point x="401" y="601"/>
      <point x="382" y="614"/>
      <point x="374" y="620" type="curve" smooth="yes"/>
      <point x="345" y="642" type="line" smooth="yes"/>
      <point x="335" y="650"/>
      <point x="313" y="668"/>
      <point x="288" y="668" type="curve" smooth="yes"/>
      <point x="227" y="668"/>
      <point x="175" y="593"/>
      <point x="164" y="564" type="curve"/>
      <point x="183" y="564" type="line"/>
      <point x="198" y="588"/>
      <point x="233" y="620"/>
      <point x="262" y="620" type="curve" smooth="yes"/>
      <point x="280" y="620"/>
      <point x="295" y="609"/>
      <point x="314" y="594" type="curve" smooth="yes"/>
      <point x="334" y="578" type="line" smooth="yes"/>
      <point x="347" y="568"/>
      <point x="368" y="553"/>
    </contour>
  </outline>
</glyph>
<glyph name="gravecomb" format="1">
  <advance width="276"/>
  <unicode hex="0300"/>
  <outline>
    <component base="grave"/>
    <contour>
      <point x="268" y="440" type="move" name="_top"/>
    </contour>
    <contour>
      <point x="277" y="652" type="move" name="top"/>
    </contour>
  </outline>
</glyph>
<glyph name="acutecomb" format="1">
  <advance width="218"/>
  <unicode hex="0301"/>
  <outline>
    <component base="acute"/>
    <contour>
      <point x="169" y="440" type="move" name="_top"/>
    </contour>
    <contour>
      <point x="97" y="440" type="move" name="_topright"/>
    </contour>
    <contour>
      <point x="269" y="652" type="move" name="top"/>
    </contour>
  </outline>
</glyph>
<glyph name="tildecomb" format="1">
  <advance width="393"/>
  <unicode hex="0303"/>
  <outline>
    <component base="tilde"/>
    <contour>
      <point x="287" y="440" type="move" name="_top"/>
    </contour>
    <contour>
      <point x="371" y="652" type="move" name="top"/>
    </contour>
  </outline>
</glyph>
<glyph name="brevecomb" format="1">
  <advance width="279"/>
  <unicode hex="0306"/>
  <outline>
    <component base="breve"/>
    <contour>
      <point x="224" y="440" type="move" name="_top"/>
    </contour>
    <contour>
      <point x="300" y="649" type="move" name="top"/>
    </contour>
  </outline>
</glyph>
<glyph name="dieresiscomb" format="1">
  <advance width="400"/>
  <unicode hex="0308"/>
  <outline>
    <component base="dieresis"/>
    <contour>
      <point x="310" y="440" type="move" name="_top"/>
    </contour>
    <contour>
      <point x="322" y="605" type="move" name="top"/>
    </contour>
  </outline>
</glyph>
<glyph name="ringcomb" format="1">
  <advance width="281"/>
  <unicode hex="030A"/>
  <outline>
    <component base="ring"/>
    <contour>
      <point x="216" y="440" type="move" name="_top"/>
    </contour>
    <contour>
      <point x="261" y="652" type="move" name="top"/>
    </contour>
  </outline>
</glyph>
<glyph name="hungarumlautcomb" format="1">
  <advance width="348"/>
  <unicode hex="030B"/>
  <outline>
    <component base="hungarumlaut"/>
    <contour>
      <point x="246" y="440" type="move" name="_top"/>
    </contour>
    <contour>
      <point x="339" y="652" type="move" name="top"/>
    </contour>
  </outline>
</glyph>
<glyph name="commaturnedabovecomb" format="1">
  <advance width="233"/>
  <unicode hex="0312"/>
  <outline>
    <contour>
      <point x="347" y="702" type="line"/>
      <point x="296" y="696"/>
      <point x="252" y="677"/>
      <point x="225" y="620" type="curve" smooth="yes"/>
      <point x="217" y="604"/>
      <point x="213" y="589"/>
      <point x="213" y="574" type="curve" smooth="yes"/>
      <point x="213" y="540"/>
      <point x="231" y="513"/>
      <point x="265" y="513" type="curve" smooth="yes"/>
      <point x="293" y="513"/>
      <point x="314" y="534"/>
      <point x="314" y="563" type="curve" smooth="yes"/>
      <point x="314" y="586"/>
      <point x="297" y="604"/>
      <point x="272" y="604" type="curve" smooth="yes"/>
      <point x="257" y="604"/>
      <point x="247" y="597"/>
      <point x="242" y="585" type="curve" smooth="yes"/>
      <point x="240" y="580"/>
      <point x="239" y="577"/>
      <point x="236" y="577" type="curve" smooth="yes"/>
      <point x="235" y="577"/>
      <point x="232" y="577"/>
      <point x="232" y="584" type="curve" smooth="yes"/>
      <point x="232" y="591"/>
      <point x="235" y="604"/>
      <point x="241" y="614" type="curve" smooth="yes"/>
      <point x="264" y="658"/>
      <point x="306" y="678"/>
      <point x="349" y="681" type="curve"/>
    </contour>
    <contour>
      <point x="184" y="440" type="move" name="_top"/>
    </contour>
    <contour>
      <point x="256" y="652" type="move" name="top"/>
    </contour>
  </outline>
</glyph>
<glyph name="commaaccentcomb" format="1">
  <advance width="202"/>
  <unicode hex="0326"/>
  <outline>
    <contour>
      <point x="-107" y="-279" type="line"/>
      <point x="-56" y="-273"/>
      <point x="-12" y="-254"/>
      <point x="15" y="-197" type="curve" smooth="yes"/>
      <point x="23" y="-181"/>
      <point x="27" y="-166"/>
      <point x="27" y="-151" type="curve" smooth="yes"/>
      <point x="27" y="-117"/>
      <point x="9" y="-90"/>
      <point x="-25" y="-90" type="curve" smooth="yes"/>
      <point x="-53" y="-90"/>
      <point x="-74" y="-111"/>
      <point x="-74" y="-140" type="curve" smooth="yes"/>
      <point x="-74" y="-163"/>
      <point x="-57" y="-181"/>
      <point x="-32" y="-181" type="curve" smooth="yes"/>
      <point x="-17" y="-181"/>
      <point x="-7" y="-174"/>
      <point x="-2" y="-162" type="curve" smooth="yes"/>
      <point x="0" y="-157"/>
      <point x="1" y="-154"/>
      <point x="4" y="-154" type="curve" smooth="yes"/>
      <point x="5" y="-154"/>
      <point x="8" y="-154"/>
      <point x="8" y="-161" type="curve" smooth="yes"/>
      <point x="8" y="-168"/>
      <point x="5" y="-181"/>
      <point x="-1" y="-191" type="curve" smooth="yes"/>
      <point x="-24" y="-235"/>
      <point x="-66" y="-255"/>
      <point x="-109" y="-258" type="curve"/>
    </contour>
    <contour>
      <point x="-1" y="0" type="move" name="_bottom"/>
    </contour>
    <contour>
      <point x="-28" y="-280" type="move" name="bottom"/>
    </contour>
  </outline>
</glyph>
<glyph name="cedillacomb" format="1">
  <advance width="306"/>
  <unicode hex="0327"/>
  <outline>
    <component base="cedilla"/>
    <contour>
      <point x="91" y="0" type="move" name="_bottom"/>
    </contour>
    <contour>
      <point x="-31" y="-280" type="move" name="bottom"/>
    </contour>
  </outline>
</glyph>
<glyph name="ogonekcomb" format="1">
  <advance width="298"/>
  <unicode hex="0328"/>
  <outline>
    <contour>
      <point x="-9" y="-294" type="curve" smooth="yes"/>
      <point x="46" y="-294"/>
      <point x="84" y="-271"/>
      <point x="106" y="-240" type="curve"/>
      <point x="94" y="-226" type="line"/>
      <point x="70" y="-248"/>
      <point x="49" y="-256"/>
      <point x="26" y="-256" type="curve" smooth="yes"/>
      <point x="-17" y="-256"/>
      <point x="-44" y="-226"/>
      <point x="-44" y="-180" type="curve" smooth="yes"/>
      <point x="-44" y="-107"/>
      <point x="30" y="-36"/>
      <point x="118" y="7" type="curve"/>
      <point x="142" y="40" type="line"/>
      <point x="37" y="-6"/>
      <point x="-109" y="-108"/>
      <point x="-109" y="-200" type="curve" smooth="yes"/>
      <point x="-109" y="-252"/>
      <point x="-73" y="-294"/>
    </contour>
    <contour>
      <point x="131" y="0" type="move" name="_ogonek"/>
    </contour>
  </outline>
</glyph>
<glyph name="strokeshortcomb" format="1">
  <advance width="345"/>
  <unicode hex="0335"/>
  <outline>
    <contour>
      <point x="166" y="557" type="line"/>
      <point x="421" y="557" type="line"/>
      <point x="431" y="581" type="line"/>
      <point x="176" y="581" type="line"/>
    </contour>
    <contour>
      <point x="299" y="567" type="move" name="_center"/>
    </contour>
  </outline>
</glyph>
<glyph name="strokelongcomb" format="1">
  <advance width="842"/>
  <unicode hex="0336"/>
  <outline>
    <contour>
      <point x="155" y="522" type="line"/>
      <point x="907" y="522" type="line"/>
      <point x="917" y="551" type="line"/>
      <point x="165" y="551" type="line"/>
    </contour>
    <contour>
      <point x="536" y="537" type="move" name="_center"/>
    </contour>
  </outline>
</glyph>
<glyph name="slashshortcomb" format="1">
  <advance width="372"/>
  <unicode hex="0337"/>
  <outline>
    <contour>
      <point x="-119" y="-12" type="line"/>
      <point x="-62" y="-12" type="line"/>
      <point x="472" y="453" type="line"/>
      <point x="416" y="453" type="line"/>
    </contour>
    <contour>
      <point x="176" y="220" type="move" name="_center"/>
    </contour>
  </outline>
</glyph>
<glyph name="slashlongcomb" format="1">
  <advance width="491"/>
  <unicode hex="0338"/>
  <outline>
    <contour>
      <point x="-55" y="-14" type="line"/>
      <point x="1" y="-14" type="line"/>
      <point x="645" y="726" type="line"/>
      <point x="589" y="726" type="line"/>
    </contour>
    <contour>
      <point x="292" y="356" type="move" name="_center"/>
    </contour>
  </outline>
</glyph>
<glyph name="endash" format="1">
  <advance width="494"/>
  <unicode hex="2013"/>
  <outline>
    <contour>
      <point x="11" y="196" type="line"/>
      <point x="465" y="196" type="line"/>
      <point x="478" y="232" type="line"/>
      <point x="24" y="232" type="line"/>
    </contour>
  </outline>
</glyph>
<glyph name="emdash" format="1">
  <advance width="736"/>
  <unicode hex="2014"/>
  <outline>
    <contour>
      <point x="14" y="196" type="line"/>
      <point x="709" y="196" type="line"/>
      <point x="725" y="232" type="line"/>
      <point x="30" y="232" type="line"/>
    </contour>
  </outline>
</glyph>
<glyph name="quoteright" format="1">
  <advance width="234"/>
  <unicode hex="2019"/>
  <outline>
    <contour>
      <point x="141" y="467" type="line"/>
      <point x="208" y="475"/>
      <point x="267" y="501"/>
      <point x="303" y="576" type="curve" smooth="yes"/>
      <point x="313" y="597"/>
      <point x="319" y="618"/>
      <point x="319" y="638" type="curve" smooth="yes"/>
      <point x="319" y="683"/>
      <point x="295" y="718"/>
      <point x="249" y="718" type="curve" smooth="yes"/>
      <point x="212" y="718"/>
      <point x="184" y="691"/>
      <point x="184" y="652" type="curve" smooth="yes"/>
      <point x="184" y="621"/>
      <point x="207" y="597"/>
      <point x="240" y="597" type="curve" smooth="yes"/>
      <point x="260" y="597"/>
      <point x="273" y="607"/>
      <point x="280" y="623" type="curve" smooth="yes"/>
      <point x="283" y="630"/>
      <point x="284" y="634"/>
      <point x="288" y="634" type="curve" smooth="yes"/>
      <point x="290" y="634"/>
      <point x="294" y="633"/>
      <point x="294" y="624" type="curve" smooth="yes"/>
      <point x="294" y="615"/>
      <point x="289" y="597"/>
      <point x="282" y="584" type="curve" smooth="yes"/>
      <point x="251" y="526"/>
      <point x="195" y="499"/>
      <point x="138" y="495" type="curve"/>
    </contour>
  </outline>
</glyph>
<glyph name="dagger" format="1">
  <advance width="489"/>
  <unicode hex="2020"/>
  <outline>
    <contour>
      <point x="53" y="-280" type="curve"/>
      <point x="76" y="-280" type="line"/>
      <point x="181" y="10"/>
      <point x="260" y="188"/>
      <point x="296" y="286" type="curve" smooth="yes"/>
      <point x="341" y="413"/>
      <point x="326" y="478"/>
      <point x="395" y="565" type="curve" smooth="yes"/>
      <point x="425" y="603"/>
      <point x="454" y="642"/>
      <point x="454" y="675" type="curve" smooth="yes"/>
      <point x="454" y="694"/>
      <point x="444" y="710"/>
      <point x="421" y="710" type="curve" smooth="yes"/>
      <point x="372" y="710"/>
      <point x="343" y="660"/>
      <point x="343" y="608" type="curve" smooth="yes"/>
      <point x="343" y="595"/>
      <point x="344" y="575"/>
      <point x="344" y="563" type="curve" smooth="yes"/>
      <point x="344" y="478"/>
      <point x="286" y="410"/>
      <point x="243" y="292" type="curve" smooth="yes"/>
      <point x="209" y="198"/>
      <point x="161" y="18"/>
    </contour>
    <contour>
      <point x="188" y="441" type="curve" smooth="yes"/>
      <point x="225" y="441"/>
      <point x="270" y="470"/>
      <point x="333" y="470" type="curve"/>
      <point x="334" y="489" type="line"/>
      <point x="271" y="489"/>
      <point x="225" y="520"/>
      <point x="188" y="520" type="curve" smooth="yes"/>
      <point x="159" y="520"/>
      <point x="138" y="511"/>
      <point x="138" y="480" type="curve" smooth="yes"/>
      <point x="138" y="455"/>
      <point x="158" y="441"/>
    </contour>
    <contour>
      <point x="491" y="441" type="curve" smooth="yes"/>
      <point x="521" y="441"/>
      <point x="541" y="455"/>
      <point x="541" y="480" type="curve" smooth="yes"/>
      <point x="541" y="511"/>
      <point x="520" y="520"/>
      <point x="491" y="520" type="curve" smooth="yes"/>
      <point x="454" y="520"/>
      <point x="408" y="489"/>
      <point x="345" y="489" type="curve"/>
      <point x="341" y="470" type="line"/>
      <point x="403" y="470"/>
      <point x="454" y="441"/>
    </contour>
  </outline>
</glyph>
<glyph name="perthousand" format="1">
  <advance width="1049"/>
  <unicode hex="2030"/>
  <outline>
    <contour>
      <point x="780" y="-14" type="curve" smooth="yes"/>
      <point x="882" y="-14"/>
      <point x="980" y="78"/>
      <point x="980" y="173" type="curve" smooth="yes"/>
      <point x="980" y="226"/>
      <point x="943" y="263"/>
      <point x="873" y="263" type="curve" smooth="yes"/>
      <point x="771" y="263"/>
      <point x="674" y="170"/>
      <point x="674" y="79" type="curve" smooth="yes"/>
      <point x="674" y="22"/>
      <point x="711" y="-14"/>
    </contour>
    <contour>
      <point x="785" y="13" type="curve" smooth="yes"/>
      <point x="748" y="13"/>
      <point x="731" y="34"/>
      <point x="731" y="70" type="curve" smooth="yes"/>
      <point x="731" y="133"/>
      <point x="788" y="236"/>
      <point x="865" y="236" type="curve" smooth="yes"/>
      <point x="904" y="236"/>
      <point x="922" y="217"/>
      <point x="922" y="179" type="curve" smooth="yes"/>
      <point x="922" y="116"/>
      <point x="864" y="13"/>
    </contour>
    <component base="percent"/>
    <contour>
      <point x="422" y="356" type="move" name="_center"/>
    </contour>
  </outline>
</glyph>
<glyph name="guilsinglleft" format="1">
  <advance width="273"/>
  <unicode hex="2039"/>
  <outline>
    <contour>
      <point x="159" y="44" type="curve"/>
      <point x="168" y="69" type="line"/>
      <point x="127" y="91"/>
      <point x="110" y="126"/>
      <point x="110" y="170" type="curve" smooth="yes"/>
      <point x="110" y="252"/>
      <point x="183" y="339"/>
      <point x="258" y="374" type="curve"/>
      <point x="249" y="399" type="line"/>
      <point x="163" y="375"/>
      <point x="56" y="285"/>
      <point x="56" y="179" type="curve" smooth="yes"/>
      <point x="56" y="123"/>
      <point x="89" y="64"/>
    </contour>
  </outline>
</glyph>
<glyph name="fraction" format="1">
  <advance width="283"/>
  <unicode hex="2044"/>
  <outline>
    <contour>
      <point x="-200" y="0" type="line"/>
      <point x="-162" y="0" type="line"/>
      <point x="596" y="710" type="line"/>
      <point x="557" y="710" type="line"/>
    </contour>
  </outline>
</glyph>
<glyph name="euro" format="1">
  <advance width="686"/>
  <unicode hex="20AC"/>
  <outline>
    <contour>
      <point x="306" y="-11" type="curve" smooth="yes"/>
      <point x="428" y="-11"/>
      <point x="500" y="48"/>
      <point x="555" y="110" type="curve" smooth="yes"/>
      <point x="602" y="164"/>
      <point x="630" y="222"/>
      <point x="640" y="247" type="curve"/>
      <point x="614" y="247" type="line"/>
      <point x="595" y="205"/>
      <point x="569" y="164"/>
      <point x="538" y="130" type="curve" smooth="yes"/>
      <point x="481" y="65"/>
      <point x="410" y="20"/>
      <point x="326" y="20" type="curve" smooth="yes"/>
      <point x="217" y="20"/>
      <point x="170" y="104"/>
      <point x="170" y="234" type="curve" smooth="yes"/>
      <point x="170" y="462"/>
      <point x="358" y="690"/>
      <point x="538" y="690" type="curve" smooth="yes"/>
      <point x="623" y="690"/>
      <point x="680" y="640"/>
      <point x="680" y="543" type="curve" smooth="yes"/>
      <point x="680" y="525"/>
      <point x="678" y="506"/>
      <point x="674" y="485" type="curve"/>
      <point x="700" y="485" type="line"/>
      <point x="738" y="594" type="line"/>
      <point x="780" y="697" type="line"/>
      <point x="754" y="697" type="line"/>
      <point x="743" y="683"/>
      <point x="727" y="663"/>
      <point x="716" y="663" type="curve" smooth="yes"/>
      <point x="690" y="663"/>
      <point x="648" y="720"/>
      <point x="531" y="720" type="curve" smooth="yes"/>
      <point x="287" y="720"/>
      <point x="80" y="466"/>
      <point x="80" y="221" type="curve" smooth="yes"/>
      <point x="80" y="59"/>
      <point x="182" y="-11"/>
    </contour>
    <contour>
      <point x="-22" y="259" type="line"/>
      <point x="83" y="259" type="line"/>
      <point x="90" y="291" type="line"/>
      <point x="-11" y="291" type="line"/>
    </contour>
    <contour>
      <point x="21" y="377" type="line"/>
      <point x="120" y="377" type="line"/>
      <point x="133" y="409" type="line"/>
      <point x="32" y="409" type="line"/>
    </contour>
    <contour>
      <point x="137" y="259" type="line"/>
      <point x="441" y="259" type="line"/>
      <point x="466" y="291" type="line"/>
      <point x="144" y="291" type="line"/>
    </contour>
    <contour>
      <point x="173" y="377" type="line"/>
      <point x="524" y="377" type="line"/>
      <point x="549" y="409" type="line"/>
      <point x="186" y="409" type="line"/>
    </contour>
    <contour>
      <point x="338" y="0" type="move" name="bottom"/>
    </contour>
    <contour>
      <point x="526" y="710" type="move" name="top"/>
    </contour>
  </outline>
</glyph>
<glyph name="emptyset" format="1">
  <advance width="729"/>
  <unicode hex="2205"/>
  <outline>
    <contour>
      <point x="180" y="-42" type="line"/>
      <point x="234" y="35" type="line"/>
      <point x="280" y="6"/>
      <point x="334" y="-10"/>
      <point x="392" y="-10" type="curve" smooth="yes"/>
      <point x="558" y="-10"/>
      <point x="694" y="126"/>
      <point x="694" y="294" type="curve" smooth="yes"/>
      <point x="694" y="389"/>
      <point x="649" y="474"/>
      <point x="579" y="530" type="curve"/>
      <point x="630" y="603" type="line"/>
      <point x="600" y="622" type="line"/>
      <point x="550" y="550" type="line"/>
      <point x="504" y="579"/>
      <point x="450" y="595"/>
      <point x="392" y="595" type="curve" smooth="yes"/>
      <point x="225" y="595"/>
      <point x="89" y="459"/>
      <point x="89" y="294" type="curve" smooth="yes"/>
      <point x="89" y="197"/>
      <point x="134" y="112"/>
      <point x="204" y="56" type="curve"/>
      <point x="150" y="-21" type="line"/>
    </contour>
    <contour>
      <point x="225" y="87" type="line"/>
      <point x="166" y="135"/>
      <point x="129" y="210"/>
      <point x="129" y="294" type="curve" smooth="yes"/>
      <point x="129" y="440"/>
      <point x="246" y="558"/>
      <point x="392" y="558" type="curve" smooth="yes"/>
      <point x="442" y="558"/>
      <point x="489" y="544"/>
      <point x="528" y="520" type="curve"/>
    </contour>
    <contour>
      <point x="392" y="27" type="curve" smooth="yes"/>
      <point x="342" y="27"/>
      <point x="295" y="41"/>
      <point x="255" y="65" type="curve"/>
      <point x="557" y="499" type="line"/>
      <point x="616" y="451"/>
      <point x="654" y="377"/>
      <point x="654" y="294" type="curve" smooth="yes"/>
      <point x="654" y="145"/>
      <point x="537" y="27"/>
    </contour>
  </outline>
</glyph>
<glyph name="minus" format="1">
  <advance width="556"/>
  <unicode hex="2212"/>
  <outline>
    <contour>
      <point x="90" y="300" type="line"/>
      <point x="526" y="300" type="line"/>
      <point x="539" y="336" type="line"/>
      <point x="103" y="336" type="line"/>
    </contour>
  </outline>
</glyph>
<glyph name="infinity" format="1">
  <advance width="792"/>
  <unicode hex="221E"/>
  <outline>
    <contour>
      <point x="200" y="166" type="curve" smooth="yes"/>
      <point x="271" y="166"/>
      <point x="341" y="198"/>
      <point x="420" y="278" type="curve" smooth="yes"/>
      <point x="499" y="358" type="line" smooth="yes"/>
      <point x="541" y="401"/>
      <point x="626" y="487"/>
      <point x="701" y="487" type="curve" smooth="yes"/>
      <point x="750" y="487"/>
      <point x="780" y="449"/>
      <point x="780" y="401" type="curve" smooth="yes"/>
      <point x="780" y="312"/>
      <point x="686" y="225"/>
      <point x="590" y="225" type="curve" smooth="yes"/>
      <point x="507" y="225"/>
      <point x="478" y="257"/>
      <point x="463" y="334" type="curve"/>
      <point x="432" y="300" type="line"/>
      <point x="446" y="232"/>
      <point x="475" y="168"/>
      <point x="573" y="168" type="curve" smooth="yes"/>
      <point x="707" y="168"/>
      <point x="811" y="309"/>
      <point x="811" y="427" type="curve" smooth="yes"/>
      <point x="811" y="494"/>
      <point x="771" y="547"/>
      <point x="686" y="547" type="curve" smooth="yes"/>
      <point x="621" y="547"/>
      <point x="554" y="511"/>
      <point x="490" y="446" type="curve" smooth="yes"/>
      <point x="374" y="329" type="line" smooth="yes"/>
      <point x="328" y="283"/>
      <point x="266" y="225"/>
      <point x="195" y="225" type="curve" smooth="yes"/>
      <point x="147" y="225"/>
      <point x="114" y="260"/>
      <point x="114" y="314" type="curve" smooth="yes"/>
      <point x="114" y="410"/>
      <point x="208" y="487"/>
      <point x="306" y="487" type="curve" smooth="yes"/>
      <point x="377" y="487"/>
      <point x="423" y="440"/>
      <point x="423" y="367" type="curve"/>
      <point x="455" y="403" type="line"/>
      <point x="455" y="471"/>
      <point x="426" y="547"/>
      <point x="332" y="547" type="curve" smooth="yes"/>
      <point x="205" y="547"/>
      <point x="84" y="420"/>
      <point x="84" y="295" type="curve" smooth="yes"/>
      <point x="84" y="230"/>
      <point x="123" y="166"/>
    </contour>
  </outline>
</glyph>
<glyph name="notequal" format="1">
  <advance width="600"/>
  <unicode hex="2260"/>
  <outline>
    <contour>
      <point x="83" y="120" type="line"/>
      <point x="128" y="120" type="line"/>
      <point x="524" y="483" type="line"/>
      <point x="480" y="483" type="line"/>
    </contour>
    <component base="equal"/>
  </outline>
</glyph>
<glyph name="lozenge" format="1">
  <advance width="620"/>
  <unicode hex="25CA"/>
  <outline>
    <contour>
      <point x="528" y="746" type="line"/>
      <point x="479" y="746" type="line"/>
      <point x="104" y="373" type="line"/>
      <point x="200" y="-11" type="line"/>
      <point x="250" y="-11" type="line"/>
      <point x="628" y="373" type="line"/>
    </contour>
    <contour>
      <point x="230" y="18" type="line"/>
      <point x="144" y="361" type="line"/>
      <point x="498" y="714" type="line"/>
      <point x="588" y="385" type="line"/>
    </contour>
  </outline>
</glyph>
<glyph name="fi" format="1">
  <advance width="575"/>
  <unicode hex="FB01"/>
  <outline>
    <contour>
      <point x="-123" y="-290" type="curve" smooth="yes"/>
      <point x="-36" y="-290"/>
      <point x="14" y="-260"/>
      <point x="61" y="-131" type="curve" smooth="yes"/>
      <point x="327" y="615" type="line" smooth="yes"/>
      <point x="347" y="672"/>
      <point x="390" y="698"/>
      <point x="434" y="698" type="curve" smooth="yes"/>
      <point x="477" y="698"/>
      <point x="496" y="683"/>
      <point x="496" y="633" type="curve" smooth="yes"/>
      <point x="496" y="603"/>
      <point x="513" y="582"/>
      <point x="543" y="582" type="curve" smooth="yes"/>
      <point x="580" y="582"/>
      <point x="602" y="613"/>
      <point x="602" y="642" type="curve" smooth="yes"/>
      <point x="602" y="664"/>
      <point x="596" y="720"/>
      <point x="447" y="720" type="curve" smooth="yes"/>
      <point x="339" y="720"/>
      <point x="279" y="680"/>
      <point x="249" y="596" type="curve" smooth="yes"/>
      <point x="-11" y="-131" type="line" smooth="yes"/>
      <point x="-41" y="-214"/>
      <point x="-70" y="-268"/>
      <point x="-105" y="-268" type="curve" smooth="yes"/>
      <point x="-149" y="-268"/>
      <point x="-126" y="-174"/>
      <point x="-185" y="-174" type="curve" smooth="yes"/>
      <point x="-213" y="-174"/>
      <point x="-234" y="-194"/>
      <point x="-234" y="-221" type="curve" smooth="yes"/>
      <point x="-234" y="-255"/>
      <point x="-205" y="-290"/>
    </contour>
    <contour>
      <point x="102" y="416" type="line"/>
      <point x="386" y="416" type="line"/>
      <point x="386" y="440" type="line"/>
      <point x="109" y="440" type="line"/>
    </contour>
    <component base="idotless" xOffset="296"/>
    <contour>
      <point x="296" y="0" type="move" name="caret_1"/>
    </contour>
  </outline>
</glyph>
<glyph name="fl" format="1">
  <advance width="608"/>
  <unicode hex="FB02"/>
  <outline>
    <contour>
      <point x="-123" y="-290" type="curve" smooth="yes"/>
      <point x="-36" y="-290"/>
      <point x="14" y="-260"/>
      <point x="61" y="-131" type="curve" smooth="yes"/>
      <point x="292" y="504" type="line" smooth="yes"/>
      <point x="325" y="595"/>
      <point x="365" y="695"/>
      <point x="465" y="695" type="curve" smooth="yes"/>
      <point x="523" y="695"/>
      <point x="573" y="663"/>
      <point x="599" y="581" type="curve"/>
      <point x="644" y="657" type="line"/>
      <point x="615" y="697"/>
      <point x="550" y="720"/>
      <point x="471" y="720" type="curve" smooth="yes"/>
      <point x="325" y="720"/>
      <point x="277" y="653"/>
      <point x="228" y="520" type="curve" smooth="yes"/>
      <point x="-11" y="-131" type="line" smooth="yes"/>
      <point x="-41" y="-214"/>
      <point x="-70" y="-268"/>
      <point x="-105" y="-268" type="curve" smooth="yes"/>
      <point x="-149" y="-268"/>
      <point x="-126" y="-174"/>
      <point x="-185" y="-174" type="curve" smooth="yes"/>
      <point x="-213" y="-174"/>
      <point x="-234" y="-194"/>
      <point x="-234" y="-221" type="curve" smooth="yes"/>
      <point x="-234" y="-255"/>
      <point x="-205" y="-290"/>
    </contour>
    <contour>
      <point x="106" y="416" type="line"/>
      <point x="373" y="416" type="line"/>
      <point x="380" y="440" type="line"/>
      <point x="113" y="440" type="line"/>
    </contour>
    <contour>
      <point x="443" y="99" type="line"/>
      <point x="644" y="657" type="line"/>
      <point x="580" y="664" type="line"/>
      <point x="383" y="131" type="line"/>
    </contour>
    <component base="_part.sortie.2" xOffset="38"/>
    <contour>
      <point x="315" y="0" type="move" name="caret_1"/>
    </contour>
  </outline>
</glyph>
<glyph name=".notdef" format="1">
  <advance width="870"/>
  <outline>
    <contour>
      <point x="9" y="0" type="line"/>
      <point x="719" y="0" type="line"/>
      <point x="950" y="710" type="line"/>
      <point x="240" y="710" type="line"/>
    </contour>
    <contour>
      <point x="72" y="30" type="line"/>
      <point x="475" y="336" type="line"/>
      <point x="682" y="30" type="line"/>
    </contour>
    <contour>
      <point x="59" y="58" type="line"/>
      <point x="254" y="663" type="line"/>
      <point x="459" y="360" type="line"/>
    </contour>
    <contour>
      <point x="705" y="49" type="line"/>
      <point x="500" y="354" type="line"/>
      <point x="902" y="658" type="line"/>
    </contour>
    <contour>
      <point x="483" y="379" type="line"/>
      <point x="280" y="680" type="line"/>
      <point x="881" y="680" type="line"/>
    </contour>
  </outline>
</glyph>
<glyph name="_part.adq" format="1">
  <advance width="594"/>
  <outline>
    <contour>
      <point x="186" y="-11" type="curve" smooth="yes"/>
      <point x="257" y="-11"/>
      <point x="320" y="39"/>
      <point x="367" y="120" type="curve"/>
      <point x="440" y="318" type="line"/>
      <point x="444" y="395"/>
      <point x="414" y="454"/>
      <point x="343" y="454" type="curve" smooth="yes"/>
      <point x="213" y="454"/>
      <point x="51" y="296"/>
      <point x="51" y="127" type="curve" smooth="yes"/>
      <point x="51" y="54"/>
      <point x="92" y="-11"/>
    </contour>
    <contour>
      <point x="196" y="15" type="curve" smooth="yes"/>
      <point x="153" y="15"/>
      <point x="126" y="46"/>
      <point x="126" y="107" type="curve" smooth="yes"/>
      <point x="126" y="242"/>
      <point x="243" y="428"/>
      <point x="349" y="428" type="curve" smooth="yes"/>
      <point x="396" y="428"/>
      <point x="418" y="390"/>
      <point x="418" y="336" type="curve" smooth="yes"/>
      <point x="418" y="306"/>
      <point x="411" y="270"/>
      <point x="398" y="234" type="curve" smooth="yes"/>
      <point x="351" y="105"/>
      <point x="277" y="15"/>
    </contour>
  </outline>
</glyph>
<glyph name="_part.ascendante" format="1">
  <advance width="308"/>
  <outline>
    <contour>
      <point x="44" y="0" type="line"/>
      <point x="116" y="0" type="line"/>
      <point x="369" y="702" type="line"/>
      <point x="303" y="702" type="line"/>
    </contour>
    <component base="_part.attaque.asc"/>
  </outline>
</glyph>
<glyph name="_part.attaque.asc" format="1">
  <advance width="227"/>
  <outline>
    <contour>
      <point x="266" y="601" type="curve"/>
      <point x="336" y="612" type="line"/>
      <point x="373" y="713" type="line"/>
      <point x="211" y="710" type="line"/>
      <point x="204" y="686" type="line"/>
      <point x="242" y="686"/>
      <point x="278" y="690"/>
      <point x="278" y="652" type="curve" smooth="yes"/>
      <point x="278" y="640"/>
      <point x="274" y="623"/>
    </contour>
  </outline>
</glyph>
<glyph name="_part.demiserif" format="1">
  <advance width="162"/>
  <outline>
    <contour>
      <point x="287" y="596" type="line"/>
      <point x="329" y="710" type="line"/>
      <point x="182" y="713" type="line"/>
      <point x="173" y="688" type="line"/>
      <point x="192" y="686" type="line" smooth="yes"/>
      <point x="245" y="681"/>
      <point x="264" y="673"/>
      <point x="264" y="651" type="curve" smooth="yes"/>
      <point x="264" y="643"/>
      <point x="261" y="631"/>
      <point x="256" y="617" type="curve"/>
    </contour>
  </outline>
</glyph>
<glyph name="_part.fut.cap" format="1">
  <advance width="379"/>
  <outline>
    <contour>
      <point x="72" y="0" type="line"/>
      <point x="152" y="0" type="line"/>
      <point x="410" y="710" type="line"/>
      <point x="330" y="710" type="line"/>
    </contour>
  </outline>
</glyph>
<glyph name="_part.fut" format="1">
  <advance width="298"/>
  <outline>
    <contour>
      <point x="23" y="0" type="line"/>
      <point x="95" y="0" type="line"/>
      <point x="218" y="340" type="line"/>
      <point x="214" y="342" type="line"/>
      <point x="244" y="443" type="line"/>
      <point x="97" y="440" type="line"/>
      <point x="89" y="416" type="line"/>
      <point x="126" y="416"/>
      <point x="157" y="419"/>
      <point x="157" y="386" type="curve" smooth="yes"/>
      <point x="157" y="376"/>
      <point x="154" y="362"/>
      <point x="147" y="344" type="curve" smooth="yes"/>
    </contour>
  </outline>
</glyph>
<glyph name="_part.jambage.2" format="1">
  <advance width="554"/>
  <outline>
    <contour>
      <point x="380" y="-14" type="curve" smooth="yes"/>
      <point x="437" y="-14"/>
      <point x="477" y="33"/>
      <point x="502" y="75" type="curve"/>
      <point x="484" y="87" type="line"/>
      <point x="467" y="57"/>
      <point x="436" y="19"/>
      <point x="407" y="19" type="curve" smooth="yes"/>
      <point x="396" y="19"/>
      <point x="391" y="26"/>
      <point x="391" y="39" type="curve" smooth="yes"/>
      <point x="391" y="50"/>
      <point x="395" y="65"/>
      <point x="401" y="85" type="curve" smooth="yes"/>
      <point x="526" y="440" type="line"/>
      <point x="460" y="440" type="line"/>
      <point x="339" y="113" type="line" smooth="yes"/>
      <point x="330" y="87"/>
      <point x="324" y="62"/>
      <point x="324" y="41" type="curve" smooth="yes"/>
      <point x="324" y="8"/>
      <point x="339" y="-14"/>
    </contour>
  </outline>
</glyph>
<glyph name="_part.quoteright" format="1">
  <advance width="324"/>
  <outline>
    <contour>
      <point x="56" y="74" type="line"/>
      <point x="146" y="95"/>
      <point x="234" y="125"/>
      <point x="267" y="229" type="curve" smooth="yes"/>
      <point x="275" y="254"/>
      <point x="277" y="277"/>
      <point x="277" y="290" type="curve" smooth="yes"/>
      <point x="277" y="364"/>
      <point x="239" y="412"/>
      <point x="180" y="412" type="curve" smooth="yes"/>
      <point x="129" y="412"/>
      <point x="94" y="374"/>
      <point x="94" y="324" type="curve" smooth="yes"/>
      <point x="94" y="280"/>
      <point x="122" y="248"/>
      <point x="164" y="248" type="curve" smooth="yes"/>
      <point x="206" y="248"/>
      <point x="235" y="273"/>
      <point x="235" y="314" type="curve" smooth="yes"/>
      <point x="235" y="324"/>
      <point x="238" y="326"/>
      <point x="241" y="326" type="curve" smooth="yes"/>
      <point x="246" y="326"/>
      <point x="246" y="318"/>
      <point x="246" y="306" type="curve" smooth="yes"/>
      <point x="246" y="288"/>
      <point x="244" y="259"/>
      <point x="235" y="235" type="curve" smooth="yes"/>
      <point x="206" y="155"/>
      <point x="127" y="118"/>
      <point x="51" y="104" type="curve"/>
    </contour>
  </outline>
</glyph>
<glyph name="_part.serif" format="1">
  <advance width="309"/>
  <outline>
    <contour>
      <point x="-74" y="-3" type="line"/>
      <point x="75" y="0" type="line"/>
      <point x="224" y="-3" type="line"/>
      <point x="233" y="22" type="line"/>
      <point x="214" y="24" type="line" smooth="yes"/>
      <point x="160" y="29"/>
      <point x="142" y="35"/>
      <point x="142" y="58" type="curve" smooth="yes"/>
      <point x="142" y="68"/>
      <point x="145" y="80"/>
      <point x="150" y="96" type="curve"/>
      <point x="85" y="137" type="line"/>
      <point x="48" y="49"/>
      <point x="29" y="31"/>
      <point x="-44" y="24" type="curve" smooth="yes"/>
      <point x="-65" y="22" type="line"/>
    </contour>
  </outline>
</glyph>
<glyph name="_part.serif2" format="1">
  <advance width="309"/>
  <outline>
    <contour>
      <point x="-37" y="-1" type="line"/>
      <point x="86" y="2" type="line"/>
      <point x="204" y="-1" type="line"/>
      <point x="213" y="24" type="line"/>
      <point x="194" y="26" type="line" smooth="yes"/>
      <point x="146" y="31"/>
      <point x="125" y="35"/>
      <point x="125" y="58" type="curve" smooth="yes"/>
      <point x="125" y="66"/>
      <point x="128" y="77"/>
      <point x="133" y="92" type="curve"/>
      <point x="111" y="118" type="line"/>
      <point x="81" y="38"/>
      <point x="63" y="33"/>
      <point x="-7" y="26" type="curve" smooth="yes"/>
      <point x="-28" y="24" type="line"/>
    </contour>
  </outline>
</glyph>
<glyph name="_part.sortie.2" format="1">
  <advance width="554"/>
  <outline>
    <contour>
      <point x="384" y="-14" type="curve" smooth="yes"/>
      <point x="434" y="-14"/>
      <point x="466" y="21"/>
      <point x="524" y="89" type="curve"/>
      <point x="506" y="105" type="line"/>
      <point x="464" y="55"/>
      <point x="433" y="19"/>
      <point x="403" y="19" type="curve" smooth="yes"/>
      <point x="394" y="19"/>
      <point x="387" y="24"/>
      <point x="387" y="38" type="curve" smooth="yes"/>
      <point x="387" y="46"/>
      <point x="389" y="56"/>
      <point x="394" y="69" type="curve" smooth="yes"/>
      <point x="405" y="99" type="line"/>
      <point x="345" y="131" type="line"/>
      <point x="331" y="94" type="line" smooth="yes"/>
      <point x="323" y="74"/>
      <point x="320" y="57"/>
      <point x="320" y="43" type="curve" smooth="yes"/>
      <point x="320" y="5"/>
      <point x="344" y="-14"/>
    </contour>
  </outline>
</glyph>
<glyph name="_part.sortie" format="1">
  <advance width="600"/>
  <outline>
    <contour>
      <point x="400" y="-10" type="curve" smooth="yes"/>
      <point x="455" y="-10"/>
      <point x="493" y="20"/>
      <point x="526" y="56" type="curve"/>
      <point x="510" y="73" type="line"/>
      <point x="491" y="54"/>
      <point x="454" y="23"/>
      <point x="428" y="23" type="curve" smooth="yes"/>
      <point x="412" y="23"/>
      <point x="405" y="34"/>
      <point x="405" y="50" type="curve" smooth="yes"/>
      <point x="405" y="59"/>
      <point x="408" y="71"/>
      <point x="413" y="83" type="curve"/>
      <point x="366" y="158" type="line"/>
      <point x="343" y="98"/>
      <point x="336" y="60"/>
      <point x="336" y="45" type="curve" smooth="yes"/>
      <point x="336" y="14"/>
      <point x="353" y="-10"/>
    </contour>
  </outline>
</glyph>
<glyph name="_partG" format="1">
  <advance width="576"/>
  <outline>
    <contour>
      <point x="22" y="254" type="curve"/>
      <point x="97" y="254" type="line"/>
      <point x="175" y="468"/>
      <point x="329" y="668"/>
      <point x="480" y="745" type="curve"/>
      <point x="475" y="769" type="line"/>
      <point x="309" y="688"/>
      <point x="121" y="526"/>
    </contour>
    <contour>
      <point x="480" y="745" type="line"/>
      <point x="481" y="746" type="line"/>
      <point x="475" y="769" type="line"/>
    </contour>
  </outline>
</glyph>
<glyph name="acutecomb.case" format="1">
  <advance width="201"/>
  <outline>
    <contour>
      <point x="269" y="760" type="line"/>
      <point x="281" y="760" type="line"/>
      <point x="410" y="940" type="line"/>
      <point x="329" y="940" type="line"/>
    </contour>
    <contour>
      <point x="272" y="710" type="move" name="_top"/>
    </contour>
    <contour>
      <point x="316" y="710" type="move" name="_topright"/>
    </contour>
    <contour>
      <point x="355" y="908" type="move" name="top"/>
    </contour>
  </outline>
</glyph>
<glyph name="brevecomb.case" format="1">
  <advance width="299"/>
  <outline>
    <component base="breve" xOffset="102" yOffset="252"/>
    <contour>
      <point x="346" y="710" type="move" name="_top"/>
    </contour>
    <contour>
      <point x="393" y="908" type="move" name="top"/>
    </contour>
  </outline>
</glyph>
<glyph name="caroncomb.case" format="1">
  <advance width="297"/>
  <outline>
    <contour>
      <point x="324" y="761" type="line"/>
      <point x="354" y="761" type="line"/>
      <point x="509" y="940" type="line"/>
      <point x="475" y="940" type="line"/>
      <point x="326" y="807" type="line"/>
      <point x="372" y="807" type="line"/>
      <point x="341" y="940" type="line"/>
      <point x="312" y="940" type="line"/>
    </contour>
    <contour>
      <point x="325" y="710" type="move" name="_top"/>
    </contour>
    <contour>
      <point x="393" y="908" type="move" name="top"/>
    </contour>
  </outline>
</glyph>
<glyph name="circumflexcomb.case" format="1">
  <advance width="277"/>
  <outline>
    <contour>
      <point x="237" y="761" type="line"/>
      <point x="271" y="761" type="line"/>
      <point x="413" y="894" type="line"/>
      <point x="366" y="894" type="line"/>
      <point x="405" y="761" type="line"/>
      <point x="434" y="761" type="line"/>
      <point x="418" y="940" type="line"/>
      <point x="379" y="940" type="line"/>
    </contour>
    <contour>
      <point x="331" y="710" type="move" name="_top"/>
    </contour>
    <contour>
      <point x="383" y="908" type="move" name="top"/>
    </contour>
  </outline>
</glyph>
<glyph name="d.sups" format="1">
  <advance width="444"/>
  <outline>
    <contour>
      <point x="390" y="290" type="curve" smooth="yes"/>
      <point x="440" y="290"/>
      <point x="474" y="327"/>
      <point x="494" y="358" type="curve"/>
      <point x="478" y="370" type="line"/>
      <point x="457" y="341"/>
      <point x="432" y="318"/>
      <point x="413" y="318" type="curve" smooth="yes"/>
      <point x="406" y="318"/>
      <point x="403" y="322"/>
      <point x="403" y="331" type="curve" smooth="yes"/>
      <point x="403" y="339"/>
      <point x="405" y="351"/>
      <point x="411" y="366" type="curve" smooth="yes"/>
      <point x="597" y="856" type="line"/>
      <point x="460" y="855" type="line"/>
      <point x="454" y="835" type="line"/>
      <point x="486" y="835"/>
      <point x="514" y="835"/>
      <point x="514" y="809" type="curve" smooth="yes"/>
      <point x="514" y="801"/>
      <point x="512" y="790"/>
      <point x="506" y="776" type="curve" smooth="yes"/>
      <point x="354" y="389" type="line" smooth="yes"/>
      <point x="345" y="367"/>
      <point x="341" y="348"/>
      <point x="341" y="333" type="curve" smooth="yes"/>
      <point x="341" y="305"/>
      <point x="357" y="290"/>
    </contour>
    <contour>
      <point x="219" y="290" type="curve" smooth="yes"/>
      <point x="286" y="290"/>
      <point x="330" y="330"/>
      <point x="364" y="381" type="curve"/>
      <point x="430" y="551" type="line"/>
      <point x="431" y="557"/>
      <point x="431" y="562"/>
      <point x="431" y="567" type="curve" smooth="yes"/>
      <point x="431" y="624"/>
      <point x="401" y="653"/>
      <point x="346" y="653" type="curve" smooth="yes"/>
      <point x="236" y="653"/>
      <point x="99" y="530"/>
      <point x="99" y="405" type="curve" smooth="yes"/>
      <point x="99" y="349"/>
      <point x="134" y="290"/>
    </contour>
    <contour>
      <point x="223" y="312" type="curve" smooth="yes"/>
      <point x="189" y="312"/>
      <point x="169" y="337"/>
      <point x="169" y="383" type="curve" smooth="yes"/>
      <point x="169" y="489"/>
      <point x="265" y="633"/>
      <point x="350" y="633" type="curve" smooth="yes"/>
      <point x="385" y="633"/>
      <point x="404" y="605"/>
      <point x="404" y="561" type="curve" smooth="yes"/>
      <point x="404" y="539"/>
      <point x="399" y="512"/>
      <point x="388" y="483" type="curve" smooth="yes"/>
      <point x="349" y="375"/>
      <point x="285" y="312"/>
    </contour>
    <contour>
      <point x="234" y="290" type="move" name="bottom"/>
    </contour>
  </outline>
</glyph>
<glyph name="dotaccentcomb.case" format="1">
  <advance width="184"/>
  <outline>
    <component base="dotaccent" xOffset="50" yOffset="199"/>
    <contour>
      <point x="299" y="710" type="move" name="_top"/>
    </contour>
    <contour>
      <point x="321" y="908" type="move" name="top"/>
    </contour>
  </outline>
</glyph>
<glyph name="e.sups" format="1">
  <advance width="321"/>
  <outline>
    <contour>
      <point x="236" y="290" type="curve" smooth="yes"/>
      <point x="284" y="290"/>
      <point x="314" y="313"/>
      <point x="341" y="337" type="curve" smooth="yes"/>
      <point x="349" y="344"/>
      <point x="355" y="350"/>
      <point x="361" y="358" type="curve"/>
      <point x="346" y="372" type="line"/>
      <point x="309" y="336"/>
      <point x="277" y="312"/>
      <point x="244" y="312" type="curve" smooth="yes"/>
      <point x="190" y="312"/>
      <point x="173" y="358"/>
      <point x="173" y="403" type="curve" smooth="yes"/>
      <point x="173" y="509"/>
      <point x="261" y="634"/>
      <point x="335" y="634" type="curve" smooth="yes"/>
      <point x="355" y="634"/>
      <point x="365" y="620"/>
      <point x="365" y="595" type="curve" smooth="yes"/>
      <point x="365" y="569"/>
      <point x="347" y="510"/>
      <point x="232" y="495" type="curve" smooth="yes"/>
      <point x="178" y="488" type="line"/>
      <point x="176" y="469" type="line"/>
      <point x="249" y="476" type="line" smooth="yes"/>
      <point x="358" y="487"/>
      <point x="420" y="524"/>
      <point x="420" y="583" type="curve" smooth="yes"/>
      <point x="420" y="624"/>
      <point x="387" y="652"/>
      <point x="332" y="652" type="curve" smooth="yes"/>
      <point x="225" y="652"/>
      <point x="105" y="546"/>
      <point x="105" y="418" type="curve" smooth="yes"/>
      <point x="105" y="353"/>
      <point x="144" y="290"/>
    </contour>
  </outline>
</glyph>
<glyph name="f.calt" format="1">
  <advance width="309"/>
  <outline>
    <contour>
      <point x="-158" y="-290" type="curve" smooth="yes"/>
      <point x="-40" y="-290"/>
      <point x="24" y="-221"/>
      <point x="52" y="-136" type="curve" smooth="yes"/>
      <point x="296" y="607" type="line" smooth="yes"/>
      <point x="320" y="680"/>
      <point x="358" y="698"/>
      <point x="384" y="698" type="curve" smooth="yes"/>
      <point x="410" y="698"/>
      <point x="419" y="685"/>
      <point x="419" y="647" type="curve" smooth="yes"/>
      <point x="419" y="618"/>
      <point x="429" y="597"/>
      <point x="460" y="597" type="curve" smooth="yes"/>
      <point x="493" y="597"/>
      <point x="506" y="623"/>
      <point x="506" y="650" type="curve" smooth="yes"/>
      <point x="506" y="685"/>
      <point x="475" y="720"/>
      <point x="402" y="720" type="curve" smooth="yes"/>
      <point x="316" y="720"/>
      <point x="251" y="681"/>
      <point x="203" y="548" type="curve" smooth="yes"/>
      <point x="-18" y="-131" type="line" smooth="yes"/>
      <point x="-33" y="-176"/>
      <point x="-70" y="-265"/>
      <point x="-144" y="-265" type="curve" smooth="yes"/>
      <point x="-181" y="-265"/>
      <point x="-204" y="-249"/>
      <point x="-220" y="-226" type="curve"/>
      <point x="-267" y="-262" type="line"/>
      <point x="-243" y="-279"/>
      <point x="-206" y="-290"/>
    </contour>
    <contour>
      <point x="94" y="416" type="line"/>
      <point x="341" y="416" type="line"/>
      <point x="348" y="440" type="line"/>
      <point x="101" y="440" type="line"/>
    </contour>
    <contour>
      <point x="68" y="0" type="move" name="bottom"/>
    </contour>
    <contour>
      <point x="228" y="440" type="move" name="top"/>
    </contour>
  </outline>
</glyph>
<glyph name="f_b.liga" format="1">
  <advance width="863"/>
  <outline>
    <contour>
      <point x="-123" y="-290" type="curve" smooth="yes"/>
      <point x="-36" y="-290"/>
      <point x="14" y="-260"/>
      <point x="61" y="-131" type="curve" smooth="yes"/>
      <point x="292" y="504" type="line" smooth="yes"/>
      <point x="325" y="595"/>
      <point x="365" y="695"/>
      <point x="471" y="695" type="curve" smooth="yes"/>
      <point x="521" y="695"/>
      <point x="585" y="675"/>
      <point x="607" y="604" type="curve"/>
      <point x="667" y="678" type="line"/>
      <point x="639" y="700"/>
      <point x="543" y="720"/>
      <point x="480" y="720" type="curve" smooth="yes"/>
      <point x="325" y="720"/>
      <point x="277" y="653"/>
      <point x="228" y="520" type="curve" smooth="yes"/>
      <point x="-11" y="-131" type="line" smooth="yes"/>
      <point x="-42" y="-214"/>
      <point x="-70" y="-268"/>
      <point x="-105" y="-268" type="curve" smooth="yes"/>
      <point x="-149" y="-268"/>
      <point x="-126" y="-174"/>
      <point x="-185" y="-174" type="curve" smooth="yes"/>
      <point x="-213" y="-174"/>
      <point x="-234" y="-194"/>
      <point x="-234" y="-221" type="curve" smooth="yes"/>
      <point x="-234" y="-255"/>
      <point x="-205" y="-290"/>
    </contour>
    <contour>
      <point x="106" y="416" type="line"/>
      <point x="373" y="416" type="line"/>
      <point x="380" y="440" type="line"/>
      <point x="113" y="440" type="line"/>
    </contour>
    <contour>
      <point x="558" y="10" type="curve" smooth="yes"/>
      <point x="501" y="10"/>
      <point x="476" y="41"/>
      <point x="476" y="96" type="curve" smooth="yes"/>
      <point x="476" y="129"/>
      <point x="485" y="171"/>
      <point x="503" y="221" type="curve" smooth="yes"/>
      <point x="522" y="274" type="line" smooth="yes"/>
      <point x="552" y="358"/>
      <point x="597" y="430"/>
      <point x="673" y="430" type="curve" smooth="yes"/>
      <point x="714" y="430"/>
      <point x="754" y="397"/>
      <point x="754" y="326" type="curve" smooth="yes"/>
      <point x="754" y="184"/>
      <point x="657" y="10"/>
    </contour>
    <contour>
      <point x="558" y="-14" type="curve" smooth="yes"/>
      <point x="686" y="-14"/>
      <point x="826" y="122"/>
      <point x="826" y="287" type="curve" smooth="yes"/>
      <point x="826" y="380"/>
      <point x="765" y="454"/>
      <point x="679" y="454" type="curve" smooth="yes"/>
      <point x="629" y="454"/>
      <point x="578" y="430"/>
      <point x="552" y="383" type="curve"/>
      <point x="554" y="368" type="line"/>
      <point x="667" y="678" type="line"/>
      <point x="609" y="698" type="line"/>
      <point x="437" y="233" type="line" smooth="yes"/>
      <point x="420" y="188"/>
      <point x="412" y="149"/>
      <point x="412" y="116" type="curve" smooth="yes"/>
      <point x="412" y="30"/>
      <point x="467" y="-14"/>
    </contour>
    <contour>
      <point x="137" y="0" type="move" name="bottom_1"/>
    </contour>
    <contour>
      <point x="572" y="0" type="move" name="bottom_2"/>
    </contour>
    <contour>
      <point x="431" y="0" type="move" name="caret_1"/>
    </contour>
    <contour>
      <point x="297" y="440" type="move" name="top_1"/>
    </contour>
    <contour>
      <point x="732" y="440" type="move" name="top_2"/>
    </contour>
  </outline>
</glyph>
<glyph name="f_f.liga" format="1">
  <advance width="631"/>
  <outline>
    <contour>
      <point x="-123" y="-290" type="curve" smooth="yes"/>
      <point x="-36" y="-290"/>
      <point x="14" y="-260"/>
      <point x="61" y="-131" type="curve" smooth="yes"/>
      <point x="287" y="504" type="line" smooth="yes"/>
      <point x="319" y="595"/>
      <point x="355" y="695"/>
      <point x="438" y="695" type="curve" smooth="yes"/>
      <point x="506" y="695"/>
      <point x="540" y="638"/>
      <point x="546" y="582" type="curve"/>
      <point x="611" y="665" type="line"/>
      <point x="570" y="710"/>
      <point x="500" y="720"/>
      <point x="446" y="720" type="curve" smooth="yes"/>
      <point x="324" y="720"/>
      <point x="271" y="653"/>
      <point x="223" y="520" type="curve" smooth="yes"/>
      <point x="-11" y="-131" type="line" smooth="yes"/>
      <point x="-41" y="-214"/>
      <point x="-70" y="-268"/>
      <point x="-105" y="-268" type="curve" smooth="yes"/>
      <point x="-149" y="-268"/>
      <point x="-126" y="-174"/>
      <point x="-185" y="-174" type="curve" smooth="yes"/>
      <point x="-213" y="-174"/>
      <point x="-234" y="-194"/>
      <point x="-234" y="-221" type="curve" smooth="yes"/>
      <point x="-234" y="-255"/>
      <point x="-205" y="-290"/>
    </contour>
    <contour>
      <point x="137" y="-290" type="curve" smooth="yes"/>
      <point x="261" y="-290"/>
      <point x="322" y="-225"/>
      <point x="367" y="-90" type="curve" smooth="yes"/>
      <point x="621" y="615" type="line" smooth="yes"/>
      <point x="640" y="672"/>
      <point x="684" y="698"/>
      <point x="712" y="698" type="curve" smooth="yes"/>
      <point x="732" y="698"/>
      <point x="741" y="685"/>
      <point x="741" y="647" type="curve" smooth="yes"/>
      <point x="741" y="618"/>
      <point x="751" y="597"/>
      <point x="780" y="597" type="curve" smooth="yes"/>
      <point x="811" y="597"/>
      <point x="828" y="623"/>
      <point x="828" y="650" type="curve" smooth="yes"/>
      <point x="828" y="680"/>
      <point x="807" y="720"/>
      <point x="712" y="720" type="curve" smooth="yes"/>
      <point x="633" y="720"/>
      <point x="571" y="681"/>
      <point x="543" y="596" type="curve" smooth="yes"/>
      <point x="304" y="-74" type="line" smooth="yes"/>
      <point x="273" y="-168"/>
      <point x="231" y="-265"/>
      <point x="157" y="-265" type="curve" smooth="yes"/>
      <point x="97" y="-265"/>
      <point x="74" y="-209"/>
      <point x="58" y="-126" type="curve"/>
      <point x="14" y="-208" type="line"/>
      <point x="14" y="-251"/>
      <point x="66" y="-290"/>
    </contour>
    <contour>
      <point x="91" y="416" type="line"/>
      <point x="418" y="416" type="line"/>
      <point x="425" y="440" type="line"/>
      <point x="98" y="440" type="line"/>
    </contour>
    <contour>
      <point x="375" y="416" type="line"/>
      <point x="665" y="416" type="line"/>
      <point x="672" y="440" type="line"/>
      <point x="382" y="440" type="line"/>
    </contour>
    <contour>
      <point x="316" y="0" type="move" name="caret_1"/>
    </contour>
  </outline>
</glyph>
<glyph name="f_f_i.liga" format="1">
  <advance width="871"/>
  <outline>
    <contour>
      <point x="141" y="-290" type="curve" smooth="yes"/>
      <point x="265" y="-290"/>
      <point x="324" y="-224"/>
      <point x="372" y="-90" type="curve" smooth="yes"/>
      <point x="625" y="615" type="line" smooth="yes"/>
      <point x="646" y="672"/>
      <point x="688" y="698"/>
      <point x="729" y="698" type="curve" smooth="yes"/>
      <point x="771" y="698"/>
      <point x="798" y="683"/>
      <point x="798" y="633" type="curve" smooth="yes"/>
      <point x="798" y="603"/>
      <point x="815" y="582"/>
      <point x="845" y="582" type="curve" smooth="yes"/>
      <point x="882" y="582"/>
      <point x="904" y="613"/>
      <point x="904" y="642" type="curve" smooth="yes"/>
      <point x="904" y="664"/>
      <point x="898" y="720"/>
      <point x="749" y="720" type="curve" smooth="yes"/>
      <point x="635" y="720"/>
      <point x="577" y="680"/>
      <point x="542" y="583" type="curve" smooth="yes"/>
      <point x="308" y="-74" type="line" smooth="yes"/>
      <point x="274" y="-169"/>
      <point x="235" y="-265"/>
      <point x="161" y="-265" type="curve" smooth="yes"/>
      <point x="89" y="-265"/>
      <point x="70" y="-204"/>
      <point x="53" y="-150" type="curve"/>
      <point x="4" y="-208" type="line"/>
      <point x="4" y="-251"/>
      <point x="62" y="-290"/>
    </contour>
    <contour>
      <point x="-123" y="-290" type="curve" smooth="yes"/>
      <point x="-36" y="-290"/>
      <point x="14" y="-260"/>
      <point x="61" y="-131" type="curve" smooth="yes"/>
      <point x="287" y="504" type="line" smooth="yes"/>
      <point x="319" y="595"/>
      <point x="355" y="695"/>
      <point x="444" y="695" type="curve" smooth="yes"/>
      <point x="511" y="695"/>
      <point x="540" y="638"/>
      <point x="546" y="582" type="curve"/>
      <point x="611" y="665" type="line"/>
      <point x="570" y="710"/>
      <point x="500" y="720"/>
      <point x="446" y="720" type="curve" smooth="yes"/>
      <point x="324" y="720"/>
      <point x="271" y="653"/>
      <point x="223" y="520" type="curve" smooth="yes"/>
      <point x="-11" y="-131" type="line" smooth="yes"/>
      <point x="-41" y="-214"/>
      <point x="-70" y="-268"/>
      <point x="-105" y="-268" type="curve" smooth="yes"/>
      <point x="-149" y="-268"/>
      <point x="-126" y="-174"/>
      <point x="-185" y="-174" type="curve" smooth="yes"/>
      <point x="-213" y="-174"/>
      <point x="-234" y="-194"/>
      <point x="-234" y="-221" type="curve" smooth="yes"/>
      <point x="-234" y="-255"/>
      <point x="-205" y="-290"/>
    </contour>
    <contour>
      <point x="85" y="416" type="line"/>
      <point x="432" y="416" type="line"/>
      <point x="439" y="440" type="line"/>
      <point x="92" y="440" type="line"/>
    </contour>
    <contour>
      <point x="398" y="416" type="line"/>
      <point x="705" y="416" type="line"/>
      <point x="712" y="440" type="line"/>
      <point x="405" y="440" type="line"/>
    </contour>
    <component base="idotless" xOffset="592"/>
    <contour>
      <point x="296" y="0" type="move" name="caret_1"/>
    </contour>
    <contour>
      <point x="592" y="0" type="move" name="caret_2"/>
    </contour>
  </outline>
</glyph>
<glyph name="f_f_j.liga" format="1">
  <advance width="871"/>
  <outline>
    <contour>
      <point x="-100" y="-290" type="curve" smooth="yes"/>
      <point x="-13" y="-290"/>
      <point x="42" y="-262"/>
      <point x="84" y="-131" type="curve" smooth="yes"/>
      <point x="290" y="504" type="line" smooth="yes"/>
      <point x="320" y="598"/>
      <point x="358" y="699"/>
      <point x="441" y="699" type="curve" smooth="yes"/>
      <point x="509" y="699"/>
      <point x="543" y="640"/>
      <point x="549" y="582" type="curve"/>
      <point x="614" y="665" type="line"/>
      <point x="573" y="713"/>
      <point x="503" y="724"/>
      <point x="449" y="724" type="curve" smooth="yes"/>
      <point x="327" y="724"/>
      <point x="270" y="657"/>
      <point x="226" y="520" type="curve" smooth="yes"/>
      <point x="12" y="-131" type="line" smooth="yes"/>
      <point x="-16" y="-215"/>
      <point x="-47" y="-268"/>
      <point x="-82" y="-268" type="curve" smooth="yes"/>
      <point x="-126" y="-268"/>
      <point x="-103" y="-174"/>
      <point x="-162" y="-174" type="curve" smooth="yes"/>
      <point x="-190" y="-174"/>
      <point x="-211" y="-194"/>
      <point x="-211" y="-221" type="curve" smooth="yes"/>
      <point x="-211" y="-255"/>
      <point x="-182" y="-290"/>
    </contour>
    <contour>
      <point x="94" y="416" type="line"/>
      <point x="421" y="416" type="line"/>
      <point x="428" y="440" type="line"/>
      <point x="101" y="440" type="line"/>
    </contour>
    <contour>
      <point x="378" y="416" type="line"/>
      <point x="688" y="416" type="line"/>
      <point x="695" y="440" type="line"/>
      <point x="385" y="440" type="line"/>
    </contour>
    <contour>
      <point x="380" y="-90" type="curve" smooth="yes"/>
      <point x="606" y="581" type="line" smooth="yes"/>
      <point x="633" y="664"/>
      <point x="681" y="702"/>
      <point x="725" y="702" type="curve" smooth="yes"/>
      <point x="768" y="702"/>
      <point x="787" y="686"/>
      <point x="787" y="633" type="curve" smooth="yes"/>
      <point x="787" y="603"/>
      <point x="804" y="582"/>
      <point x="834" y="582" type="curve" smooth="yes"/>
      <point x="871" y="582"/>
      <point x="893" y="610"/>
      <point x="893" y="638" type="curve" smooth="yes"/>
      <point x="893" y="665"/>
      <point x="874" y="724"/>
      <point x="738" y="724" type="curve" smooth="yes"/>
      <point x="630" y="724"/>
      <point x="568" y="685"/>
      <point x="520" y="541" type="curve" smooth="yes"/>
      <point x="312" y="-74" type="line" smooth="yes"/>
      <point x="278" y="-174"/>
      <point x="244" y="-265"/>
      <point x="170" y="-265" type="curve" smooth="yes"/>
      <point x="110" y="-265"/>
      <point x="87" y="-209"/>
      <point x="71" y="-126" type="curve"/>
      <point x="27" y="-208" type="line"/>
      <point x="27" y="-251"/>
      <point x="79" y="-290"/>
      <point x="150" y="-290" type="curve" smooth="yes"/>
      <point x="274" y="-290"/>
      <point x="335" y="-223"/>
    </contour>
    <contour>
      <point x="683" y="-90" type="curve" smooth="yes"/>
      <point x="857" y="443" type="line"/>
      <point x="695" y="440" type="line"/>
      <point x="688" y="416" type="line"/>
      <point x="725" y="416"/>
      <point x="764" y="417"/>
      <point x="764" y="384" type="curve" smooth="yes"/>
      <point x="764" y="378"/>
      <point x="762" y="370"/>
      <point x="759" y="360" type="curve" smooth="yes"/>
      <point x="619" y="-74" type="line" smooth="yes"/>
      <point x="586" y="-176"/>
      <point x="541" y="-265"/>
      <point x="460" y="-265" type="curve" smooth="yes"/>
      <point x="400" y="-265"/>
      <point x="377" y="-209"/>
      <point x="361" y="-126" type="curve"/>
      <point x="317" y="-208" type="line"/>
      <point x="317" y="-251"/>
      <point x="369" y="-290"/>
      <point x="449" y="-290" type="curve" smooth="yes"/>
      <point x="571" y="-290"/>
      <point x="634" y="-222"/>
    </contour>
  </outline>
</glyph>
